<svg xmlns="http://www.w3.org/2000/svg" width="592" height="372" viewBox="0 0 592 372">
<rect width="100%" height="100%" fill="white"/>
<text x="8" y="12" font-size="11" font-family="monospace" fill="#000">D-02 transverse section X=+150 — nose beam / front axle (Z above DAT-F, S0=0)</text>
<line x1="273.6" y1="163.7" x2="274.3" y2="163.7" stroke="#222" stroke-width="1.0"/>
<line x1="274.3" y1="163.7" x2="274.9" y2="163.7" stroke="#222" stroke-width="1.0"/>
<line x1="274.9" y1="163.7" x2="275.2" y2="163.7" stroke="#222" stroke-width="1.0"/>
<line x1="275.2" y1="163.7" x2="276.1" y2="163.7" stroke="#222" stroke-width="1.0"/>
<line x1="276.8" y1="163.7" x2="277.1" y2="163.7" stroke="#222" stroke-width="1.0"/>
<line x1="277.1" y1="163.7" x2="278.2" y2="163.7" stroke="#222" stroke-width="1.0"/>
<line x1="279.1" y1="163.7" x2="279.6" y2="163.7" stroke="#222" stroke-width="1.0"/>
<line x1="279.6" y1="163.7" x2="280.1" y2="163.7" stroke="#222" stroke-width="1.0"/>
<line x1="280.1" y1="163.7" x2="281.1" y2="163.7" stroke="#222" stroke-width="1.0"/>
<line x1="269.8" y1="163.7" x2="270.8" y2="163.7" stroke="#222" stroke-width="1.0"/>
<line x1="270.8" y1="163.7" x2="271.7" y2="163.7" stroke="#222" stroke-width="1.0"/>
<line x1="271.7" y1="163.7" x2="272.2" y2="163.7" stroke="#222" stroke-width="1.0"/>
<line x1="272.7" y1="163.7" x2="273.2" y2="163.7" stroke="#222" stroke-width="1.0"/>
<line x1="272.2" y1="163.7" x2="272.7" y2="163.7" stroke="#222" stroke-width="1.0"/>
<line x1="269.7" y1="163.7" x2="269.8" y2="163.7" stroke="#222" stroke-width="1.0"/>
<line x1="269.6" y1="163.7" x2="269.7" y2="163.7" stroke="#222" stroke-width="1.0"/>
<line x1="269.3" y1="163.7" x2="269.5" y2="163.7" stroke="#222" stroke-width="1.0"/>
<line x1="268.7" y1="163.7" x2="269.3" y2="163.7" stroke="#222" stroke-width="1.0"/>
<line x1="268.4" y1="163.7" x2="268.7" y2="163.7" stroke="#222" stroke-width="1.0"/>
<line x1="267.7" y1="163.7" x2="268.3" y2="163.7" stroke="#222" stroke-width="1.0"/>
<line x1="267.4" y1="163.7" x2="267.7" y2="163.7" stroke="#222" stroke-width="1.0"/>
<line x1="264.7" y1="163.7" x2="265.2" y2="163.7" stroke="#222" stroke-width="1.0"/>
<line x1="267.3" y1="163.7" x2="265.2" y2="163.7" stroke="#222" stroke-width="1.0"/>
<line x1="360.0" y1="163.9" x2="359.7" y2="163.7" stroke="#222" stroke-width="1.0"/>
<line x1="359.7" y1="163.7" x2="357.3" y2="163.7" stroke="#222" stroke-width="1.0"/>
<line x1="357.3" y1="163.7" x2="356.3" y2="163.8" stroke="#222" stroke-width="1.0"/>
<line x1="356.3" y1="163.8" x2="355.5" y2="163.6" stroke="#222" stroke-width="1.0"/>
<line x1="355.5" y1="163.6" x2="352.9" y2="163.7" stroke="#222" stroke-width="1.0"/>
<line x1="352.9" y1="163.7" x2="351.0" y2="163.7" stroke="#222" stroke-width="1.0"/>
<line x1="351.0" y1="163.7" x2="350.8" y2="163.7" stroke="#222" stroke-width="1.0"/>
<line x1="350.8" y1="163.7" x2="350.4" y2="163.7" stroke="#222" stroke-width="1.0"/>
<line x1="350.1" y1="163.8" x2="350.4" y2="163.7" stroke="#222" stroke-width="1.0"/>
<line x1="360.6" y1="164.5" x2="360.8" y2="164.6" stroke="#222" stroke-width="1.0"/>
<line x1="360.8" y1="164.6" x2="360.8" y2="164.7" stroke="#222" stroke-width="1.0"/>
<line x1="360.8" y1="164.7" x2="360.8" y2="164.7" stroke="#222" stroke-width="1.0"/>
<line x1="360.8" y1="164.7" x2="360.8" y2="164.7" stroke="#222" stroke-width="1.0"/>
<line x1="360.8" y1="164.6" x2="360.8" y2="164.7" stroke="#222" stroke-width="1.0"/>
<line x1="360.8" y1="164.7" x2="360.8" y2="164.6" stroke="#222" stroke-width="1.0"/>
<line x1="366.6" y1="170.5" x2="361.4" y2="165.3" stroke="#222" stroke-width="1.0"/>
<line x1="361.4" y1="165.3" x2="361.4" y2="165.3" stroke="#222" stroke-width="1.0"/>
<line x1="367.2" y1="171.1" x2="367.1" y2="171.0" stroke="#222" stroke-width="1.0"/>
<line x1="367.1" y1="171.0" x2="367.0" y2="170.9" stroke="#222" stroke-width="1.0"/>
<line x1="367.0" y1="170.9" x2="366.9" y2="170.9" stroke="#222" stroke-width="1.0"/>
<line x1="366.9" y1="170.8" x2="366.9" y2="170.9" stroke="#222" stroke-width="1.0"/>
<line x1="366.9" y1="170.7" x2="366.9" y2="170.7" stroke="#222" stroke-width="1.0"/>
<line x1="366.9" y1="170.7" x2="366.9" y2="170.7" stroke="#222" stroke-width="1.0"/>
<line x1="366.9" y1="170.7" x2="366.9" y2="170.7" stroke="#222" stroke-width="1.0"/>
<line x1="366.9" y1="170.7" x2="366.9" y2="170.7" stroke="#222" stroke-width="1.0"/>
<line x1="366.9" y1="170.7" x2="366.9" y2="170.7" stroke="#222" stroke-width="1.0"/>
<line x1="366.7" y1="170.5" x2="366.9" y2="170.7" stroke="#222" stroke-width="1.0"/>
<line x1="345.4" y1="163.7" x2="346.7" y2="163.7" stroke="#222" stroke-width="1.0"/>
<line x1="346.7" y1="163.7" x2="348.3" y2="163.8" stroke="#222" stroke-width="1.0"/>
<line x1="299.7" y1="163.7" x2="345.4" y2="163.7" stroke="#222" stroke-width="1.0"/>
<line x1="287.7" y1="163.7" x2="289.3" y2="163.7" stroke="#222" stroke-width="1.0"/>
<line x1="286.3" y1="163.7" x2="287.7" y2="163.7" stroke="#222" stroke-width="1.0"/>
<line x1="284.2" y1="163.7" x2="285.5" y2="163.7" stroke="#222" stroke-width="1.0"/>
<line x1="283.0" y1="163.7" x2="284.2" y2="163.7" stroke="#222" stroke-width="1.0"/>
<line x1="282.3" y1="163.7" x2="283.0" y2="163.7" stroke="#222" stroke-width="1.0"/>
<line x1="285.5" y1="163.7" x2="286.3" y2="163.7" stroke="#222" stroke-width="1.0"/>
<line x1="289.3" y1="163.7" x2="299.7" y2="163.7" stroke="#222" stroke-width="1.0"/>
<line x1="264.3" y1="163.7" x2="264.6" y2="163.7" stroke="#222" stroke-width="1.0"/>
<line x1="264.3" y1="163.7" x2="263.3" y2="163.7" stroke="#222" stroke-width="1.0"/>
<line x1="225.6" y1="170.5" x2="225.6" y2="170.5" stroke="#222" stroke-width="1.0"/>
<line x1="225.5" y1="170.6" x2="225.6" y2="170.5" stroke="#222" stroke-width="1.0"/>
<line x1="225.3" y1="170.8" x2="225.5" y2="170.6" stroke="#222" stroke-width="1.0"/>
<line x1="225.1" y1="170.9" x2="225.3" y2="170.8" stroke="#222" stroke-width="1.0"/>
<line x1="225.1" y1="170.9" x2="225.1" y2="170.9" stroke="#222" stroke-width="1.0"/>
<line x1="225.1" y1="170.9" x2="225.1" y2="170.9" stroke="#222" stroke-width="1.0"/>
<line x1="225.1" y1="170.9" x2="225.1" y2="170.9" stroke="#222" stroke-width="1.0"/>
<line x1="225.1" y1="170.9" x2="225.1" y2="170.9" stroke="#222" stroke-width="1.0"/>
<line x1="225.1" y1="170.9" x2="225.1" y2="170.9" stroke="#222" stroke-width="1.0"/>
<line x1="225.1" y1="170.9" x2="225.1" y2="170.8" stroke="#222" stroke-width="1.0"/>
<line x1="225.1" y1="170.8" x2="225.1" y2="170.8" stroke="#222" stroke-width="1.0"/>
<line x1="224.4" y1="171.8" x2="224.4" y2="171.8" stroke="#222" stroke-width="1.0"/>
<line x1="224.4" y1="171.8" x2="224.3" y2="172.0" stroke="#222" stroke-width="1.0"/>
<line x1="367.8" y1="171.8" x2="367.8" y2="171.8" stroke="#222" stroke-width="1.0"/>
<line x1="367.3" y1="171.3" x2="367.8" y2="171.8" stroke="#222" stroke-width="1.0"/>
<line x1="367.3" y1="171.2" x2="367.3" y2="171.3" stroke="#222" stroke-width="1.0"/>
<line x1="261.7" y1="163.7" x2="256.6" y2="163.7" stroke="#222" stroke-width="1.0"/>
<line x1="256.6" y1="163.7" x2="255.4" y2="163.7" stroke="#222" stroke-width="1.0"/>
<line x1="255.4" y1="163.7" x2="253.2" y2="163.8" stroke="#222" stroke-width="1.0"/>
<line x1="253.2" y1="163.8" x2="249.8" y2="163.7" stroke="#222" stroke-width="1.0"/>
<line x1="249.8" y1="163.7" x2="249.0" y2="163.7" stroke="#222" stroke-width="1.0"/>
<line x1="249.0" y1="163.7" x2="244.9" y2="163.8" stroke="#222" stroke-width="1.0"/>
<line x1="244.6" y1="163.8" x2="244.9" y2="163.8" stroke="#222" stroke-width="1.0"/>
<line x1="243.2" y1="163.8" x2="242.8" y2="163.8" stroke="#222" stroke-width="1.0"/>
<line x1="242.8" y1="163.8" x2="242.4" y2="163.7" stroke="#222" stroke-width="1.0"/>
<line x1="242.0" y1="163.7" x2="242.4" y2="163.7" stroke="#222" stroke-width="1.0"/>
<line x1="231.6" y1="164.5" x2="228.1" y2="167.8" stroke="#222" stroke-width="1.0"/>
<line x1="228.1" y1="167.8" x2="226.7" y2="169.2" stroke="#222" stroke-width="1.0"/>
<line x1="225.6" y1="170.5" x2="225.6" y2="170.5" stroke="#222" stroke-width="1.0"/>
<line x1="226.4" y1="169.5" x2="225.6" y2="170.5" stroke="#222" stroke-width="1.0"/>
<line x1="225.1" y1="170.9" x2="225.1" y2="170.9" stroke="#222" stroke-width="1.0"/>
<line x1="225.1" y1="170.9" x2="225.0" y2="171.0" stroke="#222" stroke-width="1.0"/>
<line x1="223.8" y1="173.1" x2="223.8" y2="172.6" stroke="#222" stroke-width="1.0"/>
<line x1="223.9" y1="172.4" x2="223.8" y2="172.6" stroke="#222" stroke-width="1.0"/>
<line x1="223.9" y1="172.4" x2="223.9" y2="172.4" stroke="#222" stroke-width="1.0"/>
<line x1="223.9" y1="172.4" x2="223.9" y2="172.4" stroke="#222" stroke-width="1.0"/>
<line x1="223.9" y1="172.3" x2="223.9" y2="172.3" stroke="#222" stroke-width="1.0"/>
<line x1="223.9" y1="172.3" x2="223.9" y2="172.3" stroke="#222" stroke-width="1.0"/>
<line x1="223.9" y1="172.3" x2="223.9" y2="172.3" stroke="#222" stroke-width="1.0"/>
<line x1="223.9" y1="172.3" x2="223.9" y2="172.3" stroke="#222" stroke-width="1.0"/>
<line x1="223.9" y1="172.3" x2="223.9" y2="172.3" stroke="#222" stroke-width="1.0"/>
<line x1="223.9" y1="172.3" x2="223.9" y2="172.3" stroke="#222" stroke-width="1.0"/>
<line x1="223.9" y1="172.3" x2="223.9" y2="172.3" stroke="#222" stroke-width="1.0"/>
<line x1="223.9" y1="172.3" x2="223.9" y2="172.3" stroke="#222" stroke-width="1.0"/>
<line x1="223.9" y1="172.3" x2="223.9" y2="172.3" stroke="#222" stroke-width="1.0"/>
<line x1="223.9" y1="172.3" x2="224.0" y2="172.3" stroke="#222" stroke-width="1.0"/>
<line x1="224.0" y1="172.3" x2="224.0" y2="172.3" stroke="#222" stroke-width="1.0"/>
<line x1="224.0" y1="172.3" x2="224.0" y2="172.3" stroke="#222" stroke-width="1.0"/>
<line x1="224.0" y1="172.3" x2="224.0" y2="172.3" stroke="#222" stroke-width="1.0"/>
<line x1="224.0" y1="172.3" x2="224.0" y2="172.3" stroke="#222" stroke-width="1.0"/>
<line x1="224.0" y1="172.3" x2="224.0" y2="172.3" stroke="#222" stroke-width="1.0"/>
<line x1="224.1" y1="172.1" x2="224.1" y2="172.2" stroke="#222" stroke-width="1.0"/>
<line x1="224.1" y1="172.2" x2="224.0" y2="172.3" stroke="#222" stroke-width="1.0"/>
<line x1="224.0" y1="172.3" x2="224.0" y2="172.3" stroke="#222" stroke-width="1.0"/>
<line x1="224.0" y1="172.3" x2="224.0" y2="172.3" stroke="#222" stroke-width="1.0"/>
<line x1="223.9" y1="172.3" x2="223.9" y2="172.3" stroke="#222" stroke-width="1.0"/>
<line x1="223.9" y1="172.3" x2="223.9" y2="172.3" stroke="#222" stroke-width="1.0"/>
<line x1="223.9" y1="172.3" x2="223.9" y2="172.3" stroke="#222" stroke-width="1.0"/>
<line x1="223.9" y1="172.3" x2="223.9" y2="172.3" stroke="#222" stroke-width="1.0"/>
<line x1="223.9" y1="172.3" x2="223.9" y2="172.3" stroke="#222" stroke-width="1.0"/>
<line x1="223.9" y1="172.3" x2="223.9" y2="172.3" stroke="#222" stroke-width="1.0"/>
<line x1="223.9" y1="172.3" x2="223.9" y2="172.3" stroke="#222" stroke-width="1.0"/>
<line x1="223.9" y1="172.3" x2="223.9" y2="172.3" stroke="#222" stroke-width="1.0"/>
<line x1="223.9" y1="172.3" x2="223.9" y2="172.3" stroke="#222" stroke-width="1.0"/>
<line x1="223.9" y1="172.3" x2="223.9" y2="172.3" stroke="#222" stroke-width="1.0"/>
<line x1="224.2" y1="172.1" x2="224.1" y2="172.1" stroke="#222" stroke-width="1.0"/>
<line x1="224.1" y1="172.1" x2="224.1" y2="172.1" stroke="#222" stroke-width="1.0"/>
<line x1="224.1" y1="172.1" x2="224.1" y2="172.1" stroke="#222" stroke-width="1.0"/>
<line x1="224.1" y1="172.1" x2="224.1" y2="172.1" stroke="#222" stroke-width="1.0"/>
<line x1="224.1" y1="172.1" x2="224.1" y2="172.1" stroke="#222" stroke-width="1.0"/>
<line x1="224.1" y1="172.1" x2="224.1" y2="172.1" stroke="#222" stroke-width="1.0"/>
<line x1="223.6" y1="175.7" x2="223.7" y2="175.1" stroke="#222" stroke-width="1.0"/>
<line x1="223.7" y1="173.9" x2="223.7" y2="175.1" stroke="#222" stroke-width="1.0"/>
<line x1="223.7" y1="173.9" x2="223.7" y2="173.9" stroke="#222" stroke-width="1.0"/>
<line x1="223.8" y1="173.5" x2="223.7" y2="173.6" stroke="#222" stroke-width="1.0"/>
<line x1="223.8" y1="173.5" x2="223.8" y2="173.5" stroke="#222" stroke-width="1.0"/>
<line x1="223.8" y1="173.4" x2="223.8" y2="173.5" stroke="#222" stroke-width="1.0"/>
<line x1="223.8" y1="173.3" x2="223.8" y2="173.4" stroke="#222" stroke-width="1.0"/>
<line x1="223.7" y1="173.2" x2="223.8" y2="173.3" stroke="#222" stroke-width="1.0"/>
<line x1="223.7" y1="173.2" x2="223.7" y2="173.2" stroke="#222" stroke-width="1.0"/>
<line x1="223.7" y1="173.6" x2="223.7" y2="173.9" stroke="#222" stroke-width="1.0"/>
<line x1="223.6" y1="176.1" x2="223.6" y2="175.7" stroke="#222" stroke-width="1.0"/>
<line x1="223.6" y1="176.1" x2="223.4" y2="185.5" stroke="#222" stroke-width="1.0"/>
<line x1="223.5" y1="186.2" x2="223.4" y2="185.5" stroke="#222" stroke-width="1.0"/>
<line x1="368.5" y1="186.3" x2="368.6" y2="185.6" stroke="#222" stroke-width="1.0"/>
<line x1="368.4" y1="176.1" x2="368.6" y2="185.6" stroke="#222" stroke-width="1.0"/>
<line x1="368.0" y1="172.1" x2="368.2" y2="172.6" stroke="#222" stroke-width="1.0"/>
<line x1="368.3" y1="173.4" x2="368.2" y2="172.6" stroke="#222" stroke-width="1.0"/>
<line x1="368.4" y1="174.9" x2="368.3" y2="173.4" stroke="#222" stroke-width="1.0"/>
<line x1="367.9" y1="171.9" x2="367.9" y2="171.9" stroke="#222" stroke-width="1.0"/>
<line x1="367.9" y1="171.8" x2="367.9" y2="171.9" stroke="#222" stroke-width="1.0"/>
<line x1="367.9" y1="171.8" x2="367.9" y2="171.8" stroke="#222" stroke-width="1.0"/>
<line x1="367.9" y1="171.8" x2="367.9" y2="171.8" stroke="#222" stroke-width="1.0"/>
<line x1="367.9" y1="171.8" x2="367.9" y2="171.8" stroke="#222" stroke-width="1.0"/>
<line x1="367.9" y1="171.8" x2="367.9" y2="171.8" stroke="#222" stroke-width="1.0"/>
<line x1="367.9" y1="171.8" x2="367.9" y2="171.8" stroke="#222" stroke-width="1.0"/>
<line x1="368.5" y1="186.4" x2="368.5" y2="186.4" stroke="#222" stroke-width="1.0"/>
<line x1="368.5" y1="186.5" x2="368.5" y2="186.4" stroke="#222" stroke-width="1.0"/>
<line x1="368.5" y1="186.5" x2="368.5" y2="186.5" stroke="#222" stroke-width="1.0"/>
<line x1="368.5" y1="188.9" x2="368.5" y2="186.5" stroke="#222" stroke-width="1.0"/>
<line x1="368.5" y1="188.9" x2="283.9" y2="188.9" stroke="#222" stroke-width="1.0"/>
<line x1="223.5" y1="188.9" x2="283.9" y2="188.9" stroke="#222" stroke-width="1.0"/>
<line x1="223.5" y1="186.5" x2="223.5" y2="188.9" stroke="#222" stroke-width="1.0"/>
<line x1="223.5" y1="186.5" x2="223.5" y2="186.3" stroke="#222" stroke-width="1.0"/>
<line x1="367.9" y1="171.8" x2="367.9" y2="171.8" stroke="#222" stroke-width="1.0"/>
<line x1="367.9" y1="172.0" x2="367.9" y2="171.9" stroke="#222" stroke-width="1.0"/>
<line x1="368.0" y1="172.1" x2="367.9" y2="172.0" stroke="#222" stroke-width="1.0"/>
<line x1="358.1" y1="178.9" x2="358.1" y2="182.6" stroke="#222" stroke-width="1.0"/>
<line x1="358.1" y1="182.6" x2="356.5" y2="182.6" stroke="#222" stroke-width="1.0"/>
<line x1="351.2" y1="171.7" x2="351.2" y2="171.3" stroke="#222" stroke-width="1.0"/>
<line x1="351.2" y1="171.3" x2="351.2" y2="170.8" stroke="#222" stroke-width="1.0"/>
<line x1="349.6" y1="170.8" x2="351.2" y2="170.8" stroke="#222" stroke-width="1.0"/>
<line x1="349.6" y1="170.8" x2="347.7" y2="170.8" stroke="#222" stroke-width="1.0"/>
<line x1="346.1" y1="170.8" x2="347.7" y2="170.8" stroke="#222" stroke-width="1.0"/>
<line x1="346.1" y1="170.8" x2="344.3" y2="170.8" stroke="#222" stroke-width="1.0"/>
<line x1="342.7" y1="170.8" x2="344.3" y2="170.8" stroke="#222" stroke-width="1.0"/>
<line x1="342.7" y1="170.8" x2="340.8" y2="170.8" stroke="#222" stroke-width="1.0"/>
<line x1="339.2" y1="170.8" x2="340.8" y2="170.8" stroke="#222" stroke-width="1.0"/>
<line x1="339.2" y1="170.8" x2="337.4" y2="170.8" stroke="#222" stroke-width="1.0"/>
<line x1="335.7" y1="170.8" x2="337.4" y2="170.8" stroke="#222" stroke-width="1.0"/>
<line x1="335.7" y1="170.8" x2="333.9" y2="170.8" stroke="#222" stroke-width="1.0"/>
<line x1="332.3" y1="170.8" x2="333.9" y2="170.8" stroke="#222" stroke-width="1.0"/>
<line x1="332.3" y1="170.8" x2="330.5" y2="170.8" stroke="#222" stroke-width="1.0"/>
<line x1="328.8" y1="170.8" x2="330.5" y2="170.8" stroke="#222" stroke-width="1.0"/>
<line x1="328.8" y1="170.8" x2="327.0" y2="170.8" stroke="#222" stroke-width="1.0"/>
<line x1="325.4" y1="170.8" x2="327.0" y2="170.8" stroke="#222" stroke-width="1.0"/>
<line x1="325.4" y1="170.8" x2="323.5" y2="170.8" stroke="#222" stroke-width="1.0"/>
<line x1="321.9" y1="170.8" x2="323.5" y2="170.8" stroke="#222" stroke-width="1.0"/>
<line x1="321.9" y1="170.8" x2="320.1" y2="170.8" stroke="#222" stroke-width="1.0"/>
<line x1="318.6" y1="170.8" x2="320.1" y2="170.8" stroke="#222" stroke-width="1.0"/>
<line x1="318.6" y1="170.8" x2="316.8" y2="170.8" stroke="#222" stroke-width="1.0"/>
<line x1="315.2" y1="170.8" x2="316.8" y2="170.8" stroke="#222" stroke-width="1.0"/>
<line x1="315.2" y1="170.8" x2="313.4" y2="170.8" stroke="#222" stroke-width="1.0"/>
<line x1="311.8" y1="170.8" x2="313.4" y2="170.8" stroke="#222" stroke-width="1.0"/>
<line x1="311.8" y1="170.8" x2="309.9" y2="170.8" stroke="#222" stroke-width="1.0"/>
<line x1="308.3" y1="170.8" x2="309.9" y2="170.8" stroke="#222" stroke-width="1.0"/>
<line x1="308.3" y1="170.8" x2="306.5" y2="170.8" stroke="#222" stroke-width="1.0"/>
<line x1="304.9" y1="170.8" x2="306.5" y2="170.8" stroke="#222" stroke-width="1.0"/>
<line x1="304.9" y1="170.8" x2="303.0" y2="170.8" stroke="#222" stroke-width="1.0"/>
<line x1="301.4" y1="170.8" x2="303.0" y2="170.8" stroke="#222" stroke-width="1.0"/>
<line x1="301.4" y1="170.8" x2="299.6" y2="170.8" stroke="#222" stroke-width="1.0"/>
<line x1="297.9" y1="170.8" x2="299.6" y2="170.8" stroke="#222" stroke-width="1.0"/>
<line x1="297.9" y1="170.8" x2="296.1" y2="170.8" stroke="#222" stroke-width="1.0"/>
<line x1="294.5" y1="170.8" x2="296.1" y2="170.8" stroke="#222" stroke-width="1.0"/>
<line x1="294.5" y1="170.8" x2="292.7" y2="170.8" stroke="#222" stroke-width="1.0"/>
<line x1="291.0" y1="170.8" x2="292.7" y2="170.8" stroke="#222" stroke-width="1.0"/>
<line x1="291.0" y1="170.8" x2="289.2" y2="170.8" stroke="#222" stroke-width="1.0"/>
<line x1="287.6" y1="170.8" x2="289.2" y2="170.8" stroke="#222" stroke-width="1.0"/>
<line x1="287.6" y1="170.8" x2="285.7" y2="170.8" stroke="#222" stroke-width="1.0"/>
<line x1="284.1" y1="170.8" x2="285.7" y2="170.8" stroke="#222" stroke-width="1.0"/>
<line x1="284.1" y1="170.8" x2="282.3" y2="170.8" stroke="#222" stroke-width="1.0"/>
<line x1="280.7" y1="170.8" x2="282.3" y2="170.8" stroke="#222" stroke-width="1.0"/>
<line x1="280.7" y1="170.8" x2="278.8" y2="170.8" stroke="#222" stroke-width="1.0"/>
<line x1="277.2" y1="170.8" x2="278.8" y2="170.8" stroke="#222" stroke-width="1.0"/>
<line x1="277.2" y1="170.8" x2="275.4" y2="170.8" stroke="#222" stroke-width="1.0"/>
<line x1="273.8" y1="170.8" x2="275.4" y2="170.8" stroke="#222" stroke-width="1.0"/>
<line x1="273.8" y1="170.8" x2="271.9" y2="170.8" stroke="#222" stroke-width="1.0"/>
<line x1="270.3" y1="170.8" x2="271.9" y2="170.8" stroke="#222" stroke-width="1.0"/>
<line x1="270.3" y1="170.8" x2="268.5" y2="170.8" stroke="#222" stroke-width="1.0"/>
<line x1="266.9" y1="170.8" x2="268.5" y2="170.8" stroke="#222" stroke-width="1.0"/>
<line x1="266.9" y1="170.8" x2="265.0" y2="170.8" stroke="#222" stroke-width="1.0"/>
<line x1="263.4" y1="170.8" x2="265.0" y2="170.8" stroke="#222" stroke-width="1.0"/>
<line x1="263.4" y1="170.8" x2="261.6" y2="170.8" stroke="#222" stroke-width="1.0"/>
<line x1="259.9" y1="170.8" x2="261.6" y2="170.8" stroke="#222" stroke-width="1.0"/>
<line x1="259.9" y1="170.8" x2="258.1" y2="170.8" stroke="#222" stroke-width="1.0"/>
<line x1="256.5" y1="170.8" x2="258.1" y2="170.8" stroke="#222" stroke-width="1.0"/>
<line x1="256.5" y1="170.8" x2="254.7" y2="170.8" stroke="#222" stroke-width="1.0"/>
<line x1="253.0" y1="170.8" x2="254.7" y2="170.8" stroke="#222" stroke-width="1.0"/>
<line x1="253.0" y1="170.8" x2="251.2" y2="170.8" stroke="#222" stroke-width="1.0"/>
<line x1="249.6" y1="170.8" x2="251.2" y2="170.8" stroke="#222" stroke-width="1.0"/>
<line x1="249.6" y1="170.8" x2="247.7" y2="170.8" stroke="#222" stroke-width="1.0"/>
<line x1="246.1" y1="170.8" x2="247.7" y2="170.8" stroke="#222" stroke-width="1.0"/>
<line x1="246.1" y1="170.8" x2="244.3" y2="170.8" stroke="#222" stroke-width="1.0"/>
<line x1="242.7" y1="170.8" x2="244.3" y2="170.8" stroke="#222" stroke-width="1.0"/>
<line x1="242.7" y1="170.8" x2="240.8" y2="170.8" stroke="#222" stroke-width="1.0"/>
<line x1="240.8" y1="170.8" x2="240.8" y2="171.3" stroke="#222" stroke-width="1.0"/>
<line x1="240.8" y1="171.3" x2="240.8" y2="172.2" stroke="#222" stroke-width="1.0"/>
<line x1="353.0" y1="172.6" x2="351.2" y2="172.6" stroke="#222" stroke-width="1.0"/>
<line x1="353.0" y1="172.6" x2="354.6" y2="172.6" stroke="#222" stroke-width="1.0"/>
<line x1="354.6" y1="173.5" x2="354.6" y2="172.6" stroke="#222" stroke-width="1.0"/>
<line x1="354.6" y1="173.5" x2="354.6" y2="174.0" stroke="#222" stroke-width="1.0"/>
<line x1="354.6" y1="174.6" x2="354.6" y2="174.0" stroke="#222" stroke-width="1.0"/>
<line x1="354.6" y1="174.6" x2="354.6" y2="175.7" stroke="#222" stroke-width="1.0"/>
<line x1="356.5" y1="175.7" x2="354.6" y2="175.7" stroke="#222" stroke-width="1.0"/>
<line x1="234.1" y1="182.6" x2="236.0" y2="182.6" stroke="#222" stroke-width="1.0"/>
<line x1="237.6" y1="182.6" x2="236.0" y2="182.6" stroke="#222" stroke-width="1.0"/>
<line x1="254.7" y1="182.6" x2="253.0" y2="182.6" stroke="#222" stroke-width="1.0"/>
<line x1="251.2" y1="182.6" x2="253.0" y2="182.6" stroke="#222" stroke-width="1.0"/>
<line x1="278.8" y1="182.6" x2="280.7" y2="182.6" stroke="#222" stroke-width="1.0"/>
<line x1="282.3" y1="182.6" x2="280.7" y2="182.6" stroke="#222" stroke-width="1.0"/>
<line x1="261.6" y1="182.6" x2="259.9" y2="182.6" stroke="#222" stroke-width="1.0"/>
<line x1="258.1" y1="182.6" x2="259.9" y2="182.6" stroke="#222" stroke-width="1.0"/>
<line x1="265.0" y1="182.6" x2="266.9" y2="182.6" stroke="#222" stroke-width="1.0"/>
<line x1="268.5" y1="182.6" x2="266.9" y2="182.6" stroke="#222" stroke-width="1.0"/>
<line x1="275.4" y1="182.6" x2="273.8" y2="182.6" stroke="#222" stroke-width="1.0"/>
<line x1="271.9" y1="182.6" x2="273.8" y2="182.6" stroke="#222" stroke-width="1.0"/>
<line x1="271.9" y1="182.6" x2="270.3" y2="182.6" stroke="#222" stroke-width="1.0"/>
<line x1="275.4" y1="182.6" x2="277.2" y2="182.6" stroke="#222" stroke-width="1.0"/>
<line x1="268.5" y1="182.6" x2="270.3" y2="182.6" stroke="#222" stroke-width="1.0"/>
<line x1="265.0" y1="182.6" x2="263.4" y2="182.6" stroke="#222" stroke-width="1.0"/>
<line x1="258.1" y1="182.6" x2="256.5" y2="182.6" stroke="#222" stroke-width="1.0"/>
<line x1="261.6" y1="182.6" x2="263.4" y2="182.6" stroke="#222" stroke-width="1.0"/>
<line x1="289.2" y1="182.6" x2="287.6" y2="182.6" stroke="#222" stroke-width="1.0"/>
<line x1="285.7" y1="182.6" x2="287.6" y2="182.6" stroke="#222" stroke-width="1.0"/>
<line x1="299.6" y1="182.6" x2="301.4" y2="182.6" stroke="#222" stroke-width="1.0"/>
<line x1="303.0" y1="182.6" x2="301.4" y2="182.6" stroke="#222" stroke-width="1.0"/>
<line x1="296.1" y1="182.6" x2="294.5" y2="182.6" stroke="#222" stroke-width="1.0"/>
<line x1="292.7" y1="182.6" x2="294.5" y2="182.6" stroke="#222" stroke-width="1.0"/>
<line x1="292.7" y1="182.6" x2="291.0" y2="182.6" stroke="#222" stroke-width="1.0"/>
<line x1="296.1" y1="182.6" x2="297.9" y2="182.6" stroke="#222" stroke-width="1.0"/>
<line x1="309.9" y1="182.6" x2="308.3" y2="182.6" stroke="#222" stroke-width="1.0"/>
<line x1="306.5" y1="182.6" x2="308.3" y2="182.6" stroke="#222" stroke-width="1.0"/>
<line x1="351.2" y1="182.6" x2="353.0" y2="182.6" stroke="#222" stroke-width="1.0"/>
<line x1="354.6" y1="182.6" x2="353.0" y2="182.6" stroke="#222" stroke-width="1.0"/>
<line x1="351.2" y1="182.6" x2="349.6" y2="182.6" stroke="#222" stroke-width="1.0"/>
<line x1="316.8" y1="182.6" x2="315.2" y2="182.6" stroke="#222" stroke-width="1.0"/>
<line x1="313.4" y1="182.6" x2="315.2" y2="182.6" stroke="#222" stroke-width="1.0"/>
<line x1="320.1" y1="182.6" x2="321.9" y2="182.6" stroke="#222" stroke-width="1.0"/>
<line x1="323.5" y1="182.6" x2="321.9" y2="182.6" stroke="#222" stroke-width="1.0"/>
<line x1="330.5" y1="182.6" x2="328.8" y2="182.6" stroke="#222" stroke-width="1.0"/>
<line x1="327.0" y1="182.6" x2="328.8" y2="182.6" stroke="#222" stroke-width="1.0"/>
<line x1="333.9" y1="182.6" x2="335.7" y2="182.6" stroke="#222" stroke-width="1.0"/>
<line x1="337.4" y1="182.6" x2="335.7" y2="182.6" stroke="#222" stroke-width="1.0"/>
<line x1="344.3" y1="182.6" x2="342.7" y2="182.6" stroke="#222" stroke-width="1.0"/>
<line x1="340.8" y1="182.6" x2="342.7" y2="182.6" stroke="#222" stroke-width="1.0"/>
<line x1="340.8" y1="182.6" x2="339.2" y2="182.6" stroke="#222" stroke-width="1.0"/>
<line x1="344.3" y1="182.6" x2="346.1" y2="182.6" stroke="#222" stroke-width="1.0"/>
<line x1="347.7" y1="182.6" x2="346.1" y2="182.6" stroke="#222" stroke-width="1.0"/>
<line x1="337.4" y1="182.6" x2="339.2" y2="182.6" stroke="#222" stroke-width="1.0"/>
<line x1="333.9" y1="182.6" x2="332.3" y2="182.6" stroke="#222" stroke-width="1.0"/>
<line x1="327.0" y1="182.6" x2="325.4" y2="182.6" stroke="#222" stroke-width="1.0"/>
<line x1="330.5" y1="182.6" x2="332.3" y2="182.6" stroke="#222" stroke-width="1.0"/>
<line x1="323.5" y1="182.6" x2="325.4" y2="182.6" stroke="#222" stroke-width="1.0"/>
<line x1="320.1" y1="182.6" x2="318.6" y2="182.6" stroke="#222" stroke-width="1.0"/>
<line x1="313.4" y1="182.6" x2="311.8" y2="182.6" stroke="#222" stroke-width="1.0"/>
<line x1="316.8" y1="182.6" x2="318.6" y2="182.6" stroke="#222" stroke-width="1.0"/>
<line x1="237.6" y1="174.0" x2="237.6" y2="173.2" stroke="#222" stroke-width="1.0"/>
<line x1="237.6" y1="172.6" x2="237.6" y2="173.2" stroke="#222" stroke-width="1.0"/>
<line x1="236.0" y1="175.7" x2="234.1" y2="175.7" stroke="#222" stroke-width="1.0"/>
<line x1="234.1" y1="175.7" x2="234.1" y2="179.4" stroke="#222" stroke-width="1.0"/>
<line x1="236.0" y1="175.7" x2="237.6" y2="175.7" stroke="#222" stroke-width="1.0"/>
<line x1="237.6" y1="175.7" x2="237.6" y2="175.1" stroke="#222" stroke-width="1.0"/>
<line x1="237.6" y1="174.0" x2="237.6" y2="175.1" stroke="#222" stroke-width="1.0"/>
<line x1="239.3" y1="172.6" x2="240.8" y2="172.6" stroke="#222" stroke-width="1.0"/>
<line x1="347.7" y1="182.6" x2="349.6" y2="182.6" stroke="#222" stroke-width="1.0"/>
<line x1="306.5" y1="182.6" x2="304.9" y2="182.6" stroke="#222" stroke-width="1.0"/>
<line x1="309.9" y1="182.6" x2="311.8" y2="182.6" stroke="#222" stroke-width="1.0"/>
<line x1="303.0" y1="182.6" x2="304.9" y2="182.6" stroke="#222" stroke-width="1.0"/>
<line x1="299.6" y1="182.6" x2="297.9" y2="182.6" stroke="#222" stroke-width="1.0"/>
<line x1="285.7" y1="182.6" x2="284.1" y2="182.6" stroke="#222" stroke-width="1.0"/>
<line x1="289.2" y1="182.6" x2="291.0" y2="182.6" stroke="#222" stroke-width="1.0"/>
<line x1="282.3" y1="182.6" x2="284.1" y2="182.6" stroke="#222" stroke-width="1.0"/>
<line x1="278.8" y1="182.6" x2="277.2" y2="182.6" stroke="#222" stroke-width="1.0"/>
<line x1="247.7" y1="182.6" x2="249.6" y2="182.6" stroke="#222" stroke-width="1.0"/>
<line x1="247.7" y1="182.6" x2="246.1" y2="182.6" stroke="#222" stroke-width="1.0"/>
<line x1="244.3" y1="182.6" x2="242.7" y2="182.6" stroke="#222" stroke-width="1.0"/>
<line x1="240.8" y1="182.6" x2="242.7" y2="182.6" stroke="#222" stroke-width="1.0"/>
<line x1="240.8" y1="182.6" x2="239.3" y2="182.6" stroke="#222" stroke-width="1.0"/>
<line x1="244.3" y1="182.6" x2="246.1" y2="182.6" stroke="#222" stroke-width="1.0"/>
<line x1="251.2" y1="182.6" x2="249.6" y2="182.6" stroke="#222" stroke-width="1.0"/>
<line x1="254.7" y1="182.6" x2="256.5" y2="182.6" stroke="#222" stroke-width="1.0"/>
<line x1="237.6" y1="182.6" x2="239.3" y2="182.6" stroke="#222" stroke-width="1.0"/>
<line x1="234.1" y1="182.6" x2="234.1" y2="179.4" stroke="#222" stroke-width="1.0"/>
<line x1="239.3" y1="172.6" x2="237.6" y2="172.6" stroke="#222" stroke-width="1.0"/>
<line x1="240.8" y1="172.6" x2="240.8" y2="172.2" stroke="#222" stroke-width="1.0"/>
<line x1="351.2" y1="171.7" x2="351.2" y2="172.6" stroke="#222" stroke-width="1.0"/>
<line x1="356.5" y1="175.7" x2="358.1" y2="175.7" stroke="#222" stroke-width="1.0"/>
<line x1="354.6" y1="182.6" x2="356.5" y2="182.6" stroke="#222" stroke-width="1.0"/>
<line x1="358.1" y1="178.9" x2="358.1" y2="175.7" stroke="#222" stroke-width="1.0"/>
<line x1="368.4" y1="174.9" x2="368.4" y2="176.1" stroke="#222" stroke-width="1.0"/>
<line x1="368.5" y1="186.3" x2="368.5" y2="186.4" stroke="#222" stroke-width="1.0"/>
<line x1="223.5" y1="186.3" x2="223.5" y2="186.2" stroke="#222" stroke-width="1.0"/>
<line x1="224.1" y1="172.1" x2="224.1" y2="172.1" stroke="#222" stroke-width="1.0"/>
<line x1="224.1" y1="172.1" x2="224.1" y2="172.1" stroke="#222" stroke-width="1.0"/>
<line x1="224.1" y1="172.1" x2="224.1" y2="172.1" stroke="#222" stroke-width="1.0"/>
<line x1="224.1" y1="172.1" x2="224.1" y2="172.1" stroke="#222" stroke-width="1.0"/>
<line x1="224.1" y1="172.1" x2="224.1" y2="172.1" stroke="#222" stroke-width="1.0"/>
<line x1="224.1" y1="172.1" x2="224.1" y2="172.1" stroke="#222" stroke-width="1.0"/>
<line x1="224.3" y1="172.0" x2="224.2" y2="172.1" stroke="#222" stroke-width="1.0"/>
<line x1="224.1" y1="172.1" x2="224.1" y2="172.1" stroke="#222" stroke-width="1.0"/>
<line x1="224.0" y1="172.3" x2="224.0" y2="172.3" stroke="#222" stroke-width="1.0"/>
<line x1="224.0" y1="172.3" x2="224.0" y2="172.3" stroke="#222" stroke-width="1.0"/>
<line x1="223.9" y1="172.3" x2="223.9" y2="172.3" stroke="#222" stroke-width="1.0"/>
<line x1="223.9" y1="172.3" x2="223.9" y2="172.3" stroke="#222" stroke-width="1.0"/>
<line x1="223.9" y1="172.3" x2="223.9" y2="172.3" stroke="#222" stroke-width="1.0"/>
<line x1="223.9" y1="172.3" x2="223.9" y2="172.3" stroke="#222" stroke-width="1.0"/>
<line x1="223.9" y1="172.4" x2="223.9" y2="172.3" stroke="#222" stroke-width="1.0"/>
<line x1="223.8" y1="173.1" x2="223.7" y2="173.2" stroke="#222" stroke-width="1.0"/>
<line x1="225.1" y1="170.9" x2="225.1" y2="170.8" stroke="#222" stroke-width="1.0"/>
<line x1="226.7" y1="169.2" x2="226.4" y2="169.5" stroke="#222" stroke-width="1.0"/>
<line x1="225.6" y1="170.5" x2="225.6" y2="170.5" stroke="#222" stroke-width="1.0"/>
<line x1="225.6" y1="170.5" x2="225.6" y2="170.5" stroke="#222" stroke-width="1.0"/>
<line x1="225.6" y1="170.5" x2="225.6" y2="170.5" stroke="#222" stroke-width="1.0"/>
<line x1="225.6" y1="170.5" x2="225.6" y2="170.5" stroke="#222" stroke-width="1.0"/>
<line x1="225.6" y1="170.5" x2="225.6" y2="170.5" stroke="#222" stroke-width="1.0"/>
<line x1="225.6" y1="170.5" x2="225.6" y2="170.5" stroke="#222" stroke-width="1.0"/>
<line x1="225.6" y1="170.5" x2="225.6" y2="170.5" stroke="#222" stroke-width="1.0"/>
<line x1="225.6" y1="170.5" x2="225.6" y2="170.5" stroke="#222" stroke-width="1.0"/>
<line x1="232.5" y1="163.8" x2="232.4" y2="163.9" stroke="#222" stroke-width="1.0"/>
<line x1="232.4" y1="163.9" x2="232.1" y2="164.1" stroke="#222" stroke-width="1.0"/>
<line x1="232.1" y1="164.1" x2="231.7" y2="164.5" stroke="#222" stroke-width="1.0"/>
<line x1="231.5" y1="164.4" x2="231.7" y2="164.5" stroke="#222" stroke-width="1.0"/>
<line x1="241.6" y1="163.7" x2="241.1" y2="163.8" stroke="#222" stroke-width="1.0"/>
<line x1="241.1" y1="163.8" x2="239.7" y2="163.7" stroke="#222" stroke-width="1.0"/>
<line x1="237.0" y1="163.7" x2="239.7" y2="163.7" stroke="#222" stroke-width="1.0"/>
<line x1="236.2" y1="163.8" x2="237.0" y2="163.7" stroke="#222" stroke-width="1.0"/>
<line x1="235.4" y1="163.7" x2="236.2" y2="163.8" stroke="#222" stroke-width="1.0"/>
<line x1="233.7" y1="163.8" x2="235.4" y2="163.7" stroke="#222" stroke-width="1.0"/>
<line x1="233.7" y1="163.8" x2="232.5" y2="163.7" stroke="#222" stroke-width="1.0"/>
<line x1="232.5" y1="163.7" x2="232.5" y2="163.8" stroke="#222" stroke-width="1.0"/>
<line x1="232.5" y1="163.8" x2="232.5" y2="163.8" stroke="#222" stroke-width="1.0"/>
<line x1="226.7" y1="169.2" x2="226.7" y2="169.2" stroke="#222" stroke-width="1.0"/>
<line x1="231.6" y1="164.5" x2="231.5" y2="164.4" stroke="#222" stroke-width="1.0"/>
<line x1="241.6" y1="163.7" x2="242.0" y2="163.7" stroke="#222" stroke-width="1.0"/>
<line x1="244.6" y1="163.8" x2="243.2" y2="163.8" stroke="#222" stroke-width="1.0"/>
<line x1="261.7" y1="163.7" x2="261.9" y2="163.7" stroke="#222" stroke-width="1.0"/>
<line x1="262.6" y1="163.7" x2="263.0" y2="163.7" stroke="#222" stroke-width="1.0"/>
<line x1="263.0" y1="163.7" x2="263.1" y2="163.7" stroke="#222" stroke-width="1.0"/>
<line x1="262.5" y1="163.7" x2="262.6" y2="163.7" stroke="#222" stroke-width="1.0"/>
<line x1="262.3" y1="163.7" x2="262.5" y2="163.7" stroke="#222" stroke-width="1.0"/>
<line x1="262.0" y1="163.7" x2="262.3" y2="163.7" stroke="#222" stroke-width="1.0"/>
<line x1="261.9" y1="163.7" x2="262.0" y2="163.7" stroke="#222" stroke-width="1.0"/>
<line x1="367.9" y1="171.8" x2="367.8" y2="171.8" stroke="#222" stroke-width="1.0"/>
<line x1="224.3" y1="172.0" x2="224.3" y2="172.0" stroke="#222" stroke-width="1.0"/>
<line x1="224.4" y1="171.8" x2="225.0" y2="171.0" stroke="#222" stroke-width="1.0"/>
<line x1="225.1" y1="170.7" x2="225.1" y2="170.7" stroke="#222" stroke-width="1.0"/>
<line x1="225.1" y1="170.7" x2="225.1" y2="170.7" stroke="#222" stroke-width="1.0"/>
<line x1="225.1" y1="170.7" x2="225.1" y2="170.7" stroke="#222" stroke-width="1.0"/>
<line x1="225.1" y1="170.7" x2="225.1" y2="170.7" stroke="#222" stroke-width="1.0"/>
<line x1="225.1" y1="170.7" x2="225.1" y2="170.7" stroke="#222" stroke-width="1.0"/>
<line x1="225.1" y1="170.7" x2="225.1" y2="170.7" stroke="#222" stroke-width="1.0"/>
<line x1="225.1" y1="170.8" x2="225.1" y2="170.8" stroke="#222" stroke-width="1.0"/>
<line x1="225.1" y1="170.9" x2="225.1" y2="170.9" stroke="#222" stroke-width="1.0"/>
<line x1="225.6" y1="170.5" x2="225.6" y2="170.5" stroke="#222" stroke-width="1.0"/>
<line x1="263.1" y1="163.7" x2="263.3" y2="163.7" stroke="#222" stroke-width="1.0"/>
<line x1="366.9" y1="170.7" x2="366.9" y2="170.7" stroke="#222" stroke-width="1.0"/>
<line x1="366.9" y1="170.7" x2="366.9" y2="170.7" stroke="#222" stroke-width="1.0"/>
<line x1="366.9" y1="170.8" x2="366.9" y2="170.7" stroke="#222" stroke-width="1.0"/>
<line x1="366.9" y1="170.8" x2="366.9" y2="170.8" stroke="#222" stroke-width="1.0"/>
<line x1="367.3" y1="171.2" x2="367.2" y2="171.1" stroke="#222" stroke-width="1.0"/>
<line x1="366.7" y1="170.5" x2="366.6" y2="170.5" stroke="#222" stroke-width="1.0"/>
<line x1="348.4" y1="163.8" x2="348.3" y2="163.8" stroke="#222" stroke-width="1.0"/>
<line x1="349.5" y1="163.6" x2="348.4" y2="163.8" stroke="#222" stroke-width="1.0"/>
<line x1="349.5" y1="163.6" x2="349.6" y2="163.8" stroke="#222" stroke-width="1.0"/>
<line x1="349.6" y1="163.8" x2="350.0" y2="163.8" stroke="#222" stroke-width="1.0"/>
<line x1="361.4" y1="165.3" x2="360.8" y2="164.7" stroke="#222" stroke-width="1.0"/>
<line x1="350.0" y1="163.8" x2="350.1" y2="163.8" stroke="#222" stroke-width="1.0"/>
<line x1="360.7" y1="164.5" x2="360.6" y2="164.5" stroke="#222" stroke-width="1.0"/>
<line x1="360.7" y1="164.5" x2="360.0" y2="163.9" stroke="#222" stroke-width="1.0"/>
<line x1="264.6" y1="163.7" x2="264.7" y2="163.7" stroke="#222" stroke-width="1.0"/>
<line x1="267.3" y1="163.7" x2="267.4" y2="163.7" stroke="#222" stroke-width="1.0"/>
<line x1="268.3" y1="163.7" x2="268.4" y2="163.7" stroke="#222" stroke-width="1.0"/>
<line x1="269.5" y1="163.7" x2="269.6" y2="163.7" stroke="#222" stroke-width="1.0"/>
<line x1="281.1" y1="163.7" x2="282.3" y2="163.7" stroke="#222" stroke-width="1.0"/>
<line x1="278.2" y1="163.7" x2="279.1" y2="163.7" stroke="#222" stroke-width="1.0"/>
<line x1="276.1" y1="163.7" x2="276.8" y2="163.7" stroke="#222" stroke-width="1.0"/>
<line x1="273.2" y1="163.7" x2="273.6" y2="163.7" stroke="#222" stroke-width="1.0"/>
<line x1="16.0" y1="336.0" x2="576.0" y2="336.0" stroke="#0a0" stroke-width="1.2"/>
<text x="24.0" y="32.0" font-size="9" fill="#000" text-anchor="start" font-family="monospace">X=+150 nose beam / front axle (L right-to-left per sign caveat)</text>
<line x1="16.0" y1="236.0" x2="576.0" y2="236.0" stroke="#ccc" stroke-width="1.0" stroke-dasharray="2,3"/>
<line x1="16.0" y1="156.0" x2="576.0" y2="156.0" stroke="#ccc" stroke-width="1.0" stroke-dasharray="2,3"/>
</svg>
