<svg xmlns="http://www.w3.org/2000/svg" width="382" height="282" viewBox="0 0 382 282">
<rect width="100%" height="100%" fill="white"/>
<text x="8" y="12" font-size="11" font-family="monospace" fill="#000">D-25 x_n=-20 | lateral vs y_n | interior crop</text>
<line x1="274.7" y1="64.9" x2="274.7" y2="66.9" stroke="#222" stroke-width="1.0"/>
<line x1="274.5" y1="66.9" x2="274.7" y2="66.9" stroke="#222" stroke-width="1.0"/>
<line x1="262.2" y1="46.1" x2="262.4" y2="46.1" stroke="#222" stroke-width="1.0"/>
<line x1="262.4" y1="46.1" x2="262.7" y2="46.1" stroke="#222" stroke-width="1.0"/>
<line x1="262.9" y1="46.2" x2="263.2" y2="46.3" stroke="#222" stroke-width="1.0"/>
<line x1="263.2" y1="46.3" x2="263.4" y2="46.4" stroke="#222" stroke-width="1.0"/>
<line x1="263.4" y1="46.4" x2="263.6" y2="46.5" stroke="#222" stroke-width="1.0"/>
<line x1="263.8" y1="46.7" x2="264.0" y2="46.9" stroke="#222" stroke-width="1.0"/>
<line x1="264.0" y1="46.9" x2="264.1" y2="47.0" stroke="#222" stroke-width="1.0"/>
<line x1="264.1" y1="47.0" x2="264.3" y2="47.3" stroke="#222" stroke-width="1.0"/>
<line x1="264.4" y1="47.5" x2="264.5" y2="47.6" stroke="#222" stroke-width="1.0"/>
<line x1="264.5" y1="47.6" x2="264.6" y2="47.9" stroke="#222" stroke-width="1.0"/>
<line x1="108.5" y1="46.3" x2="108.8" y2="46.2" stroke="#222" stroke-width="1.0"/>
<line x1="108.8" y1="46.2" x2="109.0" y2="46.1" stroke="#222" stroke-width="1.0"/>
<line x1="109.0" y1="46.1" x2="109.3" y2="46.1" stroke="#222" stroke-width="1.0"/>
<line x1="109.3" y1="46.1" x2="109.6" y2="46.1" stroke="#222" stroke-width="1.0"/>
<line x1="188.5" y1="46.1" x2="109.6" y2="46.1" stroke="#222" stroke-width="1.0"/>
<line x1="272.9" y1="42.0" x2="271.5" y2="40.2" stroke="#222" stroke-width="1.0"/>
<line x1="271.5" y1="40.2" x2="271.1" y2="39.8" stroke="#222" stroke-width="1.0"/>
<line x1="274.3" y1="45.2" x2="274.0" y2="44.7" stroke="#222" stroke-width="1.0"/>
<line x1="274.0" y1="44.7" x2="273.2" y2="42.5" stroke="#222" stroke-width="1.0"/>
<line x1="274.4" y1="45.7" x2="274.3" y2="45.2" stroke="#222" stroke-width="1.0"/>
<line x1="274.7" y1="48.6" x2="274.7" y2="48.0" stroke="#222" stroke-width="1.0"/>
<line x1="108.1" y1="46.5" x2="108.3" y2="46.4" stroke="#222" stroke-width="1.0"/>
<line x1="107.9" y1="46.7" x2="108.1" y2="46.5" stroke="#222" stroke-width="1.0"/>
<line x1="265.3" y1="36.5" x2="263.2" y2="36.2" stroke="#222" stroke-width="1.0"/>
<line x1="263.2" y1="36.2" x2="262.2" y2="36.1" stroke="#222" stroke-width="1.0"/>
<line x1="107.4" y1="47.3" x2="107.6" y2="47.0" stroke="#222" stroke-width="1.0"/>
<line x1="107.6" y1="47.0" x2="107.7" y2="46.9" stroke="#222" stroke-width="1.0"/>
<line x1="106.5" y1="36.4" x2="108.0" y2="36.2" stroke="#222" stroke-width="1.0"/>
<line x1="108.0" y1="36.2" x2="109.5" y2="36.1" stroke="#222" stroke-width="1.0"/>
<line x1="178.8" y1="36.1" x2="109.5" y2="36.1" stroke="#222" stroke-width="1.0"/>
<line x1="97.8" y1="44.3" x2="97.5" y2="45.1" stroke="#222" stroke-width="1.0"/>
<line x1="97.5" y1="45.1" x2="97.3" y2="45.9" stroke="#222" stroke-width="1.0"/>
<line x1="97.0" y1="47.7" x2="97.3" y2="45.9" stroke="#222" stroke-width="1.0"/>
<line x1="97.0" y1="47.7" x2="97.0" y2="48.6" stroke="#222" stroke-width="1.0"/>
<line x1="107.2" y1="47.6" x2="107.3" y2="47.5" stroke="#222" stroke-width="1.0"/>
<line x1="107.2" y1="47.9" x2="107.2" y2="47.6" stroke="#222" stroke-width="1.0"/>
<line x1="107.2" y1="47.9" x2="107.1" y2="48.1" stroke="#222" stroke-width="1.0"/>
<line x1="107.1" y1="48.1" x2="107.1" y2="48.3" stroke="#222" stroke-width="1.0"/>
<line x1="97.2" y1="66.9" x2="97.0" y2="66.9" stroke="#222" stroke-width="1.0"/>
<line x1="97.0" y1="66.9" x2="97.0" y2="65.0" stroke="#222" stroke-width="1.0"/>
<line x1="97.2" y1="66.9" x2="107.0" y2="66.9" stroke="#222" stroke-width="1.0"/>
<line x1="107.0" y1="65.3" x2="107.0" y2="66.9" stroke="#222" stroke-width="1.0"/>
<line x1="107.0" y1="65.3" x2="107.0" y2="48.6" stroke="#222" stroke-width="1.0"/>
<line x1="107.1" y1="48.3" x2="107.0" y2="48.6" stroke="#222" stroke-width="1.0"/>
<line x1="97.0" y1="65.0" x2="97.0" y2="48.6" stroke="#222" stroke-width="1.0"/>
<line x1="98.5" y1="42.6" x2="97.8" y2="44.3" stroke="#222" stroke-width="1.0"/>
<line x1="99.0" y1="41.8" x2="98.5" y2="42.6" stroke="#222" stroke-width="1.0"/>
<line x1="100.7" y1="39.7" x2="100.0" y2="40.4" stroke="#222" stroke-width="1.0"/>
<line x1="101.3" y1="39.2" x2="100.7" y2="39.7" stroke="#222" stroke-width="1.0"/>
<line x1="103.4" y1="37.7" x2="102.6" y2="38.2" stroke="#222" stroke-width="1.0"/>
<line x1="103.4" y1="37.7" x2="104.2" y2="37.3" stroke="#222" stroke-width="1.0"/>
<line x1="104.2" y1="37.3" x2="105.7" y2="36.7" stroke="#222" stroke-width="1.0"/>
<line x1="101.3" y1="39.2" x2="102.6" y2="38.2" stroke="#222" stroke-width="1.0"/>
<line x1="100.0" y1="40.4" x2="99.0" y2="41.8" stroke="#222" stroke-width="1.0"/>
<line x1="105.7" y1="36.7" x2="106.5" y2="36.4" stroke="#222" stroke-width="1.0"/>
<line x1="107.3" y1="47.5" x2="107.4" y2="47.3" stroke="#222" stroke-width="1.0"/>
<line x1="268.9" y1="38.1" x2="268.4" y2="37.7" stroke="#222" stroke-width="1.0"/>
<line x1="268.4" y1="37.7" x2="267.9" y2="37.5" stroke="#222" stroke-width="1.0"/>
<line x1="267.9" y1="37.5" x2="265.8" y2="36.7" stroke="#222" stroke-width="1.0"/>
<line x1="268.9" y1="38.1" x2="270.7" y2="39.4" stroke="#222" stroke-width="1.0"/>
<line x1="178.8" y1="36.1" x2="262.2" y2="36.1" stroke="#222" stroke-width="1.0"/>
<line x1="265.8" y1="36.7" x2="265.3" y2="36.5" stroke="#222" stroke-width="1.0"/>
<line x1="107.7" y1="46.9" x2="107.9" y2="46.7" stroke="#222" stroke-width="1.0"/>
<line x1="264.7" y1="65.3" x2="264.7" y2="48.6" stroke="#222" stroke-width="1.0"/>
<line x1="264.6" y1="48.3" x2="264.7" y2="48.6" stroke="#222" stroke-width="1.0"/>
<line x1="264.6" y1="48.1" x2="264.6" y2="48.3" stroke="#222" stroke-width="1.0"/>
<line x1="264.7" y1="66.9" x2="264.7" y2="65.3" stroke="#222" stroke-width="1.0"/>
<line x1="274.4" y1="45.7" x2="274.7" y2="48.0" stroke="#222" stroke-width="1.0"/>
<line x1="271.1" y1="39.8" x2="270.7" y2="39.4" stroke="#222" stroke-width="1.0"/>
<line x1="273.2" y1="42.5" x2="272.9" y2="42.0" stroke="#222" stroke-width="1.0"/>
<line x1="108.3" y1="46.4" x2="108.5" y2="46.3" stroke="#222" stroke-width="1.0"/>
<line x1="264.6" y1="48.1" x2="264.6" y2="47.9" stroke="#222" stroke-width="1.0"/>
<line x1="264.3" y1="47.3" x2="264.4" y2="47.5" stroke="#222" stroke-width="1.0"/>
<line x1="263.6" y1="46.5" x2="263.8" y2="46.7" stroke="#222" stroke-width="1.0"/>
<line x1="188.5" y1="46.1" x2="262.2" y2="46.1" stroke="#222" stroke-width="1.0"/>
<line x1="262.7" y1="46.1" x2="262.9" y2="46.2" stroke="#222" stroke-width="1.0"/>
<line x1="264.7" y1="66.9" x2="274.5" y2="66.9" stroke="#222" stroke-width="1.0"/>
<line x1="274.7" y1="64.9" x2="274.7" y2="48.6" stroke="#222" stroke-width="1.0"/>
<line x1="16.0" y1="206.0" x2="366.0" y2="206.0" stroke="#0a0" stroke-width="1.2"/>
<line x1="103.5" y1="246.0" x2="103.5" y2="206.0" stroke="#c60" stroke-width="1.0"/>
<line x1="268.5" y1="246.0" x2="268.5" y2="206.0" stroke="#c60" stroke-width="1.0"/>
<text x="26.0" y="31.0" font-size="9" fill="#000" text-anchor="start" font-family="monospace">x_n=-20; green DAT-F; orange beam</text>
</svg>
