<svg xmlns="http://www.w3.org/2000/svg" width="382" height="282" viewBox="0 0 382 282">
<rect width="100%" height="100%" fill="white"/>
<text x="8" y="12" font-size="11" font-family="monospace" fill="#000">D-25 x_n=+12 | lateral vs y_n | interior crop</text>
<line x1="296.9" y1="110.3" x2="296.9" y2="108.1" stroke="#222" stroke-width="1.0"/>
<line x1="296.9" y1="92.1" x2="296.9" y2="108.1" stroke="#222" stroke-width="1.0"/>
<line x1="296.9" y1="215.9" x2="296.9" y2="213.2" stroke="#222" stroke-width="1.0"/>
<line x1="296.9" y1="213.2" x2="296.9" y2="147.4" stroke="#222" stroke-width="1.0"/>
<line x1="296.9" y1="113.6" x2="296.9" y2="147.4" stroke="#222" stroke-width="1.0"/>
<line x1="296.9" y1="113.6" x2="296.9" y2="110.5" stroke="#222" stroke-width="1.0"/>
<line x1="296.9" y1="215.9" x2="296.9" y2="246.0" stroke="#222" stroke-width="1.0"/>
<line x1="296.3" y1="246.0" x2="296.9" y2="246.0" stroke="#222" stroke-width="1.0"/>
<line x1="287.6" y1="246.0" x2="287.5" y2="246.0" stroke="#222" stroke-width="1.0"/>
<line x1="287.5" y1="246.0" x2="284.7" y2="246.0" stroke="#222" stroke-width="1.0"/>
<line x1="296.3" y1="44.8" x2="296.6" y2="45.7" stroke="#222" stroke-width="1.0"/>
<line x1="296.7" y1="46.9" x2="296.6" y2="45.7" stroke="#222" stroke-width="1.0"/>
<line x1="296.9" y1="49.1" x2="296.9" y2="67.1" stroke="#222" stroke-width="1.0"/>
<line x1="296.9" y1="48.5" x2="296.9" y2="49.1" stroke="#222" stroke-width="1.0"/>
<line x1="108.9" y1="46.0" x2="103.7" y2="46.0" stroke="#222" stroke-width="1.0"/>
<line x1="103.7" y1="46.0" x2="103.2" y2="46.0" stroke="#222" stroke-width="1.0"/>
<line x1="87.5" y1="46.0" x2="103.2" y2="46.0" stroke="#222" stroke-width="1.0"/>
<line x1="285.1" y1="36.1" x2="286.2" y2="36.2" stroke="#222" stroke-width="1.0"/>
<line x1="286.2" y1="36.2" x2="287.1" y2="36.4" stroke="#222" stroke-width="1.0"/>
<line x1="287.1" y1="36.4" x2="288.1" y2="36.6" stroke="#222" stroke-width="1.0"/>
<line x1="288.1" y1="36.6" x2="289.0" y2="36.9" stroke="#222" stroke-width="1.0"/>
<line x1="289.0" y1="36.9" x2="290.0" y2="37.3" stroke="#222" stroke-width="1.0"/>
<line x1="290.0" y1="37.3" x2="290.7" y2="37.8" stroke="#222" stroke-width="1.0"/>
<line x1="291.7" y1="38.4" x2="290.7" y2="37.8" stroke="#222" stroke-width="1.0"/>
<line x1="292.3" y1="38.9" x2="291.7" y2="38.4" stroke="#222" stroke-width="1.0"/>
<line x1="292.3" y1="38.9" x2="293.2" y2="39.7" stroke="#222" stroke-width="1.0"/>
<line x1="293.2" y1="39.7" x2="293.7" y2="40.2" stroke="#222" stroke-width="1.0"/>
<line x1="294.4" y1="41.0" x2="294.8" y2="41.6" stroke="#222" stroke-width="1.0"/>
<line x1="294.8" y1="41.6" x2="295.3" y2="42.5" stroke="#222" stroke-width="1.0"/>
<line x1="295.3" y1="42.5" x2="295.7" y2="43.2" stroke="#222" stroke-width="1.0"/>
<line x1="87.4" y1="46.0" x2="87.5" y2="46.0" stroke="#222" stroke-width="1.0"/>
<line x1="87.5" y1="46.0" x2="87.5" y2="46.0" stroke="#222" stroke-width="1.0"/>
<line x1="87.3" y1="46.0" x2="87.4" y2="46.0" stroke="#222" stroke-width="1.0"/>
<line x1="87.3" y1="46.0" x2="87.4" y2="89.8" stroke="#222" stroke-width="1.0"/>
<line x1="87.4" y1="89.8" x2="87.4" y2="146.0" stroke="#222" stroke-width="1.0"/>
<line x1="87.4" y1="146.0" x2="87.4" y2="235.6" stroke="#222" stroke-width="1.0"/>
<line x1="87.4" y1="235.6" x2="87.4" y2="246.0" stroke="#222" stroke-width="1.0"/>
<line x1="87.1" y1="246.0" x2="87.4" y2="246.0" stroke="#222" stroke-width="1.0"/>
<line x1="84.2" y1="246.0" x2="84.3" y2="246.0" stroke="#222" stroke-width="1.0"/>
<line x1="84.3" y1="246.0" x2="87.0" y2="246.0" stroke="#222" stroke-width="1.0"/>
<line x1="82.3" y1="246.0" x2="84.2" y2="246.0" stroke="#222" stroke-width="1.0"/>
<line x1="81.8" y1="246.0" x2="74.9" y2="246.0" stroke="#222" stroke-width="1.0"/>
<line x1="74.9" y1="153.8" x2="74.9" y2="246.0" stroke="#222" stroke-width="1.0"/>
<line x1="74.9" y1="69.3" x2="74.9" y2="148.2" stroke="#222" stroke-width="1.0"/>
<line x1="74.9" y1="151.0" x2="74.9" y2="148.2" stroke="#222" stroke-width="1.0"/>
<line x1="81.4" y1="37.6" x2="81.8" y2="37.3" stroke="#222" stroke-width="1.0"/>
<line x1="81.8" y1="37.3" x2="83.2" y2="36.8" stroke="#222" stroke-width="1.0"/>
<line x1="83.2" y1="36.8" x2="83.6" y2="36.6" stroke="#222" stroke-width="1.0"/>
<line x1="83.6" y1="36.6" x2="85.1" y2="36.3" stroke="#222" stroke-width="1.0"/>
<line x1="85.1" y1="36.3" x2="85.5" y2="36.2" stroke="#222" stroke-width="1.0"/>
<line x1="260.9" y1="36.0" x2="262.1" y2="36.0" stroke="#222" stroke-width="1.0"/>
<line x1="262.1" y1="36.0" x2="263.4" y2="36.0" stroke="#222" stroke-width="1.0"/>
<line x1="264.7" y1="36.0" x2="284.3" y2="36.0" stroke="#222" stroke-width="1.0"/>
<line x1="263.4" y1="36.0" x2="264.7" y2="36.0" stroke="#222" stroke-width="1.0"/>
<line x1="250.5" y1="36.0" x2="260.9" y2="36.0" stroke="#222" stroke-width="1.0"/>
<line x1="78.2" y1="40.0" x2="77.4" y2="41.0" stroke="#222" stroke-width="1.0"/>
<line x1="77.4" y1="41.0" x2="77.1" y2="41.4" stroke="#222" stroke-width="1.0"/>
<line x1="76.2" y1="42.9" x2="76.4" y2="42.5" stroke="#222" stroke-width="1.0"/>
<line x1="75.5" y1="44.5" x2="75.7" y2="44.1" stroke="#222" stroke-width="1.0"/>
<line x1="75.0" y1="46.9" x2="75.1" y2="45.7" stroke="#222" stroke-width="1.0"/>
<line x1="74.9" y1="56.0" x2="74.9" y2="53.0" stroke="#222" stroke-width="1.0"/>
<line x1="74.9" y1="53.0" x2="74.8" y2="48.5" stroke="#222" stroke-width="1.0"/>
<line x1="78.2" y1="40.0" x2="78.5" y2="39.7" stroke="#222" stroke-width="1.0"/>
<line x1="78.5" y1="39.7" x2="79.7" y2="38.7" stroke="#222" stroke-width="1.0"/>
<line x1="121.2" y1="36.0" x2="168.4" y2="36.0" stroke="#222" stroke-width="1.0"/>
<line x1="110.9" y1="36.0" x2="121.2" y2="36.0" stroke="#222" stroke-width="1.0"/>
<line x1="109.7" y1="36.0" x2="110.9" y2="36.0" stroke="#222" stroke-width="1.0"/>
<line x1="107.0" y1="36.0" x2="108.3" y2="36.0" stroke="#222" stroke-width="1.0"/>
<line x1="87.5" y1="36.0" x2="107.0" y2="36.0" stroke="#222" stroke-width="1.0"/>
<line x1="86.4" y1="36.1" x2="87.5" y2="36.0" stroke="#222" stroke-width="1.0"/>
<line x1="108.3" y1="36.0" x2="109.7" y2="36.0" stroke="#222" stroke-width="1.0"/>
<line x1="76.4" y1="42.5" x2="77.1" y2="41.4" stroke="#222" stroke-width="1.0"/>
<line x1="75.7" y1="44.1" x2="76.2" y2="42.9" stroke="#222" stroke-width="1.0"/>
<line x1="75.1" y1="45.7" x2="75.5" y2="44.5" stroke="#222" stroke-width="1.0"/>
<line x1="74.8" y1="48.5" x2="75.0" y2="46.9" stroke="#222" stroke-width="1.0"/>
<line x1="168.4" y1="36.0" x2="250.5" y2="36.0" stroke="#222" stroke-width="1.0"/>
<line x1="85.5" y1="36.2" x2="86.4" y2="36.1" stroke="#222" stroke-width="1.0"/>
<line x1="80.1" y1="38.4" x2="81.4" y2="37.6" stroke="#222" stroke-width="1.0"/>
<line x1="79.7" y1="38.7" x2="80.1" y2="38.4" stroke="#222" stroke-width="1.0"/>
<line x1="74.9" y1="56.0" x2="74.9" y2="69.3" stroke="#222" stroke-width="1.0"/>
<line x1="74.9" y1="153.8" x2="74.9" y2="151.0" stroke="#222" stroke-width="1.0"/>
<line x1="82.2" y1="246.0" x2="81.8" y2="246.0" stroke="#222" stroke-width="1.0"/>
<line x1="82.3" y1="246.0" x2="82.2" y2="246.0" stroke="#222" stroke-width="1.0"/>
<line x1="87.0" y1="246.0" x2="87.1" y2="246.0" stroke="#222" stroke-width="1.0"/>
<line x1="284.3" y1="36.0" x2="285.1" y2="36.1" stroke="#222" stroke-width="1.0"/>
<line x1="87.5" y1="46.0" x2="87.5" y2="46.0" stroke="#222" stroke-width="1.0"/>
<line x1="268.0" y1="46.0" x2="108.9" y2="46.0" stroke="#222" stroke-width="1.0"/>
<line x1="268.0" y1="46.0" x2="268.5" y2="46.0" stroke="#222" stroke-width="1.0"/>
<line x1="284.2" y1="46.0" x2="268.5" y2="46.0" stroke="#222" stroke-width="1.0"/>
<line x1="284.4" y1="46.0" x2="284.2" y2="46.0" stroke="#222" stroke-width="1.0"/>
<line x1="284.4" y1="133.3" x2="284.4" y2="146.0" stroke="#222" stroke-width="1.0"/>
<line x1="284.4" y1="156.4" x2="284.4" y2="146.0" stroke="#222" stroke-width="1.0"/>
<line x1="296.7" y1="46.9" x2="296.9" y2="48.5" stroke="#222" stroke-width="1.0"/>
<line x1="296.1" y1="44.1" x2="296.3" y2="44.8" stroke="#222" stroke-width="1.0"/>
<line x1="295.7" y1="43.2" x2="296.1" y2="44.1" stroke="#222" stroke-width="1.0"/>
<line x1="293.7" y1="40.2" x2="294.4" y2="41.0" stroke="#222" stroke-width="1.0"/>
<line x1="284.4" y1="46.0" x2="284.4" y2="133.3" stroke="#222" stroke-width="1.0"/>
<line x1="284.4" y1="246.0" x2="284.4" y2="156.4" stroke="#222" stroke-width="1.0"/>
<line x1="284.7" y1="246.0" x2="284.4" y2="246.0" stroke="#222" stroke-width="1.0"/>
<line x1="284.7" y1="246.0" x2="284.7" y2="246.0" stroke="#222" stroke-width="1.0"/>
<line x1="289.5" y1="246.0" x2="287.6" y2="246.0" stroke="#222" stroke-width="1.0"/>
<line x1="296.3" y1="246.0" x2="289.5" y2="246.0" stroke="#222" stroke-width="1.0"/>
<line x1="296.9" y1="67.1" x2="296.9" y2="92.1" stroke="#222" stroke-width="1.0"/>
<line x1="296.9" y1="110.5" x2="296.9" y2="110.3" stroke="#222" stroke-width="1.0"/>
<line x1="16.0" y1="206.0" x2="366.0" y2="206.0" stroke="#0a0" stroke-width="1.2"/>
<line x1="103.5" y1="246.0" x2="103.5" y2="206.0" stroke="#c60" stroke-width="1.0"/>
<line x1="268.5" y1="246.0" x2="268.5" y2="206.0" stroke="#c60" stroke-width="1.0"/>
<text x="26.0" y="31.0" font-size="9" fill="#000" text-anchor="start" font-family="monospace">x_n=+12; green DAT-F; orange beam</text>
</svg>
