<svg xmlns="http://www.w3.org/2000/svg" width="382" height="282" viewBox="0 0 382 282">
<rect width="100%" height="100%" fill="white"/>
<text x="8" y="12" font-size="11" font-family="monospace" fill="#000">D-25 x_n=-52 | lateral vs y_n | interior crop</text>
<line x1="259.9" y1="91.4" x2="259.9" y2="96.1" stroke="#222" stroke-width="1.0"/>
<line x1="259.9" y1="91.4" x2="259.8" y2="77.4" stroke="#222" stroke-width="1.0"/>
<line x1="249.8" y1="96.1" x2="258.4" y2="96.1" stroke="#222" stroke-width="1.0"/>
<line x1="249.8" y1="96.1" x2="249.8" y2="92.2" stroke="#222" stroke-width="1.0"/>
<line x1="249.8" y1="92.2" x2="249.8" y2="83.1" stroke="#222" stroke-width="1.0"/>
<line x1="247.6" y1="75.0" x2="248.0" y2="75.1" stroke="#222" stroke-width="1.0"/>
<line x1="248.0" y1="75.1" x2="248.3" y2="75.2" stroke="#222" stroke-width="1.0"/>
<line x1="248.4" y1="75.3" x2="248.3" y2="75.2" stroke="#222" stroke-width="1.0"/>
<line x1="247.4" y1="75.0" x2="247.5" y2="75.0" stroke="#222" stroke-width="1.0"/>
<line x1="137.0" y1="75.0" x2="247.4" y2="75.0" stroke="#222" stroke-width="1.0"/>
<line x1="113.0" y1="96.1" x2="111.6" y2="96.1" stroke="#222" stroke-width="1.0"/>
<line x1="111.6" y1="96.1" x2="111.6" y2="91.4" stroke="#222" stroke-width="1.0"/>
<line x1="111.6" y1="91.4" x2="111.6" y2="77.4" stroke="#222" stroke-width="1.0"/>
<line x1="111.6" y1="77.4" x2="111.6" y2="76.9" stroke="#222" stroke-width="1.0"/>
<line x1="111.6" y1="76.9" x2="111.7" y2="75.4" stroke="#222" stroke-width="1.0"/>
<line x1="111.7" y1="75.4" x2="112.0" y2="74.4" stroke="#222" stroke-width="1.0"/>
<line x1="112.0" y1="74.4" x2="112.2" y2="73.5" stroke="#222" stroke-width="1.0"/>
<line x1="255.8" y1="67.9" x2="256.3" y2="68.4" stroke="#222" stroke-width="1.0"/>
<line x1="256.3" y1="68.4" x2="257.1" y2="69.4" stroke="#222" stroke-width="1.0"/>
<line x1="257.1" y1="69.4" x2="257.5" y2="69.9" stroke="#222" stroke-width="1.0"/>
<line x1="258.2" y1="71.0" x2="257.5" y2="69.9" stroke="#222" stroke-width="1.0"/>
<line x1="258.2" y1="71.0" x2="258.5" y2="71.6" stroke="#222" stroke-width="1.0"/>
<line x1="259.0" y1="72.9" x2="258.5" y2="71.6" stroke="#222" stroke-width="1.0"/>
<line x1="259.0" y1="72.9" x2="259.3" y2="73.5" stroke="#222" stroke-width="1.0"/>
<line x1="259.6" y1="74.8" x2="259.7" y2="75.4" stroke="#222" stroke-width="1.0"/>
<line x1="259.8" y1="77.0" x2="259.7" y2="75.4" stroke="#222" stroke-width="1.0"/>
<line x1="259.6" y1="74.8" x2="259.3" y2="73.5" stroke="#222" stroke-width="1.0"/>
<line x1="249.8" y1="77.1" x2="249.8" y2="77.0" stroke="#222" stroke-width="1.0"/>
<line x1="249.7" y1="76.9" x2="249.8" y2="77.0" stroke="#222" stroke-width="1.0"/>
<line x1="249.6" y1="76.5" x2="249.6" y2="76.6" stroke="#222" stroke-width="1.0"/>
<line x1="249.6" y1="76.5" x2="249.5" y2="76.3" stroke="#222" stroke-width="1.0"/>
<line x1="249.4" y1="76.1" x2="249.5" y2="76.3" stroke="#222" stroke-width="1.0"/>
<line x1="249.1" y1="75.8" x2="249.2" y2="75.9" stroke="#222" stroke-width="1.0"/>
<line x1="249.1" y1="75.8" x2="248.8" y2="75.5" stroke="#222" stroke-width="1.0"/>
<line x1="248.7" y1="75.4" x2="248.8" y2="75.5" stroke="#222" stroke-width="1.0"/>
<line x1="113.4" y1="70.8" x2="112.9" y2="71.6" stroke="#222" stroke-width="1.0"/>
<line x1="112.5" y1="72.5" x2="112.9" y2="71.6" stroke="#222" stroke-width="1.0"/>
<line x1="113.4" y1="70.8" x2="113.9" y2="69.9" stroke="#222" stroke-width="1.0"/>
<line x1="252.9" y1="65.9" x2="253.5" y2="66.2" stroke="#222" stroke-width="1.0"/>
<line x1="254.4" y1="66.8" x2="253.5" y2="66.2" stroke="#222" stroke-width="1.0"/>
<line x1="250.3" y1="65.0" x2="251.3" y2="65.3" stroke="#222" stroke-width="1.0"/>
<line x1="248.3" y1="64.7" x2="250.3" y2="65.0" stroke="#222" stroke-width="1.0"/>
<line x1="115.8" y1="67.8" x2="115.2" y2="68.4" stroke="#222" stroke-width="1.0"/>
<line x1="114.5" y1="69.2" x2="115.2" y2="68.4" stroke="#222" stroke-width="1.0"/>
<line x1="115.8" y1="67.8" x2="116.5" y2="67.2" stroke="#222" stroke-width="1.0"/>
<line x1="120.2" y1="65.2" x2="121.1" y2="64.9" stroke="#222" stroke-width="1.0"/>
<line x1="122.9" y1="64.7" x2="121.1" y2="64.9" stroke="#222" stroke-width="1.0"/>
<line x1="118.6" y1="65.9" x2="117.9" y2="66.2" stroke="#222" stroke-width="1.0"/>
<line x1="117.1" y1="66.7" x2="117.9" y2="66.2" stroke="#222" stroke-width="1.0"/>
<line x1="118.6" y1="65.9" x2="119.5" y2="65.5" stroke="#222" stroke-width="1.0"/>
<line x1="122.9" y1="64.7" x2="123.9" y2="64.6" stroke="#222" stroke-width="1.0"/>
<line x1="120.2" y1="65.2" x2="119.5" y2="65.5" stroke="#222" stroke-width="1.0"/>
<line x1="116.5" y1="67.2" x2="117.1" y2="66.7" stroke="#222" stroke-width="1.0"/>
<line x1="154.7" y1="64.6" x2="247.6" y2="64.6" stroke="#222" stroke-width="1.0"/>
<line x1="254.4" y1="66.8" x2="255.0" y2="67.2" stroke="#222" stroke-width="1.0"/>
<line x1="252.9" y1="65.9" x2="252.0" y2="65.5" stroke="#222" stroke-width="1.0"/>
<line x1="251.3" y1="65.3" x2="252.0" y2="65.5" stroke="#222" stroke-width="1.0"/>
<line x1="247.6" y1="64.6" x2="248.3" y2="64.7" stroke="#222" stroke-width="1.0"/>
<line x1="123.9" y1="64.6" x2="154.7" y2="64.6" stroke="#222" stroke-width="1.0"/>
<line x1="114.5" y1="69.2" x2="113.9" y2="69.9" stroke="#222" stroke-width="1.0"/>
<line x1="121.6" y1="83.1" x2="121.6" y2="77.6" stroke="#222" stroke-width="1.0"/>
<line x1="121.6" y1="77.5" x2="121.6" y2="77.6" stroke="#222" stroke-width="1.0"/>
<line x1="123.0" y1="75.3" x2="122.7" y2="75.5" stroke="#222" stroke-width="1.0"/>
<line x1="122.7" y1="75.5" x2="122.6" y2="75.5" stroke="#222" stroke-width="1.0"/>
<line x1="121.6" y1="92.2" x2="121.6" y2="96.1" stroke="#222" stroke-width="1.0"/>
<line x1="121.8" y1="76.5" x2="121.8" y2="76.6" stroke="#222" stroke-width="1.0"/>
<line x1="121.7" y1="77.0" x2="121.8" y2="76.6" stroke="#222" stroke-width="1.0"/>
<line x1="121.7" y1="77.0" x2="121.7" y2="77.0" stroke="#222" stroke-width="1.0"/>
<line x1="121.7" y1="77.0" x2="121.7" y2="77.2" stroke="#222" stroke-width="1.0"/>
<line x1="121.7" y1="77.2" x2="121.6" y2="77.4" stroke="#222" stroke-width="1.0"/>
<line x1="122.2" y1="75.9" x2="122.0" y2="76.2" stroke="#222" stroke-width="1.0"/>
<line x1="122.0" y1="76.2" x2="122.0" y2="76.3" stroke="#222" stroke-width="1.0"/>
<line x1="122.3" y1="75.8" x2="122.2" y2="75.9" stroke="#222" stroke-width="1.0"/>
<line x1="122.0" y1="76.3" x2="121.8" y2="76.5" stroke="#222" stroke-width="1.0"/>
<line x1="123.7" y1="75.0" x2="123.5" y2="75.1" stroke="#222" stroke-width="1.0"/>
<line x1="123.5" y1="75.1" x2="123.1" y2="75.2" stroke="#222" stroke-width="1.0"/>
<line x1="123.9" y1="75.0" x2="124.1" y2="75.0" stroke="#222" stroke-width="1.0"/>
<line x1="123.9" y1="75.0" x2="123.7" y2="75.0" stroke="#222" stroke-width="1.0"/>
<line x1="122.6" y1="75.5" x2="122.3" y2="75.8" stroke="#222" stroke-width="1.0"/>
<line x1="123.1" y1="75.2" x2="123.0" y2="75.3" stroke="#222" stroke-width="1.0"/>
<line x1="121.6" y1="77.5" x2="121.6" y2="77.4" stroke="#222" stroke-width="1.0"/>
<line x1="121.6" y1="92.2" x2="121.6" y2="83.1" stroke="#222" stroke-width="1.0"/>
<line x1="249.4" y1="76.1" x2="249.2" y2="75.9" stroke="#222" stroke-width="1.0"/>
<line x1="249.7" y1="76.9" x2="249.6" y2="76.6" stroke="#222" stroke-width="1.0"/>
<line x1="249.8" y1="77.1" x2="249.8" y2="77.6" stroke="#222" stroke-width="1.0"/>
<line x1="255.8" y1="67.9" x2="255.0" y2="67.2" stroke="#222" stroke-width="1.0"/>
<line x1="112.5" y1="72.5" x2="112.2" y2="73.5" stroke="#222" stroke-width="1.0"/>
<line x1="113.0" y1="96.1" x2="121.6" y2="96.1" stroke="#222" stroke-width="1.0"/>
<line x1="124.1" y1="75.0" x2="137.0" y2="75.0" stroke="#222" stroke-width="1.0"/>
<line x1="248.7" y1="75.4" x2="248.4" y2="75.3" stroke="#222" stroke-width="1.0"/>
<line x1="247.5" y1="75.0" x2="247.6" y2="75.0" stroke="#222" stroke-width="1.0"/>
<line x1="249.8" y1="83.1" x2="249.8" y2="77.6" stroke="#222" stroke-width="1.0"/>
<line x1="259.8" y1="77.0" x2="259.8" y2="77.4" stroke="#222" stroke-width="1.0"/>
<line x1="258.4" y1="96.1" x2="259.9" y2="96.1" stroke="#222" stroke-width="1.0"/>
<line x1="16.0" y1="206.0" x2="366.0" y2="206.0" stroke="#0a0" stroke-width="1.2"/>
<line x1="103.5" y1="246.0" x2="103.5" y2="206.0" stroke="#c60" stroke-width="1.0"/>
<line x1="268.5" y1="246.0" x2="268.5" y2="206.0" stroke="#c60" stroke-width="1.0"/>
<text x="26.0" y="31.0" font-size="9" fill="#000" text-anchor="start" font-family="monospace">x_n=-52; green DAT-F; orange beam</text>
</svg>
