<svg xmlns="http://www.w3.org/2000/svg" width="382" height="282" viewBox="0 0 382 282">
<rect width="100%" height="100%" fill="white"/>
<text x="8" y="12" font-size="11" font-family="monospace" fill="#000">D-25 x_n=+20 | lateral vs y_n | interior crop</text>
<line x1="334.7" y1="69.9" x2="334.7" y2="69.9" stroke="#222" stroke-width="1.0"/>
<line x1="334.7" y1="69.9" x2="334.1" y2="70.0" stroke="#222" stroke-width="1.0"/>
<line x1="303.2" y1="47.1" x2="303.3" y2="48.5" stroke="#222" stroke-width="1.0"/>
<line x1="303.3" y1="48.5" x2="303.3" y2="52.5" stroke="#222" stroke-width="1.0"/>
<line x1="303.3" y1="52.5" x2="303.3" y2="56.0" stroke="#222" stroke-width="1.0"/>
<line x1="303.4" y1="56.0" x2="303.3" y2="56.0" stroke="#222" stroke-width="1.0"/>
<line x1="294.5" y1="246.0" x2="303.3" y2="246.0" stroke="#222" stroke-width="1.0"/>
<line x1="303.3" y1="163.8" x2="303.3" y2="246.0" stroke="#222" stroke-width="1.0"/>
<line x1="294.5" y1="246.0" x2="289.5" y2="246.0" stroke="#222" stroke-width="1.0"/>
<line x1="289.5" y1="246.0" x2="289.5" y2="183.2" stroke="#222" stroke-width="1.0"/>
<line x1="289.5" y1="146.0" x2="289.5" y2="62.3" stroke="#222" stroke-width="1.0"/>
<line x1="288.7" y1="46.0" x2="275.9" y2="46.0" stroke="#222" stroke-width="1.0"/>
<line x1="265.3" y1="56.5" x2="275.9" y2="46.0" stroke="#222" stroke-width="1.0"/>
<line x1="263.3" y1="58.5" x2="265.3" y2="56.5" stroke="#222" stroke-width="1.0"/>
<line x1="263.3" y1="58.7" x2="263.3" y2="58.5" stroke="#222" stroke-width="1.0"/>
<line x1="252.0" y1="61.0" x2="263.3" y2="61.0" stroke="#222" stroke-width="1.0"/>
<line x1="252.0" y1="61.0" x2="108.5" y2="61.0" stroke="#222" stroke-width="1.0"/>
<line x1="108.5" y1="60.8" x2="108.5" y2="58.5" stroke="#222" stroke-width="1.0"/>
<line x1="106.4" y1="56.5" x2="108.5" y2="58.5" stroke="#222" stroke-width="1.0"/>
<line x1="106.4" y1="56.5" x2="95.8" y2="46.0" stroke="#222" stroke-width="1.0"/>
<line x1="298.9" y1="39.0" x2="299.6" y2="39.7" stroke="#222" stroke-width="1.0"/>
<line x1="299.6" y1="39.7" x2="300.2" y2="40.3" stroke="#222" stroke-width="1.0"/>
<line x1="300.2" y1="40.3" x2="300.8" y2="41.0" stroke="#222" stroke-width="1.0"/>
<line x1="301.3" y1="41.7" x2="301.8" y2="42.5" stroke="#222" stroke-width="1.0"/>
<line x1="301.8" y1="42.5" x2="302.1" y2="43.3" stroke="#222" stroke-width="1.0"/>
<line x1="302.1" y1="43.3" x2="302.5" y2="44.1" stroke="#222" stroke-width="1.0"/>
<line x1="302.5" y1="44.1" x2="302.8" y2="44.9" stroke="#222" stroke-width="1.0"/>
<line x1="302.8" y1="44.9" x2="303.0" y2="45.7" stroke="#222" stroke-width="1.0"/>
<line x1="82.2" y1="46.0" x2="83.1" y2="46.0" stroke="#222" stroke-width="1.0"/>
<line x1="82.2" y1="46.0" x2="82.2" y2="62.3" stroke="#222" stroke-width="1.0"/>
<line x1="82.2" y1="62.3" x2="82.2" y2="146.0" stroke="#222" stroke-width="1.0"/>
<line x1="82.2" y1="146.0" x2="82.2" y2="208.8" stroke="#222" stroke-width="1.0"/>
<line x1="269.4" y1="36.0" x2="290.7" y2="36.0" stroke="#222" stroke-width="1.0"/>
<line x1="290.7" y1="36.0" x2="291.6" y2="36.1" stroke="#222" stroke-width="1.0"/>
<line x1="297.3" y1="37.9" x2="296.4" y2="37.3" stroke="#222" stroke-width="1.0"/>
<line x1="296.4" y1="37.3" x2="295.5" y2="37.0" stroke="#222" stroke-width="1.0"/>
<line x1="79.3" y1="246.0" x2="82.2" y2="246.0" stroke="#222" stroke-width="1.0"/>
<line x1="68.5" y1="154.3" x2="68.5" y2="157.7" stroke="#222" stroke-width="1.0"/>
<line x1="68.5" y1="157.7" x2="68.4" y2="246.0" stroke="#222" stroke-width="1.0"/>
<line x1="75.2" y1="246.0" x2="68.4" y2="246.0" stroke="#222" stroke-width="1.0"/>
<line x1="2.8" y1="56.0" x2="2.2" y2="56.0" stroke="#222" stroke-width="1.0"/>
<line x1="2.2" y1="56.0" x2="1.6" y2="56.0" stroke="#222" stroke-width="1.0"/>
<line x1="1.6" y1="56.0" x2="-18.9" y2="56.0" stroke="#222" stroke-width="1.0"/>
<line x1="-9.3" y1="69.9" x2="-29.7" y2="69.9" stroke="#222" stroke-width="1.0"/>
<line x1="-29.7" y1="69.9" x2="-32.9" y2="69.9" stroke="#222" stroke-width="1.0"/>
<line x1="-19.2" y1="56.0" x2="-19.4" y2="56.0" stroke="#222" stroke-width="1.0"/>
<line x1="-19.6" y1="56.0" x2="-19.4" y2="56.0" stroke="#222" stroke-width="1.0"/>
<line x1="-19.6" y1="56.0" x2="-29.9" y2="56.0" stroke="#222" stroke-width="1.0"/>
<line x1="-29.9" y1="56.0" x2="-29.9" y2="56.0" stroke="#222" stroke-width="1.0"/>
<line x1="-29.9" y1="56.0" x2="-32.9" y2="56.0" stroke="#222" stroke-width="1.0"/>
<line x1="-32.9" y1="60.5" x2="-32.9" y2="56.0" stroke="#222" stroke-width="1.0"/>
<line x1="49.4" y1="73.6" x2="50.2" y2="74.6" stroke="#222" stroke-width="1.0"/>
<line x1="50.2" y1="74.6" x2="50.7" y2="75.5" stroke="#222" stroke-width="1.0"/>
<line x1="47.9" y1="72.2" x2="48.7" y2="72.8" stroke="#222" stroke-width="1.0"/>
<line x1="47.0" y1="71.4" x2="47.9" y2="72.2" stroke="#222" stroke-width="1.0"/>
<line x1="46.0" y1="70.9" x2="47.0" y2="71.4" stroke="#222" stroke-width="1.0"/>
<line x1="44.9" y1="70.5" x2="46.0" y2="70.9" stroke="#222" stroke-width="1.0"/>
<line x1="43.9" y1="70.2" x2="43.3" y2="70.1" stroke="#222" stroke-width="1.0"/>
<line x1="41.7" y1="69.9" x2="43.3" y2="70.1" stroke="#222" stroke-width="1.0"/>
<line x1="41.7" y1="69.9" x2="41.7" y2="69.9" stroke="#222" stroke-width="1.0"/>
<line x1="34.3" y1="69.9" x2="41.7" y2="69.9" stroke="#222" stroke-width="1.0"/>
<line x1="34.3" y1="69.9" x2="26.4" y2="69.9" stroke="#222" stroke-width="1.0"/>
<line x1="26.4" y1="69.9" x2="9.4" y2="69.9" stroke="#222" stroke-width="1.0"/>
<line x1="23.1" y1="56.0" x2="13.6" y2="56.0" stroke="#222" stroke-width="1.0"/>
<line x1="23.1" y1="56.0" x2="26.2" y2="56.0" stroke="#222" stroke-width="1.0"/>
<line x1="26.2" y1="56.0" x2="26.8" y2="56.0" stroke="#222" stroke-width="1.0"/>
<line x1="73.7" y1="38.3" x2="75.4" y2="37.3" stroke="#222" stroke-width="1.0"/>
<line x1="75.4" y1="37.3" x2="75.4" y2="37.3" stroke="#222" stroke-width="1.0"/>
<line x1="75.4" y1="37.3" x2="77.2" y2="36.6" stroke="#222" stroke-width="1.0"/>
<line x1="77.2" y1="36.6" x2="77.3" y2="36.6" stroke="#222" stroke-width="1.0"/>
<line x1="77.3" y1="36.6" x2="79.1" y2="36.2" stroke="#222" stroke-width="1.0"/>
<line x1="79.3" y1="36.1" x2="81.1" y2="36.0" stroke="#222" stroke-width="1.0"/>
<line x1="81.1" y1="36.0" x2="102.4" y2="36.0" stroke="#222" stroke-width="1.0"/>
<line x1="253.1" y1="41.9" x2="253.1" y2="36.0" stroke="#222" stroke-width="1.0"/>
<line x1="253.1" y1="41.9" x2="253.1" y2="56.0" stroke="#222" stroke-width="1.0"/>
<line x1="253.1" y1="56.0" x2="248.6" y2="56.0" stroke="#222" stroke-width="1.0"/>
<line x1="248.6" y1="56.0" x2="182.7" y2="56.0" stroke="#222" stroke-width="1.0"/>
<line x1="182.7" y1="56.0" x2="123.1" y2="56.0" stroke="#222" stroke-width="1.0"/>
<line x1="71.0" y1="41.0" x2="71.0" y2="41.0" stroke="#222" stroke-width="1.0"/>
<line x1="71.0" y1="41.0" x2="70.0" y2="42.4" stroke="#222" stroke-width="1.0"/>
<line x1="69.3" y1="44.0" x2="70.0" y2="42.5" stroke="#222" stroke-width="1.0"/>
<line x1="68.8" y1="45.7" x2="69.3" y2="44.1" stroke="#222" stroke-width="1.0"/>
<line x1="68.4" y1="48.5" x2="68.8" y2="45.8" stroke="#222" stroke-width="1.0"/>
<line x1="68.8" y1="45.8" x2="68.8" y2="45.7" stroke="#222" stroke-width="1.0"/>
<line x1="68.5" y1="55.9" x2="68.4" y2="48.5" stroke="#222" stroke-width="1.0"/>
<line x1="63.9" y1="56.0" x2="68.5" y2="56.0" stroke="#222" stroke-width="1.0"/>
<line x1="61.7" y1="56.0" x2="63.9" y2="56.0" stroke="#222" stroke-width="1.0"/>
<line x1="52.2" y1="56.0" x2="54.7" y2="56.0" stroke="#222" stroke-width="1.0"/>
<line x1="50.6" y1="56.0" x2="52.2" y2="56.0" stroke="#222" stroke-width="1.0"/>
<line x1="48.7" y1="56.0" x2="49.5" y2="56.0" stroke="#222" stroke-width="1.0"/>
<line x1="38.9" y1="56.0" x2="48.7" y2="56.0" stroke="#222" stroke-width="1.0"/>
<line x1="38.1" y1="56.0" x2="38.9" y2="56.0" stroke="#222" stroke-width="1.0"/>
<line x1="49.5" y1="56.0" x2="50.6" y2="56.0" stroke="#222" stroke-width="1.0"/>
<line x1="54.7" y1="56.0" x2="61.7" y2="56.0" stroke="#222" stroke-width="1.0"/>
<line x1="51.4" y1="77.7" x2="51.5" y2="78.7" stroke="#222" stroke-width="1.0"/>
<line x1="51.5" y1="78.7" x2="51.6" y2="79.3" stroke="#222" stroke-width="1.0"/>
<line x1="51.7" y1="79.9" x2="51.6" y2="79.3" stroke="#222" stroke-width="1.0"/>
<line x1="51.7" y1="79.9" x2="51.7" y2="79.9" stroke="#222" stroke-width="1.0"/>
<line x1="51.7" y1="85.2" x2="51.7" y2="79.9" stroke="#222" stroke-width="1.0"/>
<line x1="51.7" y1="85.2" x2="51.7" y2="127.1" stroke="#222" stroke-width="1.0"/>
<line x1="51.7" y1="127.1" x2="51.5" y2="128.8" stroke="#222" stroke-width="1.0"/>
<line x1="51.4" y1="129.3" x2="51.5" y2="128.8" stroke="#222" stroke-width="1.0"/>
<line x1="51.4" y1="129.3" x2="51.1" y2="130.4" stroke="#222" stroke-width="1.0"/>
<line x1="50.7" y1="131.5" x2="50.2" y2="132.4" stroke="#222" stroke-width="1.0"/>
<line x1="50.2" y1="132.4" x2="49.4" y2="133.4" stroke="#222" stroke-width="1.0"/>
<line x1="49.4" y1="133.4" x2="48.7" y2="134.2" stroke="#222" stroke-width="1.0"/>
<line x1="48.7" y1="134.2" x2="47.9" y2="134.8" stroke="#222" stroke-width="1.0"/>
<line x1="47.0" y1="135.6" x2="46.0" y2="136.1" stroke="#222" stroke-width="1.0"/>
<line x1="46.0" y1="136.1" x2="44.9" y2="136.5" stroke="#222" stroke-width="1.0"/>
<line x1="44.9" y1="136.5" x2="43.9" y2="136.8" stroke="#222" stroke-width="1.0"/>
<line x1="34.3" y1="137.1" x2="26.4" y2="137.1" stroke="#222" stroke-width="1.0"/>
<line x1="9.4" y1="137.1" x2="26.4" y2="137.1" stroke="#222" stroke-width="1.0"/>
<line x1="-33.0" y1="143.4" x2="-33.0" y2="138.1" stroke="#222" stroke-width="1.0"/>
<line x1="-32.9" y1="137.1" x2="-33.0" y2="138.1" stroke="#222" stroke-width="1.0"/>
<line x1="-32.9" y1="154.4" x2="-33.0" y2="152.2" stroke="#222" stroke-width="1.0"/>
<line x1="21.4" y1="154.3" x2="-32.9" y2="154.4" stroke="#222" stroke-width="1.0"/>
<line x1="-32.9" y1="137.1" x2="-29.7" y2="137.1" stroke="#222" stroke-width="1.0"/>
<line x1="-9.3" y1="137.1" x2="-29.7" y2="137.1" stroke="#222" stroke-width="1.0"/>
<line x1="-33.0" y1="152.2" x2="-33.0" y2="143.4" stroke="#222" stroke-width="1.0"/>
<line x1="21.4" y1="154.3" x2="62.4" y2="154.3" stroke="#222" stroke-width="1.0"/>
<line x1="-9.3" y1="137.1" x2="9.4" y2="137.1" stroke="#222" stroke-width="1.0"/>
<line x1="34.3" y1="137.1" x2="41.7" y2="137.1" stroke="#222" stroke-width="1.0"/>
<line x1="43.9" y1="136.8" x2="42.9" y2="136.9" stroke="#222" stroke-width="1.0"/>
<line x1="42.9" y1="136.9" x2="42.3" y2="137.0" stroke="#222" stroke-width="1.0"/>
<line x1="41.7" y1="137.1" x2="42.3" y2="137.0" stroke="#222" stroke-width="1.0"/>
<line x1="47.9" y1="134.8" x2="47.0" y2="135.6" stroke="#222" stroke-width="1.0"/>
<line x1="51.1" y1="130.4" x2="50.7" y2="131.5" stroke="#222" stroke-width="1.0"/>
<line x1="51.7" y1="127.1" x2="51.7" y2="127.1" stroke="#222" stroke-width="1.0"/>
<line x1="51.1" y1="76.6" x2="51.4" y2="77.7" stroke="#222" stroke-width="1.0"/>
<line x1="68.5" y1="56.0" x2="68.5" y2="55.9" stroke="#222" stroke-width="1.0"/>
<line x1="71.0" y1="41.0" x2="72.2" y2="39.7" stroke="#222" stroke-width="1.0"/>
<line x1="72.2" y1="39.7" x2="72.2" y2="39.6" stroke="#222" stroke-width="1.0"/>
<line x1="118.7" y1="50.1" x2="118.7" y2="36.0" stroke="#222" stroke-width="1.0"/>
<line x1="118.7" y1="50.1" x2="118.7" y2="56.0" stroke="#222" stroke-width="1.0"/>
<line x1="70.0" y1="42.5" x2="70.0" y2="42.4" stroke="#222" stroke-width="1.0"/>
<line x1="69.3" y1="44.1" x2="69.3" y2="44.0" stroke="#222" stroke-width="1.0"/>
<line x1="68.8" y1="45.7" x2="68.8" y2="45.7" stroke="#222" stroke-width="1.0"/>
<line x1="123.1" y1="56.0" x2="118.7" y2="56.0" stroke="#222" stroke-width="1.0"/>
<line x1="102.4" y1="36.0" x2="118.7" y2="36.0" stroke="#222" stroke-width="1.0"/>
<line x1="79.3" y1="36.1" x2="79.1" y2="36.2" stroke="#222" stroke-width="1.0"/>
<line x1="73.7" y1="38.4" x2="73.7" y2="38.3" stroke="#222" stroke-width="1.0"/>
<line x1="72.2" y1="39.6" x2="73.7" y2="38.4" stroke="#222" stroke-width="1.0"/>
<line x1="37.4" y1="56.0" x2="38.1" y2="56.0" stroke="#222" stroke-width="1.0"/>
<line x1="36.8" y1="56.0" x2="37.4" y2="56.0" stroke="#222" stroke-width="1.0"/>
<line x1="26.8" y1="56.0" x2="36.8" y2="56.0" stroke="#222" stroke-width="1.0"/>
<line x1="43.9" y1="70.2" x2="44.9" y2="70.5" stroke="#222" stroke-width="1.0"/>
<line x1="50.7" y1="75.5" x2="51.1" y2="76.6" stroke="#222" stroke-width="1.0"/>
<line x1="48.7" y1="72.8" x2="49.4" y2="73.6" stroke="#222" stroke-width="1.0"/>
<line x1="41.7" y1="137.1" x2="41.7" y2="137.1" stroke="#222" stroke-width="1.0"/>
<line x1="-32.9" y1="60.5" x2="-32.9" y2="69.9" stroke="#222" stroke-width="1.0"/>
<line x1="-9.3" y1="69.9" x2="9.4" y2="69.9" stroke="#222" stroke-width="1.0"/>
<line x1="-18.9" y1="56.0" x2="-19.2" y2="56.0" stroke="#222" stroke-width="1.0"/>
<line x1="12.7" y1="56.0" x2="2.8" y2="56.0" stroke="#222" stroke-width="1.0"/>
<line x1="13.6" y1="56.0" x2="12.7" y2="56.0" stroke="#222" stroke-width="1.0"/>
<line x1="62.4" y1="154.3" x2="68.5" y2="154.3" stroke="#222" stroke-width="1.0"/>
<line x1="294.6" y1="36.6" x2="295.5" y2="37.0" stroke="#222" stroke-width="1.0"/>
<line x1="292.6" y1="36.2" x2="293.7" y2="36.4" stroke="#222" stroke-width="1.0"/>
<line x1="269.4" y1="36.0" x2="253.1" y2="36.0" stroke="#222" stroke-width="1.0"/>
<line x1="75.2" y1="246.0" x2="79.3" y2="246.0" stroke="#222" stroke-width="1.0"/>
<line x1="82.2" y1="208.8" x2="82.2" y2="246.0" stroke="#222" stroke-width="1.0"/>
<line x1="300.8" y1="41.0" x2="301.3" y2="41.7" stroke="#222" stroke-width="1.0"/>
<line x1="298.1" y1="38.4" x2="298.9" y2="39.0" stroke="#222" stroke-width="1.0"/>
<line x1="297.3" y1="37.9" x2="298.1" y2="38.4" stroke="#222" stroke-width="1.0"/>
<line x1="293.7" y1="36.4" x2="294.6" y2="36.6" stroke="#222" stroke-width="1.0"/>
<line x1="291.6" y1="36.1" x2="292.6" y2="36.2" stroke="#222" stroke-width="1.0"/>
<line x1="83.1" y1="46.0" x2="95.8" y2="46.0" stroke="#222" stroke-width="1.0"/>
<line x1="108.5" y1="60.8" x2="108.5" y2="61.0" stroke="#222" stroke-width="1.0"/>
<line x1="263.3" y1="58.7" x2="263.3" y2="61.0" stroke="#222" stroke-width="1.0"/>
<line x1="288.7" y1="46.0" x2="289.5" y2="46.0" stroke="#222" stroke-width="1.0"/>
<line x1="289.5" y1="146.0" x2="289.5" y2="183.2" stroke="#222" stroke-width="1.0"/>
<line x1="289.5" y1="46.0" x2="289.5" y2="62.3" stroke="#222" stroke-width="1.0"/>
<line x1="303.3" y1="163.8" x2="303.3" y2="156.6" stroke="#222" stroke-width="1.0"/>
<line x1="298.8" y1="156.6" x2="303.3" y2="156.6" stroke="#222" stroke-width="1.0"/>
<line x1="298.8" y1="155.5" x2="298.8" y2="156.6" stroke="#222" stroke-width="1.0"/>
<line x1="298.8" y1="155.5" x2="298.8" y2="155.0" stroke="#222" stroke-width="1.0"/>
<line x1="298.8" y1="155.0" x2="298.8" y2="154.3" stroke="#222" stroke-width="1.0"/>
<line x1="314.7" y1="56.0" x2="308.9" y2="56.0" stroke="#222" stroke-width="1.0"/>
<line x1="322.4" y1="56.0" x2="314.7" y2="56.0" stroke="#222" stroke-width="1.0"/>
<line x1="331.9" y1="56.0" x2="322.4" y2="56.0" stroke="#222" stroke-width="1.0"/>
<line x1="335.1" y1="56.0" x2="345.2" y2="56.0" stroke="#222" stroke-width="1.0"/>
<line x1="345.2" y1="56.0" x2="348.6" y2="56.0" stroke="#222" stroke-width="1.0"/>
<line x1="348.6" y1="56.0" x2="348.6" y2="56.0" stroke="#222" stroke-width="1.0"/>
<line x1="348.6" y1="56.0" x2="360.4" y2="56.0" stroke="#222" stroke-width="1.0"/>
<line x1="333.8" y1="56.0" x2="335.1" y2="56.0" stroke="#222" stroke-width="1.0"/>
<line x1="348.6" y1="56.0" x2="348.6" y2="56.0" stroke="#222" stroke-width="1.0"/>
<line x1="350.5" y1="69.9" x2="367.5" y2="69.9" stroke="#222" stroke-width="1.0"/>
<line x1="385.6" y1="69.9" x2="367.5" y2="69.9" stroke="#222" stroke-width="1.0"/>
<line x1="373.2" y1="56.0" x2="383.5" y2="56.0" stroke="#222" stroke-width="1.0"/>
<line x1="383.5" y1="56.0" x2="393.2" y2="56.0" stroke="#222" stroke-width="1.0"/>
<line x1="402.4" y1="56.0" x2="393.9" y2="56.0" stroke="#222" stroke-width="1.0"/>
<line x1="402.4" y1="56.0" x2="404.6" y2="56.0" stroke="#222" stroke-width="1.0"/>
<line x1="404.7" y1="69.9" x2="404.7" y2="69.9" stroke="#222" stroke-width="1.0"/>
<line x1="404.7" y1="69.9" x2="404.7" y2="69.9" stroke="#222" stroke-width="1.0"/>
<line x1="334.7" y1="136.8" x2="334.7" y2="136.8" stroke="#222" stroke-width="1.0"/>
<line x1="341.3" y1="136.8" x2="334.7" y2="136.8" stroke="#222" stroke-width="1.0"/>
<line x1="341.3" y1="136.8" x2="348.6" y2="136.8" stroke="#222" stroke-width="1.0"/>
<line x1="348.6" y1="136.8" x2="356.5" y2="136.8" stroke="#222" stroke-width="1.0"/>
<line x1="365.0" y1="136.8" x2="356.5" y2="136.8" stroke="#222" stroke-width="1.0"/>
<line x1="365.0" y1="136.8" x2="374.1" y2="136.8" stroke="#222" stroke-width="1.0"/>
<line x1="374.1" y1="136.8" x2="383.7" y2="136.8" stroke="#222" stroke-width="1.0"/>
<line x1="404.5" y1="136.8" x2="383.7" y2="136.8" stroke="#222" stroke-width="1.0"/>
<line x1="404.5" y1="136.8" x2="404.7" y2="136.8" stroke="#222" stroke-width="1.0"/>
<line x1="404.7" y1="136.8" x2="404.7" y2="136.8" stroke="#222" stroke-width="1.0"/>
<line x1="404.6" y1="154.3" x2="391.8" y2="154.3" stroke="#222" stroke-width="1.0"/>
<line x1="404.7" y1="150.4" x2="404.6" y2="154.3" stroke="#222" stroke-width="1.0"/>
<line x1="404.7" y1="150.4" x2="404.7" y2="140.6" stroke="#222" stroke-width="1.0"/>
<line x1="404.7" y1="140.6" x2="404.7" y2="137.2" stroke="#222" stroke-width="1.0"/>
<line x1="332.5" y1="136.5" x2="331.5" y2="136.2" stroke="#222" stroke-width="1.0"/>
<line x1="330.4" y1="135.7" x2="331.5" y2="136.2" stroke="#222" stroke-width="1.0"/>
<line x1="330.4" y1="135.7" x2="329.5" y2="135.3" stroke="#222" stroke-width="1.0"/>
<line x1="329.5" y1="135.3" x2="328.5" y2="134.5" stroke="#222" stroke-width="1.0"/>
<line x1="328.5" y1="134.5" x2="327.7" y2="133.9" stroke="#222" stroke-width="1.0"/>
<line x1="326.3" y1="132.1" x2="325.8" y2="131.2" stroke="#222" stroke-width="1.0"/>
<line x1="325.8" y1="131.2" x2="325.3" y2="130.0" stroke="#222" stroke-width="1.0"/>
<line x1="325.3" y1="130.0" x2="325.0" y2="129.1" stroke="#222" stroke-width="1.0"/>
<line x1="325.0" y1="129.1" x2="324.9" y2="128.1" stroke="#222" stroke-width="1.0"/>
<line x1="324.7" y1="123.0" x2="324.7" y2="79.9" stroke="#222" stroke-width="1.0"/>
<line x1="324.7" y1="79.9" x2="324.7" y2="79.9" stroke="#222" stroke-width="1.0"/>
<line x1="324.7" y1="126.8" x2="324.8" y2="127.4" stroke="#222" stroke-width="1.0"/>
<line x1="324.7" y1="126.8" x2="324.7" y2="126.8" stroke="#222" stroke-width="1.0"/>
<line x1="324.7" y1="79.9" x2="324.9" y2="78.2" stroke="#222" stroke-width="1.0"/>
<line x1="325.0" y1="77.6" x2="324.9" y2="78.2" stroke="#222" stroke-width="1.0"/>
<line x1="325.8" y1="75.5" x2="325.3" y2="76.7" stroke="#222" stroke-width="1.0"/>
<line x1="325.8" y1="75.5" x2="326.3" y2="74.6" stroke="#222" stroke-width="1.0"/>
<line x1="329.5" y1="71.4" x2="330.4" y2="71.0" stroke="#222" stroke-width="1.0"/>
<line x1="330.4" y1="71.0" x2="331.5" y2="70.5" stroke="#222" stroke-width="1.0"/>
<line x1="331.5" y1="70.5" x2="332.5" y2="70.2" stroke="#222" stroke-width="1.0"/>
<line x1="328.5" y1="72.2" x2="329.5" y2="71.4" stroke="#222" stroke-width="1.0"/>
<line x1="327.7" y1="72.8" x2="328.5" y2="72.2" stroke="#222" stroke-width="1.0"/>
<line x1="327.1" y1="73.6" x2="327.7" y2="72.8" stroke="#222" stroke-width="1.0"/>
<line x1="326.3" y1="74.6" x2="327.1" y2="73.6" stroke="#222" stroke-width="1.0"/>
<line x1="325.0" y1="77.6" x2="325.3" y2="76.7" stroke="#222" stroke-width="1.0"/>
<line x1="324.7" y1="123.0" x2="324.7" y2="126.8" stroke="#222" stroke-width="1.0"/>
<line x1="324.9" y1="128.1" x2="324.8" y2="127.4" stroke="#222" stroke-width="1.0"/>
<line x1="327.1" y1="133.1" x2="326.3" y2="132.1" stroke="#222" stroke-width="1.0"/>
<line x1="327.7" y1="133.9" x2="327.1" y2="133.1" stroke="#222" stroke-width="1.0"/>
<line x1="332.5" y1="136.5" x2="333.0" y2="136.6" stroke="#222" stroke-width="1.0"/>
<line x1="404.7" y1="137.2" x2="404.7" y2="136.8" stroke="#222" stroke-width="1.0"/>
<line x1="334.7" y1="136.8" x2="333.0" y2="136.6" stroke="#222" stroke-width="1.0"/>
<line x1="404.7" y1="69.9" x2="404.6" y2="56.0" stroke="#222" stroke-width="1.0"/>
<line x1="404.7" y1="69.9" x2="385.6" y2="69.9" stroke="#222" stroke-width="1.0"/>
<line x1="372.4" y1="56.0" x2="361.3" y2="56.0" stroke="#222" stroke-width="1.0"/>
<line x1="332.5" y1="70.2" x2="333.5" y2="70.1" stroke="#222" stroke-width="1.0"/>
<line x1="331.9" y1="56.0" x2="333.8" y2="56.0" stroke="#222" stroke-width="1.0"/>
<line x1="391.8" y1="154.3" x2="298.8" y2="154.3" stroke="#222" stroke-width="1.0"/>
<line x1="308.9" y1="56.0" x2="303.4" y2="56.0" stroke="#222" stroke-width="1.0"/>
<line x1="303.2" y1="47.1" x2="303.0" y2="45.7" stroke="#222" stroke-width="1.0"/>
<line x1="333.5" y1="70.1" x2="334.1" y2="70.0" stroke="#222" stroke-width="1.0"/>
<line x1="350.5" y1="69.9" x2="334.7" y2="69.9" stroke="#222" stroke-width="1.0"/>
<line x1="393.9" y1="56.0" x2="393.5" y2="56.0" stroke="#222" stroke-width="1.0"/>
<line x1="393.5" y1="56.0" x2="393.2" y2="56.0" stroke="#222" stroke-width="1.0"/>
<line x1="372.8" y1="56.0" x2="373.2" y2="56.0" stroke="#222" stroke-width="1.0"/>
<line x1="372.4" y1="56.0" x2="372.8" y2="56.0" stroke="#222" stroke-width="1.0"/>
<line x1="361.3" y1="56.0" x2="360.9" y2="56.0" stroke="#222" stroke-width="1.0"/>
<line x1="360.9" y1="56.0" x2="360.4" y2="56.0" stroke="#222" stroke-width="1.0"/>
<line x1="16.0" y1="206.0" x2="366.0" y2="206.0" stroke="#0a0" stroke-width="1.2"/>
<line x1="103.5" y1="246.0" x2="103.5" y2="206.0" stroke="#c60" stroke-width="1.0"/>
<line x1="268.5" y1="246.0" x2="268.5" y2="206.0" stroke="#c60" stroke-width="1.0"/>
<text x="26.0" y="31.0" font-size="9" fill="#000" text-anchor="start" font-family="monospace">x_n=+20; green DAT-F; orange beam</text>
</svg>
