<svg xmlns="http://www.w3.org/2000/svg" width="382" height="282" viewBox="0 0 382 282">
<rect width="100%" height="100%" fill="white"/>
<text x="8" y="12" font-size="11" font-family="monospace" fill="#000">D-25 x_n=-12 | lateral vs y_n | interior crop</text>
<line x1="279.4" y1="46.3" x2="279.7" y2="48.5" stroke="#222" stroke-width="1.0"/>
<line x1="279.7" y1="56.1" x2="279.7" y2="48.5" stroke="#222" stroke-width="1.0"/>
<line x1="269.6" y1="66.9" x2="275.3" y2="66.9" stroke="#222" stroke-width="1.0"/>
<line x1="275.3" y1="66.9" x2="279.7" y2="66.9" stroke="#222" stroke-width="1.0"/>
<line x1="268.3" y1="46.3" x2="268.2" y2="46.3" stroke="#222" stroke-width="1.0"/>
<line x1="268.0" y1="46.2" x2="268.2" y2="46.3" stroke="#222" stroke-width="1.0"/>
<line x1="268.0" y1="46.2" x2="267.9" y2="46.2" stroke="#222" stroke-width="1.0"/>
<line x1="267.5" y1="46.0" x2="267.9" y2="46.2" stroke="#222" stroke-width="1.0"/>
<line x1="267.5" y1="46.0" x2="267.4" y2="46.0" stroke="#222" stroke-width="1.0"/>
<line x1="267.2" y1="46.0" x2="267.4" y2="46.0" stroke="#222" stroke-width="1.0"/>
<line x1="267.2" y1="46.0" x2="267.2" y2="46.0" stroke="#222" stroke-width="1.0"/>
<line x1="126.6" y1="46.0" x2="104.7" y2="46.0" stroke="#222" stroke-width="1.0"/>
<line x1="267.1" y1="46.0" x2="126.6" y2="46.0" stroke="#222" stroke-width="1.0"/>
<line x1="104.6" y1="46.0" x2="104.7" y2="46.0" stroke="#222" stroke-width="1.0"/>
<line x1="104.6" y1="46.0" x2="104.2" y2="46.0" stroke="#222" stroke-width="1.0"/>
<line x1="278.1" y1="42.4" x2="277.3" y2="41.2" stroke="#222" stroke-width="1.0"/>
<line x1="276.9" y1="40.7" x2="277.3" y2="41.2" stroke="#222" stroke-width="1.0"/>
<line x1="278.9" y1="44.3" x2="278.7" y2="43.7" stroke="#222" stroke-width="1.0"/>
<line x1="279.3" y1="45.6" x2="278.9" y2="44.3" stroke="#222" stroke-width="1.0"/>
<line x1="103.7" y1="46.2" x2="103.7" y2="46.2" stroke="#222" stroke-width="1.0"/>
<line x1="103.7" y1="46.2" x2="103.4" y2="46.3" stroke="#222" stroke-width="1.0"/>
<line x1="138.7" y1="36.0" x2="267.1" y2="36.0" stroke="#222" stroke-width="1.0"/>
<line x1="267.1" y1="36.0" x2="268.6" y2="36.1" stroke="#222" stroke-width="1.0"/>
<line x1="268.6" y1="36.1" x2="269.3" y2="36.2" stroke="#222" stroke-width="1.0"/>
<line x1="269.3" y1="36.2" x2="270.8" y2="36.6" stroke="#222" stroke-width="1.0"/>
<line x1="103.0" y1="46.6" x2="103.0" y2="46.7" stroke="#222" stroke-width="1.0"/>
<line x1="103.0" y1="46.7" x2="102.7" y2="47.0" stroke="#222" stroke-width="1.0"/>
<line x1="102.6" y1="47.1" x2="102.7" y2="47.0" stroke="#222" stroke-width="1.0"/>
<line x1="102.6" y1="47.1" x2="102.4" y2="47.4" stroke="#222" stroke-width="1.0"/>
<line x1="102.4" y1="47.5" x2="102.4" y2="47.4" stroke="#222" stroke-width="1.0"/>
<line x1="102.4" y1="47.5" x2="102.3" y2="47.9" stroke="#222" stroke-width="1.0"/>
<line x1="102.7" y1="36.2" x2="100.8" y2="36.6" stroke="#222" stroke-width="1.0"/>
<line x1="102.8" y1="36.1" x2="102.7" y2="36.2" stroke="#222" stroke-width="1.0"/>
<line x1="102.2" y1="48.3" x2="102.2" y2="48.5" stroke="#222" stroke-width="1.0"/>
<line x1="102.2" y1="53.0" x2="102.2" y2="48.5" stroke="#222" stroke-width="1.0"/>
<line x1="102.2" y1="53.0" x2="102.1" y2="66.9" stroke="#222" stroke-width="1.0"/>
<line x1="96.4" y1="66.9" x2="102.1" y2="66.9" stroke="#222" stroke-width="1.0"/>
<line x1="92.1" y1="56.1" x2="92.0" y2="48.5" stroke="#222" stroke-width="1.0"/>
<line x1="96.4" y1="66.9" x2="92.1" y2="66.9" stroke="#222" stroke-width="1.0"/>
<line x1="92.4" y1="45.8" x2="92.4" y2="45.7" stroke="#222" stroke-width="1.0"/>
<line x1="92.9" y1="44.1" x2="92.9" y2="44.0" stroke="#222" stroke-width="1.0"/>
<line x1="99.0" y1="37.4" x2="99.1" y2="37.3" stroke="#222" stroke-width="1.0"/>
<line x1="97.3" y1="38.4" x2="97.4" y2="38.3" stroke="#222" stroke-width="1.0"/>
<line x1="94.6" y1="41.0" x2="94.6" y2="41.0" stroke="#222" stroke-width="1.0"/>
<line x1="102.8" y1="36.1" x2="104.6" y2="36.0" stroke="#222" stroke-width="1.0"/>
<line x1="100.8" y1="36.6" x2="99.1" y2="37.3" stroke="#222" stroke-width="1.0"/>
<line x1="97.4" y1="38.3" x2="99.0" y2="37.4" stroke="#222" stroke-width="1.0"/>
<line x1="95.8" y1="39.7" x2="97.3" y2="38.4" stroke="#222" stroke-width="1.0"/>
<line x1="94.6" y1="41.0" x2="95.8" y2="39.7" stroke="#222" stroke-width="1.0"/>
<line x1="93.7" y1="42.5" x2="94.6" y2="41.0" stroke="#222" stroke-width="1.0"/>
<line x1="92.9" y1="44.0" x2="93.7" y2="42.5" stroke="#222" stroke-width="1.0"/>
<line x1="92.4" y1="45.7" x2="92.9" y2="44.1" stroke="#222" stroke-width="1.0"/>
<line x1="92.0" y1="48.5" x2="92.4" y2="45.8" stroke="#222" stroke-width="1.0"/>
<line x1="92.1" y1="66.9" x2="92.1" y2="56.1" stroke="#222" stroke-width="1.0"/>
<line x1="102.3" y1="47.9" x2="102.2" y2="48.3" stroke="#222" stroke-width="1.0"/>
<line x1="103.3" y1="46.4" x2="103.0" y2="46.6" stroke="#222" stroke-width="1.0"/>
<line x1="272.2" y1="37.1" x2="272.9" y2="37.4" stroke="#222" stroke-width="1.0"/>
<line x1="274.2" y1="38.2" x2="274.8" y2="38.6" stroke="#222" stroke-width="1.0"/>
<line x1="138.7" y1="36.0" x2="104.6" y2="36.0" stroke="#222" stroke-width="1.0"/>
<line x1="103.4" y1="46.3" x2="103.3" y2="46.4" stroke="#222" stroke-width="1.0"/>
<line x1="104.1" y1="46.1" x2="103.7" y2="46.2" stroke="#222" stroke-width="1.0"/>
<line x1="104.2" y1="46.0" x2="104.1" y2="46.1" stroke="#222" stroke-width="1.0"/>
<line x1="269.1" y1="47.0" x2="269.2" y2="47.3" stroke="#222" stroke-width="1.0"/>
<line x1="269.3" y1="47.4" x2="269.2" y2="47.3" stroke="#222" stroke-width="1.0"/>
<line x1="269.3" y1="47.4" x2="269.4" y2="47.7" stroke="#222" stroke-width="1.0"/>
<line x1="269.5" y1="47.9" x2="269.4" y2="47.7" stroke="#222" stroke-width="1.0"/>
<line x1="269.5" y1="48.1" x2="269.5" y2="47.9" stroke="#222" stroke-width="1.0"/>
<line x1="269.5" y1="48.1" x2="269.5" y2="48.3" stroke="#222" stroke-width="1.0"/>
<line x1="269.1" y1="47.0" x2="268.9" y2="46.9" stroke="#222" stroke-width="1.0"/>
<line x1="268.7" y1="46.6" x2="268.9" y2="46.9" stroke="#222" stroke-width="1.0"/>
<line x1="269.6" y1="48.5" x2="269.5" y2="48.3" stroke="#222" stroke-width="1.0"/>
<line x1="269.6" y1="53.0" x2="269.6" y2="48.5" stroke="#222" stroke-width="1.0"/>
<line x1="278.7" y1="43.7" x2="278.1" y2="42.4" stroke="#222" stroke-width="1.0"/>
<line x1="276.0" y1="39.7" x2="276.9" y2="40.7" stroke="#222" stroke-width="1.0"/>
<line x1="274.8" y1="38.6" x2="276.0" y2="39.7" stroke="#222" stroke-width="1.0"/>
<line x1="272.9" y1="37.4" x2="274.2" y2="38.2" stroke="#222" stroke-width="1.0"/>
<line x1="270.8" y1="36.6" x2="272.2" y2="37.1" stroke="#222" stroke-width="1.0"/>
<line x1="104.2" y1="46.0" x2="104.2" y2="46.0" stroke="#222" stroke-width="1.0"/>
<line x1="267.1" y1="46.0" x2="267.2" y2="46.0" stroke="#222" stroke-width="1.0"/>
<line x1="268.3" y1="46.3" x2="268.6" y2="46.5" stroke="#222" stroke-width="1.0"/>
<line x1="268.7" y1="46.6" x2="268.6" y2="46.5" stroke="#222" stroke-width="1.0"/>
<line x1="269.6" y1="66.9" x2="269.6" y2="53.0" stroke="#222" stroke-width="1.0"/>
<line x1="279.7" y1="56.1" x2="279.7" y2="66.9" stroke="#222" stroke-width="1.0"/>
<line x1="279.4" y1="46.3" x2="279.3" y2="45.6" stroke="#222" stroke-width="1.0"/>
<line x1="16.0" y1="206.0" x2="366.0" y2="206.0" stroke="#0a0" stroke-width="1.2"/>
<line x1="103.5" y1="246.0" x2="103.5" y2="206.0" stroke="#c60" stroke-width="1.0"/>
<line x1="268.5" y1="246.0" x2="268.5" y2="206.0" stroke="#c60" stroke-width="1.0"/>
<text x="26.0" y="31.0" font-size="9" fill="#000" text-anchor="start" font-family="monospace">x_n=-12; green DAT-F; orange beam</text>
</svg>
