<svg xmlns="http://www.w3.org/2000/svg" width="382" height="282" viewBox="0 0 382 282">
<rect width="100%" height="100%" fill="white"/>
<text x="8" y="12" font-size="11" font-family="monospace" fill="#000">D-25 x_n=+28 | lateral vs y_n | interior crop</text>
<line x1="336.8" y1="72.0" x2="336.8" y2="72.0" stroke="#222" stroke-width="1.0"/>
<line x1="336.8" y1="72.0" x2="335.1" y2="72.3" stroke="#222" stroke-width="1.0"/>
<line x1="310.1" y1="157.2" x2="310.1" y2="227.8" stroke="#222" stroke-width="1.0"/>
<line x1="310.1" y1="227.8" x2="310.1" y2="246.0" stroke="#222" stroke-width="1.0"/>
<line x1="308.2" y1="246.0" x2="310.1" y2="246.0" stroke="#222" stroke-width="1.0"/>
<line x1="296.3" y1="175.6" x2="296.3" y2="146.0" stroke="#222" stroke-width="1.0"/>
<line x1="296.3" y1="63.1" x2="296.3" y2="146.0" stroke="#222" stroke-width="1.0"/>
<line x1="291.9" y1="46.0" x2="284.1" y2="46.0" stroke="#222" stroke-width="1.0"/>
<line x1="284.1" y1="46.0" x2="282.4" y2="46.0" stroke="#222" stroke-width="1.0"/>
<line x1="280.4" y1="48.0" x2="282.4" y2="46.0" stroke="#222" stroke-width="1.0"/>
<line x1="280.4" y1="48.0" x2="269.7" y2="58.5" stroke="#222" stroke-width="1.0"/>
<line x1="166.5" y1="61.0" x2="102.0" y2="61.0" stroke="#222" stroke-width="1.0"/>
<line x1="102.0" y1="59.4" x2="102.0" y2="61.0" stroke="#222" stroke-width="1.0"/>
<line x1="102.0" y1="59.4" x2="102.0" y2="58.5" stroke="#222" stroke-width="1.0"/>
<line x1="309.6" y1="45.0" x2="309.8" y2="45.7" stroke="#222" stroke-width="1.0"/>
<line x1="310.0" y1="47.3" x2="309.8" y2="45.7" stroke="#222" stroke-width="1.0"/>
<line x1="89.3" y1="46.0" x2="91.3" y2="48.0" stroke="#222" stroke-width="1.0"/>
<line x1="87.7" y1="46.0" x2="89.3" y2="46.0" stroke="#222" stroke-width="1.0"/>
<line x1="87.7" y1="46.0" x2="79.9" y2="46.0" stroke="#222" stroke-width="1.0"/>
<line x1="79.9" y1="46.0" x2="75.4" y2="46.0" stroke="#222" stroke-width="1.0"/>
<line x1="285.0" y1="36.0" x2="297.4" y2="36.0" stroke="#222" stroke-width="1.0"/>
<line x1="297.4" y1="36.0" x2="298.6" y2="36.1" stroke="#222" stroke-width="1.0"/>
<line x1="298.6" y1="36.1" x2="299.4" y2="36.2" stroke="#222" stroke-width="1.0"/>
<line x1="299.4" y1="36.2" x2="300.6" y2="36.4" stroke="#222" stroke-width="1.0"/>
<line x1="301.3" y1="36.6" x2="300.6" y2="36.4" stroke="#222" stroke-width="1.0"/>
<line x1="302.5" y1="37.1" x2="303.2" y2="37.3" stroke="#222" stroke-width="1.0"/>
<line x1="303.2" y1="37.3" x2="304.2" y2="38.0" stroke="#222" stroke-width="1.0"/>
<line x1="304.2" y1="38.0" x2="304.9" y2="38.4" stroke="#222" stroke-width="1.0"/>
<line x1="304.9" y1="38.4" x2="305.8" y2="39.1" stroke="#222" stroke-width="1.0"/>
<line x1="306.4" y1="39.7" x2="307.1" y2="40.4" stroke="#222" stroke-width="1.0"/>
<line x1="307.1" y1="40.4" x2="307.6" y2="41.0" stroke="#222" stroke-width="1.0"/>
<line x1="307.6" y1="41.0" x2="308.2" y2="41.8" stroke="#222" stroke-width="1.0"/>
<line x1="75.4" y1="246.0" x2="75.4" y2="216.4" stroke="#222" stroke-width="1.0"/>
<line x1="75.4" y1="216.4" x2="75.4" y2="146.0" stroke="#222" stroke-width="1.0"/>
<line x1="75.4" y1="63.1" x2="75.4" y2="146.0" stroke="#222" stroke-width="1.0"/>
<line x1="282.1" y1="36.0" x2="281.1" y2="36.0" stroke="#222" stroke-width="1.0"/>
<line x1="281.1" y1="36.0" x2="270.8" y2="36.0" stroke="#222" stroke-width="1.0"/>
<line x1="61.7" y1="197.2" x2="61.7" y2="246.0" stroke="#222" stroke-width="1.0"/>
<line x1="71.3" y1="246.0" x2="61.7" y2="246.0" stroke="#222" stroke-width="1.0"/>
<line x1="61.7" y1="197.2" x2="61.7" y2="157.3" stroke="#222" stroke-width="1.0"/>
<line x1="5.6" y1="56.0" x2="2.8" y2="56.0" stroke="#222" stroke-width="1.0"/>
<line x1="2.8" y1="56.0" x2="0.1" y2="56.0" stroke="#222" stroke-width="1.0"/>
<line x1="0.1" y1="56.0" x2="-15.0" y2="56.0" stroke="#222" stroke-width="1.0"/>
<line x1="4.4" y1="72.0" x2="-9.7" y2="72.0" stroke="#222" stroke-width="1.0"/>
<line x1="-9.7" y1="72.0" x2="-17.1" y2="72.0" stroke="#222" stroke-width="1.0"/>
<line x1="-24.9" y1="72.0" x2="-17.1" y2="72.0" stroke="#222" stroke-width="1.0"/>
<line x1="-24.9" y1="72.0" x2="-55.8" y2="72.0" stroke="#222" stroke-width="1.0"/>
<line x1="-55.8" y1="72.0" x2="-61.4" y2="72.0" stroke="#222" stroke-width="1.0"/>
<line x1="-66.6" y1="72.0" x2="-61.4" y2="72.0" stroke="#222" stroke-width="1.0"/>
<line x1="-66.6" y1="72.0" x2="-71.6" y2="72.0" stroke="#222" stroke-width="1.0"/>
<line x1="-71.6" y1="72.0" x2="-76.2" y2="72.0" stroke="#222" stroke-width="1.0"/>
<line x1="-80.4" y1="72.0" x2="-76.2" y2="72.0" stroke="#222" stroke-width="1.0"/>
<line x1="-80.4" y1="72.0" x2="-84.4" y2="72.0" stroke="#222" stroke-width="1.0"/>
<line x1="-85.4" y1="72.1" x2="-84.4" y2="72.0" stroke="#222" stroke-width="1.0"/>
<line x1="-17.3" y1="56.0" x2="-19.3" y2="56.0" stroke="#222" stroke-width="1.0"/>
<line x1="-21.2" y1="56.0" x2="-19.3" y2="56.0" stroke="#222" stroke-width="1.0"/>
<line x1="-21.2" y1="56.0" x2="-28.9" y2="56.0" stroke="#222" stroke-width="1.0"/>
<line x1="-28.9" y1="56.0" x2="-30.5" y2="56.0" stroke="#222" stroke-width="1.0"/>
<line x1="-30.5" y1="56.0" x2="-38.2" y2="56.0" stroke="#222" stroke-width="1.0"/>
<line x1="-41.0" y1="56.0" x2="-44.7" y2="56.0" stroke="#222" stroke-width="1.0"/>
<line x1="-38.2" y1="56.0" x2="-39.6" y2="56.0" stroke="#222" stroke-width="1.0"/>
<line x1="-39.6" y1="56.0" x2="-41.0" y2="56.0" stroke="#222" stroke-width="1.0"/>
<line x1="-44.7" y1="56.0" x2="-45.8" y2="56.0" stroke="#222" stroke-width="1.0"/>
<line x1="-45.8" y1="56.0" x2="-49.3" y2="56.0" stroke="#222" stroke-width="1.0"/>
<line x1="-50.3" y1="56.0" x2="-53.6" y2="56.0" stroke="#222" stroke-width="1.0"/>
<line x1="-49.3" y1="56.0" x2="-50.3" y2="56.0" stroke="#222" stroke-width="1.0"/>
<line x1="-53.6" y1="56.0" x2="-54.5" y2="56.0" stroke="#222" stroke-width="1.0"/>
<line x1="-54.5" y1="56.0" x2="-57.6" y2="56.0" stroke="#222" stroke-width="1.0"/>
<line x1="-57.6" y1="56.0" x2="-58.3" y2="56.0" stroke="#222" stroke-width="1.0"/>
<line x1="-58.3" y1="56.0" x2="-61.2" y2="56.0" stroke="#222" stroke-width="1.0"/>
<line x1="-61.9" y1="56.1" x2="-64.5" y2="56.1" stroke="#222" stroke-width="1.0"/>
<line x1="-61.2" y1="56.0" x2="-61.9" y2="56.1" stroke="#222" stroke-width="1.0"/>
<line x1="-64.5" y1="56.1" x2="-65.6" y2="56.1" stroke="#222" stroke-width="1.0"/>
<line x1="-65.6" y1="56.1" x2="-68.0" y2="56.1" stroke="#222" stroke-width="1.0"/>
<line x1="-70.1" y1="56.1" x2="-72.1" y2="56.1" stroke="#222" stroke-width="1.0"/>
<line x1="-68.0" y1="56.1" x2="-70.1" y2="56.1" stroke="#222" stroke-width="1.0"/>
<line x1="-72.1" y1="56.1" x2="-72.9" y2="56.1" stroke="#222" stroke-width="1.0"/>
<line x1="-72.9" y1="56.1" x2="-74.7" y2="56.2" stroke="#222" stroke-width="1.0"/>
<line x1="-74.7" y1="56.2" x2="-77.7" y2="56.2" stroke="#222" stroke-width="1.0"/>
<line x1="-77.7" y1="56.2" x2="-78.3" y2="56.3" stroke="#222" stroke-width="1.0"/>
<line x1="-78.3" y1="56.3" x2="-78.8" y2="56.3" stroke="#222" stroke-width="1.0"/>
<line x1="-78.8" y1="56.3" x2="-84.7" y2="56.6" stroke="#222" stroke-width="1.0"/>
<line x1="-84.7" y1="56.6" x2="-85.0" y2="56.6" stroke="#222" stroke-width="1.0"/>
<line x1="-85.0" y1="56.6" x2="-85.6" y2="56.6" stroke="#222" stroke-width="1.0"/>
<line x1="-85.6" y1="56.6" x2="-91.2" y2="57.2" stroke="#222" stroke-width="1.0"/>
<line x1="-91.0" y1="72.7" x2="-88.1" y2="72.3" stroke="#222" stroke-width="1.0"/>
<line x1="-93.9" y1="73.5" x2="-91.0" y2="72.7" stroke="#222" stroke-width="1.0"/>
<line x1="-94.5" y1="73.7" x2="-93.9" y2="73.5" stroke="#222" stroke-width="1.0"/>
<line x1="-97.3" y1="74.8" x2="-94.5" y2="73.7" stroke="#222" stroke-width="1.0"/>
<line x1="-100.5" y1="76.4" x2="-97.7" y2="75.0" stroke="#222" stroke-width="1.0"/>
<line x1="-103.1" y1="78.2" x2="-100.5" y2="76.4" stroke="#222" stroke-width="1.0"/>
<line x1="-103.1" y1="78.2" x2="-103.1" y2="78.2" stroke="#222" stroke-width="1.0"/>
<line x1="-99.9" y1="157.2" x2="-103.8" y2="156.8" stroke="#222" stroke-width="1.0"/>
<line x1="-103.9" y1="148.7" x2="-103.8" y2="156.8" stroke="#222" stroke-width="1.0"/>
<line x1="-103.9" y1="148.7" x2="-103.9" y2="144.8" stroke="#222" stroke-width="1.0"/>
<line x1="-103.9" y1="144.8" x2="-103.8" y2="128.2" stroke="#222" stroke-width="1.0"/>
<line x1="-103.8" y1="73.5" x2="-103.8" y2="78.8" stroke="#222" stroke-width="1.0"/>
<line x1="-103.8" y1="61.3" x2="-103.8" y2="73.5" stroke="#222" stroke-width="1.0"/>
<line x1="-101.4" y1="60.0" x2="-103.8" y2="61.3" stroke="#222" stroke-width="1.0"/>
<line x1="-101.3" y1="59.9" x2="-101.4" y2="60.0" stroke="#222" stroke-width="1.0"/>
<line x1="-96.6" y1="58.3" x2="-96.8" y2="58.3" stroke="#222" stroke-width="1.0"/>
<line x1="-91.6" y1="57.3" x2="-96.6" y2="58.3" stroke="#222" stroke-width="1.0"/>
<line x1="-88.1" y1="134.7" x2="-87.6" y2="134.8" stroke="#222" stroke-width="1.0"/>
<line x1="-87.6" y1="134.8" x2="-84.4" y2="135.0" stroke="#222" stroke-width="1.0"/>
<line x1="-80.4" y1="135.0" x2="-84.4" y2="135.0" stroke="#222" stroke-width="1.0"/>
<line x1="-80.4" y1="135.0" x2="-76.0" y2="135.0" stroke="#222" stroke-width="1.0"/>
<line x1="-76.0" y1="135.0" x2="-71.3" y2="135.0" stroke="#222" stroke-width="1.0"/>
<line x1="-66.2" y1="135.0" x2="-71.3" y2="135.0" stroke="#222" stroke-width="1.0"/>
<line x1="-66.2" y1="135.0" x2="-60.8" y2="135.0" stroke="#222" stroke-width="1.0"/>
<line x1="-60.8" y1="135.0" x2="-54.9" y2="135.0" stroke="#222" stroke-width="1.0"/>
<line x1="-54.9" y1="135.0" x2="-30.0" y2="135.0" stroke="#222" stroke-width="1.0"/>
<line x1="-30.0" y1="135.0" x2="-24.9" y2="135.0" stroke="#222" stroke-width="1.0"/>
<line x1="48.3" y1="77.0" x2="47.9" y2="76.5" stroke="#222" stroke-width="1.0"/>
<line x1="46.7" y1="74.9" x2="47.9" y2="76.5" stroke="#222" stroke-width="1.0"/>
<line x1="44.6" y1="73.4" x2="46.2" y2="74.6" stroke="#222" stroke-width="1.0"/>
<line x1="42.2" y1="72.4" x2="44.0" y2="73.1" stroke="#222" stroke-width="1.0"/>
<line x1="42.2" y1="72.4" x2="41.9" y2="72.3" stroke="#222" stroke-width="1.0"/>
<line x1="41.9" y1="72.3" x2="40.8" y2="72.1" stroke="#222" stroke-width="1.0"/>
<line x1="39.6" y1="72.0" x2="40.8" y2="72.1" stroke="#222" stroke-width="1.0"/>
<line x1="39.6" y1="72.0" x2="39.6" y2="72.0" stroke="#222" stroke-width="1.0"/>
<line x1="34.5" y1="72.0" x2="39.6" y2="72.0" stroke="#222" stroke-width="1.0"/>
<line x1="34.5" y1="72.0" x2="29.0" y2="72.0" stroke="#222" stroke-width="1.0"/>
<line x1="29.0" y1="72.0" x2="17.3" y2="72.0" stroke="#222" stroke-width="1.0"/>
<line x1="23.1" y1="56.0" x2="16.1" y2="56.0" stroke="#222" stroke-width="1.0"/>
<line x1="23.1" y1="56.0" x2="33.5" y2="56.0" stroke="#222" stroke-width="1.0"/>
<line x1="33.5" y1="56.0" x2="35.2" y2="56.0" stroke="#222" stroke-width="1.0"/>
<line x1="64.5" y1="40.6" x2="65.3" y2="39.7" stroke="#222" stroke-width="1.0"/>
<line x1="65.3" y1="39.7" x2="65.8" y2="39.3" stroke="#222" stroke-width="1.0"/>
<line x1="65.8" y1="39.3" x2="66.9" y2="38.4" stroke="#222" stroke-width="1.0"/>
<line x1="66.9" y1="38.4" x2="67.4" y2="38.1" stroke="#222" stroke-width="1.0"/>
<line x1="68.6" y1="37.3" x2="69.1" y2="37.1" stroke="#222" stroke-width="1.0"/>
<line x1="70.4" y1="36.6" x2="71.0" y2="36.5" stroke="#222" stroke-width="1.0"/>
<line x1="71.0" y1="36.5" x2="72.3" y2="36.2" stroke="#222" stroke-width="1.0"/>
<line x1="73.2" y1="36.1" x2="72.3" y2="36.2" stroke="#222" stroke-width="1.0"/>
<line x1="100.9" y1="36.0" x2="90.6" y2="36.0" stroke="#222" stroke-width="1.0"/>
<line x1="90.6" y1="36.0" x2="89.6" y2="36.0" stroke="#222" stroke-width="1.0"/>
<line x1="89.6" y1="36.0" x2="88.5" y2="36.0" stroke="#222" stroke-width="1.0"/>
<line x1="87.5" y1="36.0" x2="88.5" y2="36.0" stroke="#222" stroke-width="1.0"/>
<line x1="87.5" y1="36.0" x2="86.7" y2="36.0" stroke="#222" stroke-width="1.0"/>
<line x1="86.7" y1="36.0" x2="74.3" y2="36.0" stroke="#222" stroke-width="1.0"/>
<line x1="122.1" y1="56.0" x2="259.7" y2="56.0" stroke="#222" stroke-width="1.0"/>
<line x1="259.7" y1="54.6" x2="259.7" y2="56.0" stroke="#222" stroke-width="1.0"/>
<line x1="259.7" y1="54.6" x2="259.7" y2="36.0" stroke="#222" stroke-width="1.0"/>
<line x1="269.8" y1="36.0" x2="259.7" y2="36.0" stroke="#222" stroke-width="1.0"/>
<line x1="63.4" y1="42.1" x2="63.2" y2="42.5" stroke="#222" stroke-width="1.0"/>
<line x1="63.2" y1="42.5" x2="62.6" y2="43.6" stroke="#222" stroke-width="1.0"/>
<line x1="62.4" y1="44.1" x2="62.6" y2="43.6" stroke="#222" stroke-width="1.0"/>
<line x1="62.1" y1="45.3" x2="62.4" y2="44.1" stroke="#222" stroke-width="1.0"/>
<line x1="61.9" y1="45.7" x2="62.1" y2="45.3" stroke="#222" stroke-width="1.0"/>
<line x1="61.8" y1="47.0" x2="61.9" y2="45.7" stroke="#222" stroke-width="1.0"/>
<line x1="57.8" y1="56.0" x2="61.7" y2="56.0" stroke="#222" stroke-width="1.0"/>
<line x1="61.7" y1="56.0" x2="61.7" y2="55.6" stroke="#222" stroke-width="1.0"/>
<line x1="52.3" y1="56.0" x2="54.6" y2="56.0" stroke="#222" stroke-width="1.0"/>
<line x1="47.8" y1="56.0" x2="52.3" y2="56.0" stroke="#222" stroke-width="1.0"/>
<line x1="45.2" y1="56.0" x2="47.8" y2="56.0" stroke="#222" stroke-width="1.0"/>
<line x1="54.6" y1="56.0" x2="57.8" y2="56.0" stroke="#222" stroke-width="1.0"/>
<line x1="61.7" y1="55.6" x2="61.6" y2="48.5" stroke="#222" stroke-width="1.0"/>
<line x1="49.3" y1="79.4" x2="49.4" y2="80.4" stroke="#222" stroke-width="1.0"/>
<line x1="49.6" y1="82.0" x2="49.4" y2="80.4" stroke="#222" stroke-width="1.0"/>
<line x1="49.6" y1="82.0" x2="49.6" y2="82.0" stroke="#222" stroke-width="1.0"/>
<line x1="49.6" y1="96.0" x2="49.6" y2="82.0" stroke="#222" stroke-width="1.0"/>
<line x1="49.6" y1="96.0" x2="49.6" y2="125.0" stroke="#222" stroke-width="1.0"/>
<line x1="49.6" y1="125.0" x2="49.5" y2="126.2" stroke="#222" stroke-width="1.0"/>
<line x1="49.3" y1="127.3" x2="49.5" y2="126.2" stroke="#222" stroke-width="1.0"/>
<line x1="34.5" y1="135.0" x2="29.0" y2="135.0" stroke="#222" stroke-width="1.0"/>
<line x1="17.3" y1="135.0" x2="29.0" y2="135.0" stroke="#222" stroke-width="1.0"/>
<line x1="-100.4" y1="130.6" x2="-97.7" y2="132.0" stroke="#222" stroke-width="1.0"/>
<line x1="-97.7" y1="132.0" x2="-97.3" y2="132.2" stroke="#222" stroke-width="1.0"/>
<line x1="-103.0" y1="128.9" x2="-103.0" y2="128.9" stroke="#222" stroke-width="1.0"/>
<line x1="-97.3" y1="132.2" x2="-94.5" y2="133.3" stroke="#222" stroke-width="1.0"/>
<line x1="-94.5" y1="133.3" x2="-93.9" y2="133.5" stroke="#222" stroke-width="1.0"/>
<line x1="-93.9" y1="133.5" x2="-91.0" y2="134.3" stroke="#222" stroke-width="1.0"/>
<line x1="-103.0" y1="128.9" x2="-100.4" y2="130.6" stroke="#222" stroke-width="1.0"/>
<line x1="10.4" y1="157.3" x2="-92.3" y2="157.2" stroke="#222" stroke-width="1.0"/>
<line x1="-17.1" y1="135.0" x2="-9.6" y2="135.0" stroke="#222" stroke-width="1.0"/>
<line x1="4.4" y1="135.0" x2="-9.6" y2="135.0" stroke="#222" stroke-width="1.0"/>
<line x1="4.4" y1="135.0" x2="17.3" y2="135.0" stroke="#222" stroke-width="1.0"/>
<line x1="34.5" y1="135.0" x2="39.6" y2="135.0" stroke="#222" stroke-width="1.0"/>
<line x1="42.2" y1="134.6" x2="41.2" y2="134.8" stroke="#222" stroke-width="1.0"/>
<line x1="39.6" y1="135.0" x2="41.2" y2="134.8" stroke="#222" stroke-width="1.0"/>
<line x1="42.2" y1="134.6" x2="42.8" y2="134.4" stroke="#222" stroke-width="1.0"/>
<line x1="44.6" y1="133.6" x2="42.8" y2="134.4" stroke="#222" stroke-width="1.0"/>
<line x1="44.6" y1="133.6" x2="45.1" y2="133.2" stroke="#222" stroke-width="1.0"/>
<line x1="46.7" y1="132.1" x2="45.1" y2="133.2" stroke="#222" stroke-width="1.0"/>
<line x1="48.3" y1="130.0" x2="47.1" y2="131.5" stroke="#222" stroke-width="1.0"/>
<line x1="49.3" y1="127.6" x2="48.5" y2="129.4" stroke="#222" stroke-width="1.0"/>
<line x1="49.3" y1="127.6" x2="49.3" y2="127.3" stroke="#222" stroke-width="1.0"/>
<line x1="49.6" y1="125.0" x2="49.6" y2="125.0" stroke="#222" stroke-width="1.0"/>
<line x1="49.3" y1="79.4" x2="49.0" y2="78.8" stroke="#222" stroke-width="1.0"/>
<line x1="61.6" y1="48.5" x2="61.8" y2="47.0" stroke="#222" stroke-width="1.0"/>
<line x1="112.0" y1="37.4" x2="112.0" y2="36.0" stroke="#222" stroke-width="1.0"/>
<line x1="101.9" y1="36.0" x2="112.0" y2="36.0" stroke="#222" stroke-width="1.0"/>
<line x1="112.0" y1="37.4" x2="112.0" y2="56.0" stroke="#222" stroke-width="1.0"/>
<line x1="122.1" y1="56.0" x2="112.0" y2="56.0" stroke="#222" stroke-width="1.0"/>
<line x1="101.9" y1="36.0" x2="100.9" y2="36.0" stroke="#222" stroke-width="1.0"/>
<line x1="73.2" y1="36.1" x2="74.3" y2="36.0" stroke="#222" stroke-width="1.0"/>
<line x1="64.2" y1="41.0" x2="64.5" y2="40.6" stroke="#222" stroke-width="1.0"/>
<line x1="63.4" y1="42.1" x2="64.2" y2="41.0" stroke="#222" stroke-width="1.0"/>
<line x1="43.2" y1="56.0" x2="45.2" y2="56.0" stroke="#222" stroke-width="1.0"/>
<line x1="41.5" y1="56.0" x2="43.2" y2="56.0" stroke="#222" stroke-width="1.0"/>
<line x1="35.2" y1="56.0" x2="41.5" y2="56.0" stroke="#222" stroke-width="1.0"/>
<line x1="48.3" y1="77.0" x2="49.0" y2="78.8" stroke="#222" stroke-width="1.0"/>
<line x1="48.3" y1="130.0" x2="48.5" y2="129.4" stroke="#222" stroke-width="1.0"/>
<line x1="46.7" y1="132.1" x2="47.1" y2="131.5" stroke="#222" stroke-width="1.0"/>
<line x1="39.6" y1="135.0" x2="39.6" y2="135.0" stroke="#222" stroke-width="1.0"/>
<line x1="-24.9" y1="135.0" x2="-17.1" y2="135.0" stroke="#222" stroke-width="1.0"/>
<line x1="-91.0" y1="134.3" x2="-88.1" y2="134.7" stroke="#222" stroke-width="1.0"/>
<line x1="-103.8" y1="128.2" x2="-103.0" y2="128.9" stroke="#222" stroke-width="1.0"/>
<line x1="-99.9" y1="157.2" x2="-92.3" y2="157.2" stroke="#222" stroke-width="1.0"/>
<line x1="-103.1" y1="78.2" x2="-103.8" y2="78.8" stroke="#222" stroke-width="1.0"/>
<line x1="-96.8" y1="58.3" x2="-101.3" y2="59.9" stroke="#222" stroke-width="1.0"/>
<line x1="-97.7" y1="75.0" x2="-97.3" y2="74.8" stroke="#222" stroke-width="1.0"/>
<line x1="-91.2" y1="57.2" x2="-91.6" y2="57.3" stroke="#222" stroke-width="1.0"/>
<line x1="-88.1" y1="72.3" x2="-85.4" y2="72.1" stroke="#222" stroke-width="1.0"/>
<line x1="4.4" y1="72.0" x2="17.3" y2="72.0" stroke="#222" stroke-width="1.0"/>
<line x1="-15.0" y1="56.0" x2="-17.3" y2="56.0" stroke="#222" stroke-width="1.0"/>
<line x1="12.9" y1="56.0" x2="5.6" y2="56.0" stroke="#222" stroke-width="1.0"/>
<line x1="16.1" y1="56.0" x2="12.9" y2="56.0" stroke="#222" stroke-width="1.0"/>
<line x1="44.6" y1="73.4" x2="44.0" y2="73.1" stroke="#222" stroke-width="1.0"/>
<line x1="46.7" y1="74.9" x2="46.2" y2="74.6" stroke="#222" stroke-width="1.0"/>
<line x1="61.7" y1="157.3" x2="10.4" y2="157.3" stroke="#222" stroke-width="1.0"/>
<line x1="270.8" y1="36.0" x2="269.8" y2="36.0" stroke="#222" stroke-width="1.0"/>
<line x1="282.1" y1="36.0" x2="283.2" y2="36.0" stroke="#222" stroke-width="1.0"/>
<line x1="284.2" y1="36.0" x2="283.2" y2="36.0" stroke="#222" stroke-width="1.0"/>
<line x1="69.1" y1="37.1" x2="70.4" y2="36.6" stroke="#222" stroke-width="1.0"/>
<line x1="67.4" y1="38.1" x2="68.6" y2="37.3" stroke="#222" stroke-width="1.0"/>
<line x1="71.3" y1="246.0" x2="75.4" y2="246.0" stroke="#222" stroke-width="1.0"/>
<line x1="308.6" y1="42.5" x2="309.0" y2="43.4" stroke="#222" stroke-width="1.0"/>
<line x1="309.0" y1="43.4" x2="309.3" y2="44.1" stroke="#222" stroke-width="1.0"/>
<line x1="302.5" y1="37.1" x2="301.3" y2="36.6" stroke="#222" stroke-width="1.0"/>
<line x1="285.0" y1="36.0" x2="284.2" y2="36.0" stroke="#222" stroke-width="1.0"/>
<line x1="75.4" y1="46.0" x2="75.4" y2="63.1" stroke="#222" stroke-width="1.0"/>
<line x1="317.5" y1="56.0" x2="310.1" y2="56.0" stroke="#222" stroke-width="1.0"/>
<line x1="321.1" y1="56.0" x2="317.5" y2="56.0" stroke="#222" stroke-width="1.0"/>
<line x1="330.7" y1="56.0" x2="337.1" y2="56.0" stroke="#222" stroke-width="1.0"/>
<line x1="337.1" y1="56.0" x2="348.6" y2="56.0" stroke="#222" stroke-width="1.0"/>
<line x1="310.1" y1="48.5" x2="310.1" y2="51.7" stroke="#222" stroke-width="1.0"/>
<line x1="348.6" y1="56.0" x2="348.6" y2="56.0" stroke="#222" stroke-width="1.0"/>
<line x1="348.6" y1="56.0" x2="357.4" y2="56.0" stroke="#222" stroke-width="1.0"/>
<line x1="326.9" y1="56.0" x2="330.7" y2="56.0" stroke="#222" stroke-width="1.0"/>
<line x1="348.6" y1="56.0" x2="348.6" y2="56.0" stroke="#222" stroke-width="1.0"/>
<line x1="348.7" y1="72.0" x2="361.4" y2="72.0" stroke="#222" stroke-width="1.0"/>
<line x1="374.9" y1="72.0" x2="361.4" y2="72.0" stroke="#222" stroke-width="1.0"/>
<line x1="372.8" y1="56.0" x2="380.4" y2="56.0" stroke="#222" stroke-width="1.0"/>
<line x1="380.4" y1="56.0" x2="387.6" y2="56.0" stroke="#222" stroke-width="1.0"/>
<line x1="401.6" y1="56.0" x2="395.3" y2="56.0" stroke="#222" stroke-width="1.0"/>
<line x1="407.5" y1="56.0" x2="401.6" y2="56.0" stroke="#222" stroke-width="1.0"/>
<line x1="410.8" y1="56.0" x2="407.5" y2="56.0" stroke="#222" stroke-width="1.0"/>
<line x1="416.0" y1="56.0" x2="410.8" y2="56.0" stroke="#222" stroke-width="1.0"/>
<line x1="389.2" y1="72.0" x2="396.7" y2="72.0" stroke="#222" stroke-width="1.0"/>
<line x1="404.3" y1="72.0" x2="396.7" y2="72.0" stroke="#222" stroke-width="1.0"/>
<line x1="422.2" y1="56.0" x2="417.5" y2="56.0" stroke="#222" stroke-width="1.0"/>
<line x1="423.5" y1="56.0" x2="422.2" y2="56.0" stroke="#222" stroke-width="1.0"/>
<line x1="462.8" y1="72.8" x2="462.0" y2="72.6" stroke="#222" stroke-width="1.0"/>
<line x1="462.0" y1="72.6" x2="457.1" y2="72.1" stroke="#222" stroke-width="1.0"/>
<line x1="452.4" y1="72.0" x2="456.1" y2="72.0" stroke="#222" stroke-width="1.0"/>
<line x1="452.4" y1="72.0" x2="448.3" y2="72.0" stroke="#222" stroke-width="1.0"/>
<line x1="448.3" y1="72.0" x2="443.9" y2="72.0" stroke="#222" stroke-width="1.0"/>
<line x1="439.2" y1="72.0" x2="443.9" y2="72.0" stroke="#222" stroke-width="1.0"/>
<line x1="439.2" y1="72.0" x2="434.2" y2="72.0" stroke="#222" stroke-width="1.0"/>
<line x1="434.2" y1="72.0" x2="428.8" y2="72.0" stroke="#222" stroke-width="1.0"/>
<line x1="432.1" y1="56.1" x2="428.6" y2="56.0" stroke="#222" stroke-width="1.0"/>
<line x1="438.7" y1="56.1" x2="433.0" y2="56.1" stroke="#222" stroke-width="1.0"/>
<line x1="445.3" y1="56.2" x2="440.0" y2="56.1" stroke="#222" stroke-width="1.0"/>
<line x1="451.2" y1="56.3" x2="446.2" y2="56.2" stroke="#222" stroke-width="1.0"/>
<line x1="456.5" y1="56.6" x2="451.8" y2="56.4" stroke="#222" stroke-width="1.0"/>
<line x1="457.0" y1="56.6" x2="456.5" y2="56.6" stroke="#222" stroke-width="1.0"/>
<line x1="461.2" y1="57.0" x2="457.0" y2="56.6" stroke="#222" stroke-width="1.0"/>
<line x1="461.6" y1="57.1" x2="461.2" y2="57.0" stroke="#222" stroke-width="1.0"/>
<line x1="473.4" y1="60.1" x2="473.4" y2="60.0" stroke="#222" stroke-width="1.0"/>
<line x1="473.4" y1="60.0" x2="469.7" y2="58.6" stroke="#222" stroke-width="1.0"/>
<line x1="472.7" y1="76.8" x2="467.7" y2="74.2" stroke="#222" stroke-width="1.0"/>
<line x1="472.9" y1="76.9" x2="472.7" y2="76.8" stroke="#222" stroke-width="1.0"/>
<line x1="463.0" y1="134.2" x2="463.8" y2="134.0" stroke="#222" stroke-width="1.0"/>
<line x1="463.8" y1="134.0" x2="466.5" y2="133.2" stroke="#222" stroke-width="1.0"/>
<line x1="469.2" y1="132.1" x2="466.5" y2="133.2" stroke="#222" stroke-width="1.0"/>
<line x1="469.2" y1="132.1" x2="469.5" y2="132.0" stroke="#222" stroke-width="1.0"/>
<line x1="472.1" y1="130.6" x2="469.5" y2="132.0" stroke="#222" stroke-width="1.0"/>
<line x1="472.1" y1="130.6" x2="474.7" y2="128.9" stroke="#222" stroke-width="1.0"/>
<line x1="474.7" y1="128.9" x2="474.8" y2="128.8" stroke="#222" stroke-width="1.0"/>
<line x1="336.8" y1="134.7" x2="336.8" y2="134.7" stroke="#222" stroke-width="1.0"/>
<line x1="341.8" y1="134.7" x2="336.8" y2="134.7" stroke="#222" stroke-width="1.0"/>
<line x1="341.8" y1="134.7" x2="347.2" y2="134.7" stroke="#222" stroke-width="1.0"/>
<line x1="347.2" y1="134.7" x2="353.1" y2="134.7" stroke="#222" stroke-width="1.0"/>
<line x1="359.5" y1="134.7" x2="353.1" y2="134.7" stroke="#222" stroke-width="1.0"/>
<line x1="359.5" y1="134.7" x2="366.3" y2="134.7" stroke="#222" stroke-width="1.0"/>
<line x1="366.3" y1="134.7" x2="373.5" y2="134.7" stroke="#222" stroke-width="1.0"/>
<line x1="389.0" y1="134.7" x2="373.5" y2="134.7" stroke="#222" stroke-width="1.0"/>
<line x1="389.0" y1="134.7" x2="397.3" y2="134.7" stroke="#222" stroke-width="1.0"/>
<line x1="397.3" y1="134.7" x2="430.3" y2="134.7" stroke="#222" stroke-width="1.0"/>
<line x1="434.0" y1="134.7" x2="438.2" y2="134.7" stroke="#222" stroke-width="1.0"/>
<line x1="438.2" y1="134.7" x2="442.3" y2="134.7" stroke="#222" stroke-width="1.0"/>
<line x1="442.3" y1="134.7" x2="446.0" y2="134.7" stroke="#222" stroke-width="1.0"/>
<line x1="446.0" y1="134.7" x2="449.0" y2="134.7" stroke="#222" stroke-width="1.0"/>
<line x1="449.0" y1="134.7" x2="451.9" y2="134.7" stroke="#222" stroke-width="1.0"/>
<line x1="451.9" y1="134.7" x2="456.3" y2="134.7" stroke="#222" stroke-width="1.0"/>
<line x1="462.8" y1="134.2" x2="461.9" y2="134.4" stroke="#222" stroke-width="1.0"/>
<line x1="461.9" y1="134.4" x2="460.4" y2="134.7" stroke="#222" stroke-width="1.0"/>
<line x1="457.5" y1="134.7" x2="458.9" y2="134.7" stroke="#222" stroke-width="1.0"/>
<line x1="460.4" y1="134.7" x2="458.9" y2="134.7" stroke="#222" stroke-width="1.0"/>
<line x1="456.3" y1="134.7" x2="457.5" y2="134.7" stroke="#222" stroke-width="1.0"/>
<line x1="326.8" y1="114.3" x2="326.8" y2="82.0" stroke="#222" stroke-width="1.0"/>
<line x1="326.8" y1="82.0" x2="326.8" y2="82.0" stroke="#222" stroke-width="1.0"/>
<line x1="334.2" y1="134.3" x2="334.6" y2="134.4" stroke="#222" stroke-width="1.0"/>
<line x1="331.8" y1="133.3" x2="332.7" y2="133.7" stroke="#222" stroke-width="1.0"/>
<line x1="329.8" y1="131.8" x2="330.5" y2="132.4" stroke="#222" stroke-width="1.0"/>
<line x1="328.8" y1="130.5" x2="329.8" y2="131.8" stroke="#222" stroke-width="1.0"/>
<line x1="328.2" y1="129.7" x2="328.8" y2="130.5" stroke="#222" stroke-width="1.0"/>
<line x1="327.2" y1="127.3" x2="327.6" y2="128.2" stroke="#222" stroke-width="1.0"/>
<line x1="326.8" y1="124.7" x2="327.1" y2="126.5" stroke="#222" stroke-width="1.0"/>
<line x1="326.8" y1="124.7" x2="326.8" y2="124.7" stroke="#222" stroke-width="1.0"/>
<line x1="326.8" y1="82.0" x2="327.0" y2="80.7" stroke="#222" stroke-width="1.0"/>
<line x1="327.0" y1="80.7" x2="327.1" y2="79.7" stroke="#222" stroke-width="1.0"/>
<line x1="327.2" y1="79.4" x2="327.1" y2="79.7" stroke="#222" stroke-width="1.0"/>
<line x1="327.2" y1="79.4" x2="327.8" y2="77.9" stroke="#222" stroke-width="1.0"/>
<line x1="333.3" y1="72.7" x2="331.8" y2="73.4" stroke="#222" stroke-width="1.0"/>
<line x1="331.8" y1="73.4" x2="331.1" y2="74.0" stroke="#222" stroke-width="1.0"/>
<line x1="329.8" y1="74.9" x2="329.2" y2="75.7" stroke="#222" stroke-width="1.0"/>
<line x1="329.2" y1="75.7" x2="328.2" y2="77.0" stroke="#222" stroke-width="1.0"/>
<line x1="331.1" y1="74.0" x2="329.8" y2="74.9" stroke="#222" stroke-width="1.0"/>
<line x1="334.2" y1="72.4" x2="333.3" y2="72.7" stroke="#222" stroke-width="1.0"/>
<line x1="328.2" y1="77.0" x2="327.8" y2="77.9" stroke="#222" stroke-width="1.0"/>
<line x1="326.8" y1="114.3" x2="326.8" y2="124.7" stroke="#222" stroke-width="1.0"/>
<line x1="327.2" y1="127.3" x2="327.1" y2="126.5" stroke="#222" stroke-width="1.0"/>
<line x1="327.6" y1="128.2" x2="328.2" y2="129.7" stroke="#222" stroke-width="1.0"/>
<line x1="330.5" y1="132.4" x2="331.8" y2="133.3" stroke="#222" stroke-width="1.0"/>
<line x1="334.2" y1="134.3" x2="332.7" y2="133.7" stroke="#222" stroke-width="1.0"/>
<line x1="335.6" y1="134.6" x2="334.6" y2="134.4" stroke="#222" stroke-width="1.0"/>
<line x1="336.8" y1="134.7" x2="335.6" y2="134.6" stroke="#222" stroke-width="1.0"/>
<line x1="472.0" y1="157.2" x2="471.6" y2="157.2" stroke="#222" stroke-width="1.0"/>
<line x1="471.6" y1="157.2" x2="405.8" y2="157.2" stroke="#222" stroke-width="1.0"/>
<line x1="472.4" y1="157.2" x2="472.0" y2="157.2" stroke="#222" stroke-width="1.0"/>
<line x1="475.6" y1="156.8" x2="472.4" y2="157.2" stroke="#222" stroke-width="1.0"/>
<line x1="475.6" y1="144.9" x2="475.6" y2="156.8" stroke="#222" stroke-width="1.0"/>
<line x1="475.6" y1="135.8" x2="475.6" y2="128.2" stroke="#222" stroke-width="1.0"/>
<line x1="475.6" y1="135.8" x2="475.6" y2="144.9" stroke="#222" stroke-width="1.0"/>
<line x1="474.8" y1="128.8" x2="475.6" y2="128.2" stroke="#222" stroke-width="1.0"/>
<line x1="462.8" y1="134.2" x2="463.0" y2="134.2" stroke="#222" stroke-width="1.0"/>
<line x1="430.3" y1="134.7" x2="434.0" y2="134.7" stroke="#222" stroke-width="1.0"/>
<line x1="475.6" y1="61.3" x2="475.6" y2="70.9" stroke="#222" stroke-width="1.0"/>
<line x1="475.5" y1="78.9" x2="472.9" y2="76.9" stroke="#222" stroke-width="1.0"/>
<line x1="465.7" y1="57.7" x2="461.9" y2="57.1" stroke="#222" stroke-width="1.0"/>
<line x1="465.9" y1="57.7" x2="465.7" y2="57.7" stroke="#222" stroke-width="1.0"/>
<line x1="469.6" y1="58.6" x2="465.9" y2="57.7" stroke="#222" stroke-width="1.0"/>
<line x1="475.6" y1="70.9" x2="475.5" y2="78.9" stroke="#222" stroke-width="1.0"/>
<line x1="469.7" y1="58.6" x2="469.6" y2="58.6" stroke="#222" stroke-width="1.0"/>
<line x1="473.4" y1="60.1" x2="475.6" y2="61.3" stroke="#222" stroke-width="1.0"/>
<line x1="461.9" y1="57.1" x2="461.6" y2="57.1" stroke="#222" stroke-width="1.0"/>
<line x1="467.7" y1="74.2" x2="462.8" y2="72.8" stroke="#222" stroke-width="1.0"/>
<line x1="456.1" y1="72.0" x2="457.1" y2="72.1" stroke="#222" stroke-width="1.0"/>
<line x1="451.8" y1="56.4" x2="451.2" y2="56.3" stroke="#222" stroke-width="1.0"/>
<line x1="446.2" y1="56.2" x2="445.3" y2="56.2" stroke="#222" stroke-width="1.0"/>
<line x1="440.0" y1="56.1" x2="439.4" y2="56.1" stroke="#222" stroke-width="1.0"/>
<line x1="439.4" y1="56.1" x2="438.7" y2="56.1" stroke="#222" stroke-width="1.0"/>
<line x1="433.0" y1="56.1" x2="432.1" y2="56.1" stroke="#222" stroke-width="1.0"/>
<line x1="428.6" y1="56.0" x2="427.5" y2="56.0" stroke="#222" stroke-width="1.0"/>
<line x1="427.5" y1="56.0" x2="423.5" y2="56.0" stroke="#222" stroke-width="1.0"/>
<line x1="417.5" y1="56.0" x2="416.0" y2="56.0" stroke="#222" stroke-width="1.0"/>
<line x1="389.2" y1="72.0" x2="374.9" y2="72.0" stroke="#222" stroke-width="1.0"/>
<line x1="369.0" y1="56.0" x2="360.8" y2="56.0" stroke="#222" stroke-width="1.0"/>
<line x1="321.1" y1="56.0" x2="326.9" y2="56.0" stroke="#222" stroke-width="1.0"/>
<line x1="310.1" y1="51.7" x2="310.1" y2="56.0" stroke="#222" stroke-width="1.0"/>
<line x1="310.0" y1="47.3" x2="310.1" y2="48.5" stroke="#222" stroke-width="1.0"/>
<line x1="309.6" y1="45.0" x2="309.3" y2="44.1" stroke="#222" stroke-width="1.0"/>
<line x1="308.2" y1="41.8" x2="308.6" y2="42.5" stroke="#222" stroke-width="1.0"/>
<line x1="305.8" y1="39.1" x2="306.4" y2="39.7" stroke="#222" stroke-width="1.0"/>
<line x1="91.3" y1="48.0" x2="102.0" y2="58.5" stroke="#222" stroke-width="1.0"/>
<line x1="166.5" y1="61.0" x2="269.7" y2="61.0" stroke="#222" stroke-width="1.0"/>
<line x1="269.7" y1="60.1" x2="269.7" y2="61.0" stroke="#222" stroke-width="1.0"/>
<line x1="269.7" y1="60.1" x2="269.7" y2="58.5" stroke="#222" stroke-width="1.0"/>
<line x1="296.3" y1="46.0" x2="291.9" y2="46.0" stroke="#222" stroke-width="1.0"/>
<line x1="296.3" y1="63.1" x2="296.3" y2="46.0" stroke="#222" stroke-width="1.0"/>
<line x1="296.3" y1="246.0" x2="296.3" y2="175.6" stroke="#222" stroke-width="1.0"/>
<line x1="308.2" y1="246.0" x2="296.3" y2="246.0" stroke="#222" stroke-width="1.0"/>
<line x1="405.8" y1="157.2" x2="310.1" y2="157.2" stroke="#222" stroke-width="1.0"/>
<line x1="334.2" y1="72.4" x2="335.1" y2="72.3" stroke="#222" stroke-width="1.0"/>
<line x1="348.7" y1="72.0" x2="336.8" y2="72.0" stroke="#222" stroke-width="1.0"/>
<line x1="428.8" y1="72.0" x2="404.3" y2="72.0" stroke="#222" stroke-width="1.0"/>
<line x1="395.3" y1="56.0" x2="391.4" y2="56.0" stroke="#222" stroke-width="1.0"/>
<line x1="391.4" y1="56.0" x2="387.6" y2="56.0" stroke="#222" stroke-width="1.0"/>
<line x1="370.8" y1="56.0" x2="372.8" y2="56.0" stroke="#222" stroke-width="1.0"/>
<line x1="369.0" y1="56.0" x2="370.8" y2="56.0" stroke="#222" stroke-width="1.0"/>
<line x1="360.8" y1="56.0" x2="359.0" y2="56.0" stroke="#222" stroke-width="1.0"/>
<line x1="359.0" y1="56.0" x2="357.4" y2="56.0" stroke="#222" stroke-width="1.0"/>
<line x1="16.0" y1="206.0" x2="366.0" y2="206.0" stroke="#0a0" stroke-width="1.2"/>
<line x1="103.5" y1="246.0" x2="103.5" y2="206.0" stroke="#c60" stroke-width="1.0"/>
<line x1="268.5" y1="246.0" x2="268.5" y2="206.0" stroke="#c60" stroke-width="1.0"/>
<text x="26.0" y="31.0" font-size="9" fill="#000" text-anchor="start" font-family="monospace">x_n=+28; green DAT-F; orange beam</text>
</svg>
