<svg xmlns="http://www.w3.org/2000/svg" width="382" height="282" viewBox="0 0 382 282">
<rect width="100%" height="100%" fill="white"/>
<text x="8" y="12" font-size="11" font-family="monospace" fill="#000">D-25 x_n=+36 | lateral vs y_n | interior crop</text>
<line x1="317.3" y1="229.2" x2="317.3" y2="246.0" stroke="#222" stroke-width="1.0"/>
<line x1="317.3" y1="246.0" x2="314.1" y2="246.0" stroke="#222" stroke-width="1.0"/>
<line x1="314.1" y1="246.0" x2="303.6" y2="246.0" stroke="#222" stroke-width="1.0"/>
<line x1="303.6" y1="246.0" x2="303.6" y2="182.9" stroke="#222" stroke-width="1.0"/>
<line x1="303.6" y1="96.9" x2="303.6" y2="46.0" stroke="#222" stroke-width="1.0"/>
<line x1="295.4" y1="46.0" x2="303.6" y2="46.0" stroke="#222" stroke-width="1.0"/>
<line x1="338.9" y1="74.1" x2="338.9" y2="74.1" stroke="#222" stroke-width="1.0"/>
<line x1="338.9" y1="74.1" x2="336.7" y2="74.4" stroke="#222" stroke-width="1.0"/>
<line x1="336.7" y1="74.4" x2="336.3" y2="74.5" stroke="#222" stroke-width="1.0"/>
<line x1="317.3" y1="222.9" x2="317.3" y2="207.8" stroke="#222" stroke-width="1.0"/>
<line x1="317.3" y1="163.8" x2="317.3" y2="207.8" stroke="#222" stroke-width="1.0"/>
<line x1="274.0" y1="58.5" x2="278.0" y2="54.6" stroke="#222" stroke-width="1.0"/>
<line x1="278.0" y1="54.6" x2="286.5" y2="46.0" stroke="#222" stroke-width="1.0"/>
<line x1="274.0" y1="59.0" x2="274.0" y2="61.0" stroke="#222" stroke-width="1.0"/>
<line x1="242.5" y1="61.0" x2="274.0" y2="61.0" stroke="#222" stroke-width="1.0"/>
<line x1="97.7" y1="60.5" x2="97.7" y2="61.0" stroke="#222" stroke-width="1.0"/>
<line x1="97.7" y1="60.5" x2="97.7" y2="58.5" stroke="#222" stroke-width="1.0"/>
<line x1="311.5" y1="38.0" x2="312.0" y2="38.4" stroke="#222" stroke-width="1.0"/>
<line x1="312.0" y1="38.4" x2="313.1" y2="39.2" stroke="#222" stroke-width="1.0"/>
<line x1="313.1" y1="39.2" x2="313.6" y2="39.7" stroke="#222" stroke-width="1.0"/>
<line x1="314.4" y1="40.5" x2="314.8" y2="41.0" stroke="#222" stroke-width="1.0"/>
<line x1="314.8" y1="41.0" x2="315.4" y2="42.0" stroke="#222" stroke-width="1.0"/>
<line x1="315.7" y1="42.5" x2="315.4" y2="42.0" stroke="#222" stroke-width="1.0"/>
<line x1="316.2" y1="43.5" x2="316.5" y2="44.1" stroke="#222" stroke-width="1.0"/>
<line x1="316.8" y1="45.1" x2="316.5" y2="44.1" stroke="#222" stroke-width="1.0"/>
<line x1="76.3" y1="46.0" x2="85.2" y2="46.0" stroke="#222" stroke-width="1.0"/>
<line x1="93.7" y1="54.6" x2="85.2" y2="46.0" stroke="#222" stroke-width="1.0"/>
<line x1="290.9" y1="36.0" x2="275.1" y2="36.0" stroke="#222" stroke-width="1.0"/>
<line x1="268.8" y1="36.0" x2="275.1" y2="36.0" stroke="#222" stroke-width="1.0"/>
<line x1="307.9" y1="36.5" x2="306.6" y2="36.2" stroke="#222" stroke-width="1.0"/>
<line x1="307.9" y1="36.5" x2="308.5" y2="36.6" stroke="#222" stroke-width="1.0"/>
<line x1="308.5" y1="36.6" x2="309.8" y2="37.1" stroke="#222" stroke-width="1.0"/>
<line x1="68.2" y1="246.0" x2="68.2" y2="209.1" stroke="#222" stroke-width="1.0"/>
<line x1="68.2" y1="209.1" x2="68.2" y2="146.0" stroke="#222" stroke-width="1.0"/>
<line x1="68.2" y1="96.9" x2="68.2" y2="146.0" stroke="#222" stroke-width="1.0"/>
<line x1="68.2" y1="46.0" x2="68.2" y2="96.9" stroke="#222" stroke-width="1.0"/>
<line x1="58.7" y1="39.2" x2="59.7" y2="38.4" stroke="#222" stroke-width="1.0"/>
<line x1="59.7" y1="38.4" x2="60.4" y2="38.0" stroke="#222" stroke-width="1.0"/>
<line x1="60.4" y1="38.0" x2="61.4" y2="37.3" stroke="#222" stroke-width="1.0"/>
<line x1="61.4" y1="37.3" x2="62.1" y2="37.1" stroke="#222" stroke-width="1.0"/>
<line x1="62.1" y1="37.1" x2="63.2" y2="36.6" stroke="#222" stroke-width="1.0"/>
<line x1="177.3" y1="56.0" x2="264.0" y2="56.0" stroke="#222" stroke-width="1.0"/>
<line x1="264.0" y1="47.0" x2="264.0" y2="56.0" stroke="#222" stroke-width="1.0"/>
<line x1="264.0" y1="47.0" x2="264.0" y2="36.0" stroke="#222" stroke-width="1.0"/>
<line x1="54.5" y1="240.6" x2="54.5" y2="246.0" stroke="#222" stroke-width="1.0"/>
<line x1="62.3" y1="246.0" x2="54.5" y2="246.0" stroke="#222" stroke-width="1.0"/>
<line x1="44.6" y1="77.0" x2="44.5" y2="77.0" stroke="#222" stroke-width="1.0"/>
<line x1="44.5" y1="77.0" x2="42.5" y2="75.5" stroke="#222" stroke-width="1.0"/>
<line x1="42.5" y1="75.5" x2="42.5" y2="75.4" stroke="#222" stroke-width="1.0"/>
<line x1="42.5" y1="75.4" x2="40.1" y2="74.5" stroke="#222" stroke-width="1.0"/>
<line x1="40.1" y1="74.5" x2="40.1" y2="74.5" stroke="#222" stroke-width="1.0"/>
<line x1="8.4" y1="56.0" x2="3.4" y2="56.0" stroke="#222" stroke-width="1.0"/>
<line x1="3.4" y1="56.0" x2="-1.3" y2="56.0" stroke="#222" stroke-width="1.0"/>
<line x1="-1.3" y1="56.0" x2="-11.1" y2="56.0" stroke="#222" stroke-width="1.0"/>
<line x1="18.1" y1="74.1" x2="10.4" y2="74.1" stroke="#222" stroke-width="1.0"/>
<line x1="10.4" y1="74.1" x2="6.3" y2="74.1" stroke="#222" stroke-width="1.0"/>
<line x1="2.0" y1="74.1" x2="6.3" y2="74.1" stroke="#222" stroke-width="1.0"/>
<line x1="2.0" y1="74.1" x2="-65.2" y2="74.1" stroke="#222" stroke-width="1.0"/>
<line x1="-65.2" y1="74.1" x2="-68.9" y2="74.1" stroke="#222" stroke-width="1.0"/>
<line x1="-72.5" y1="74.1" x2="-68.9" y2="74.1" stroke="#222" stroke-width="1.0"/>
<line x1="-72.5" y1="74.1" x2="-75.8" y2="74.1" stroke="#222" stroke-width="1.0"/>
<line x1="-75.8" y1="74.1" x2="-78.9" y2="74.1" stroke="#222" stroke-width="1.0"/>
<line x1="-81.7" y1="74.1" x2="-78.9" y2="74.1" stroke="#222" stroke-width="1.0"/>
<line x1="-81.7" y1="74.1" x2="-84.4" y2="74.1" stroke="#222" stroke-width="1.0"/>
<line x1="-88.1" y1="74.5" x2="-84.4" y2="74.1" stroke="#222" stroke-width="1.0"/>
<line x1="-15.4" y1="56.0" x2="-19.3" y2="56.0" stroke="#222" stroke-width="1.0"/>
<line x1="-22.9" y1="56.0" x2="-19.3" y2="56.0" stroke="#222" stroke-width="1.0"/>
<line x1="-22.9" y1="56.0" x2="-27.8" y2="56.0" stroke="#222" stroke-width="1.0"/>
<line x1="-27.8" y1="56.0" x2="-31.1" y2="56.0" stroke="#222" stroke-width="1.0"/>
<line x1="-31.1" y1="56.0" x2="-36.1" y2="56.0" stroke="#222" stroke-width="1.0"/>
<line x1="-41.8" y1="56.0" x2="-44.2" y2="56.0" stroke="#222" stroke-width="1.0"/>
<line x1="-36.1" y1="56.0" x2="-39.1" y2="56.0" stroke="#222" stroke-width="1.0"/>
<line x1="-39.1" y1="56.0" x2="-41.8" y2="56.0" stroke="#222" stroke-width="1.0"/>
<line x1="-44.2" y1="56.0" x2="-46.7" y2="56.0" stroke="#222" stroke-width="1.0"/>
<line x1="-46.7" y1="56.0" x2="-49.0" y2="56.0" stroke="#222" stroke-width="1.0"/>
<line x1="-51.2" y1="56.0" x2="-53.3" y2="56.0" stroke="#222" stroke-width="1.0"/>
<line x1="-49.0" y1="56.0" x2="-51.2" y2="56.0" stroke="#222" stroke-width="1.0"/>
<line x1="-53.3" y1="56.0" x2="-55.4" y2="56.0" stroke="#222" stroke-width="1.0"/>
<line x1="-55.4" y1="56.0" x2="-57.3" y2="56.0" stroke="#222" stroke-width="1.0"/>
<line x1="-57.3" y1="56.0" x2="-59.2" y2="56.0" stroke="#222" stroke-width="1.0"/>
<line x1="-59.2" y1="56.0" x2="-61.0" y2="56.0" stroke="#222" stroke-width="1.0"/>
<line x1="-62.6" y1="56.0" x2="-64.3" y2="56.1" stroke="#222" stroke-width="1.0"/>
<line x1="-61.0" y1="56.0" x2="-62.6" y2="56.0" stroke="#222" stroke-width="1.0"/>
<line x1="-64.3" y1="56.1" x2="-67.2" y2="56.1" stroke="#222" stroke-width="1.0"/>
<line x1="-67.2" y1="56.1" x2="-68.7" y2="56.1" stroke="#222" stroke-width="1.0"/>
<line x1="-70.1" y1="56.1" x2="-71.4" y2="56.1" stroke="#222" stroke-width="1.0"/>
<line x1="-68.7" y1="56.1" x2="-70.1" y2="56.1" stroke="#222" stroke-width="1.0"/>
<line x1="-71.4" y1="56.1" x2="-73.6" y2="56.2" stroke="#222" stroke-width="1.0"/>
<line x1="-73.6" y1="56.2" x2="-74.8" y2="56.2" stroke="#222" stroke-width="1.0"/>
<line x1="-74.8" y1="56.2" x2="-76.7" y2="56.2" stroke="#222" stroke-width="1.0"/>
<line x1="-76.7" y1="56.2" x2="-78.5" y2="56.3" stroke="#222" stroke-width="1.0"/>
<line x1="-78.5" y1="56.3" x2="-80.0" y2="56.3" stroke="#222" stroke-width="1.0"/>
<line x1="-80.0" y1="56.3" x2="-83.9" y2="56.5" stroke="#222" stroke-width="1.0"/>
<line x1="-83.9" y1="56.5" x2="-85.1" y2="56.6" stroke="#222" stroke-width="1.0"/>
<line x1="-85.1" y1="56.6" x2="-87.2" y2="56.8" stroke="#222" stroke-width="1.0"/>
<line x1="-87.2" y1="56.8" x2="-90.9" y2="57.2" stroke="#222" stroke-width="1.0"/>
<line x1="-90.1" y1="74.7" x2="-89.0" y2="74.5" stroke="#222" stroke-width="1.0"/>
<line x1="-91.1" y1="75.0" x2="-90.1" y2="74.7" stroke="#222" stroke-width="1.0"/>
<line x1="-94.5" y1="75.9" x2="-91.1" y2="75.0" stroke="#222" stroke-width="1.0"/>
<line x1="-95.6" y1="76.3" x2="-94.5" y2="75.9" stroke="#222" stroke-width="1.0"/>
<line x1="-99.7" y1="78.4" x2="-98.7" y2="77.9" stroke="#222" stroke-width="1.0"/>
<line x1="-100.6" y1="79.0" x2="-99.7" y2="78.4" stroke="#222" stroke-width="1.0"/>
<line x1="-103.3" y1="81.1" x2="-100.6" y2="79.0" stroke="#222" stroke-width="1.0"/>
<line x1="-118.9" y1="75.5" x2="-119.6" y2="76.5" stroke="#222" stroke-width="1.0"/>
<line x1="-119.6" y1="76.5" x2="-121.7" y2="79.2" stroke="#222" stroke-width="1.0"/>
<line x1="-122.9" y1="145.3" x2="-120.8" y2="147.3" stroke="#222" stroke-width="1.0"/>
<line x1="-120.4" y1="147.7" x2="-120.8" y2="147.3" stroke="#222" stroke-width="1.0"/>
<line x1="-109.6" y1="156.6" x2="-109.4" y2="156.7" stroke="#222" stroke-width="1.0"/>
<line x1="-109.4" y1="156.7" x2="-109.1" y2="157.0" stroke="#222" stroke-width="1.0"/>
<line x1="-107.8" y1="158.0" x2="-109.1" y2="157.0" stroke="#222" stroke-width="1.0"/>
<line x1="-107.8" y1="158.0" x2="-106.4" y2="158.9" stroke="#222" stroke-width="1.0"/>
<line x1="-106.4" y1="158.9" x2="-106.3" y2="159.0" stroke="#222" stroke-width="1.0"/>
<line x1="-106.3" y1="159.0" x2="-106.3" y2="159.0" stroke="#222" stroke-width="1.0"/>
<line x1="-106.3" y1="159.0" x2="-104.8" y2="160.0" stroke="#222" stroke-width="1.0"/>
<line x1="-113.8" y1="153.3" x2="-112.2" y2="154.6" stroke="#222" stroke-width="1.0"/>
<line x1="-117.6" y1="150.1" x2="-115.5" y2="151.9" stroke="#222" stroke-width="1.0"/>
<line x1="-117.6" y1="150.1" x2="-119.8" y2="148.2" stroke="#222" stroke-width="1.0"/>
<line x1="-113.7" y1="102.1" x2="-113.6" y2="100.6" stroke="#222" stroke-width="1.0"/>
<line x1="-113.6" y1="100.6" x2="-113.4" y2="99.3" stroke="#222" stroke-width="1.0"/>
<line x1="-113.4" y1="99.3" x2="-112.9" y2="96.5" stroke="#222" stroke-width="1.0"/>
<line x1="-112.9" y1="96.5" x2="-112.6" y2="95.2" stroke="#222" stroke-width="1.0"/>
<line x1="-113.3" y1="68.9" x2="-115.7" y2="71.7" stroke="#222" stroke-width="1.0"/>
<line x1="-115.7" y1="71.7" x2="-116.6" y2="72.7" stroke="#222" stroke-width="1.0"/>
<line x1="-111.1" y1="91.3" x2="-110.0" y2="89.3" stroke="#222" stroke-width="1.0"/>
<line x1="-110.0" y1="89.3" x2="-108.4" y2="86.6" stroke="#222" stroke-width="1.0"/>
<line x1="-108.4" y1="86.6" x2="-107.8" y2="85.8" stroke="#222" stroke-width="1.0"/>
<line x1="-106.2" y1="62.7" x2="-108.8" y2="64.7" stroke="#222" stroke-width="1.0"/>
<line x1="-104.9" y1="82.6" x2="-104.1" y2="81.8" stroke="#222" stroke-width="1.0"/>
<line x1="-107.1" y1="84.9" x2="-104.9" y2="82.6" stroke="#222" stroke-width="1.0"/>
<line x1="-101.8" y1="60.2" x2="-104.6" y2="61.7" stroke="#222" stroke-width="1.0"/>
<line x1="-104.6" y1="61.7" x2="-105.3" y2="62.1" stroke="#222" stroke-width="1.0"/>
<line x1="-100.4" y1="59.6" x2="-101.8" y2="60.2" stroke="#222" stroke-width="1.0"/>
<line x1="-96.0" y1="58.1" x2="-97.5" y2="58.5" stroke="#222" stroke-width="1.0"/>
<line x1="-92.7" y1="57.5" x2="-96.0" y2="58.1" stroke="#222" stroke-width="1.0"/>
<line x1="-107.8" y1="85.8" x2="-107.1" y2="84.9" stroke="#222" stroke-width="1.0"/>
<line x1="-127.5" y1="139.2" x2="-127.5" y2="124.8" stroke="#222" stroke-width="1.0"/>
<line x1="-127.5" y1="88.3" x2="-127.5" y2="124.8" stroke="#222" stroke-width="1.0"/>
<line x1="-124.0" y1="82.4" x2="-125.6" y2="84.9" stroke="#222" stroke-width="1.0"/>
<line x1="-125.6" y1="84.9" x2="-125.8" y2="85.2" stroke="#222" stroke-width="1.0"/>
<line x1="-125.2" y1="143.0" x2="-123.2" y2="145.1" stroke="#222" stroke-width="1.0"/>
<line x1="-125.2" y1="143.0" x2="-125.3" y2="142.9" stroke="#222" stroke-width="1.0"/>
<line x1="-89.0" y1="132.5" x2="-86.6" y2="132.8" stroke="#222" stroke-width="1.0"/>
<line x1="-86.6" y1="132.8" x2="-84.4" y2="132.9" stroke="#222" stroke-width="1.0"/>
<line x1="-81.5" y1="132.9" x2="-84.4" y2="132.9" stroke="#222" stroke-width="1.0"/>
<line x1="-81.5" y1="132.9" x2="-78.4" y2="132.9" stroke="#222" stroke-width="1.0"/>
<line x1="-78.4" y1="132.9" x2="-75.1" y2="132.9" stroke="#222" stroke-width="1.0"/>
<line x1="-71.4" y1="132.9" x2="-75.1" y2="132.9" stroke="#222" stroke-width="1.0"/>
<line x1="-71.4" y1="132.9" x2="-67.5" y2="132.9" stroke="#222" stroke-width="1.0"/>
<line x1="-67.5" y1="132.9" x2="-63.4" y2="132.9" stroke="#222" stroke-width="1.0"/>
<line x1="-63.4" y1="132.9" x2="-9.1" y2="132.9" stroke="#222" stroke-width="1.0"/>
<line x1="-9.1" y1="132.9" x2="2.0" y2="132.9" stroke="#222" stroke-width="1.0"/>
<line x1="-102.9" y1="161.0" x2="-103.2" y2="160.8" stroke="#222" stroke-width="1.0"/>
<line x1="-104.6" y1="160.1" x2="-103.2" y2="160.8" stroke="#222" stroke-width="1.0"/>
<line x1="-102.9" y1="161.0" x2="-101.5" y2="161.6" stroke="#222" stroke-width="1.0"/>
<line x1="-101.5" y1="161.6" x2="-101.0" y2="161.8" stroke="#222" stroke-width="1.0"/>
<line x1="-101.0" y1="161.8" x2="-99.7" y2="162.3" stroke="#222" stroke-width="1.0"/>
<line x1="-99.2" y1="162.5" x2="-98.1" y2="162.8" stroke="#222" stroke-width="1.0"/>
<line x1="-97.5" y1="163.0" x2="-98.1" y2="162.8" stroke="#222" stroke-width="1.0"/>
<line x1="-97.5" y1="163.0" x2="-96.5" y2="163.2" stroke="#222" stroke-width="1.0"/>
<line x1="20.0" y1="163.8" x2="54.5" y2="163.8" stroke="#222" stroke-width="1.0"/>
<line x1="20.0" y1="163.8" x2="-69.4" y2="163.8" stroke="#222" stroke-width="1.0"/>
<line x1="-88.1" y1="163.8" x2="-69.4" y2="163.8" stroke="#222" stroke-width="1.0"/>
<line x1="44.6" y1="130.0" x2="44.6" y2="129.9" stroke="#222" stroke-width="1.0"/>
<line x1="44.6" y1="129.9" x2="46.2" y2="127.9" stroke="#222" stroke-width="1.0"/>
<line x1="46.2" y1="127.9" x2="46.2" y2="127.9" stroke="#222" stroke-width="1.0"/>
<line x1="46.2" y1="127.9" x2="47.1" y2="125.5" stroke="#222" stroke-width="1.0"/>
<line x1="47.1" y1="125.5" x2="47.2" y2="125.5" stroke="#222" stroke-width="1.0"/>
<line x1="46.2" y1="79.1" x2="46.2" y2="79.1" stroke="#222" stroke-width="1.0"/>
<line x1="46.2" y1="79.1" x2="44.6" y2="77.1" stroke="#222" stroke-width="1.0"/>
<line x1="40.0" y1="74.5" x2="38.8" y2="74.3" stroke="#222" stroke-width="1.0"/>
<line x1="38.8" y1="74.3" x2="38.2" y2="74.2" stroke="#222" stroke-width="1.0"/>
<line x1="37.5" y1="74.1" x2="38.2" y2="74.2" stroke="#222" stroke-width="1.0"/>
<line x1="37.5" y1="74.1" x2="37.5" y2="74.1" stroke="#222" stroke-width="1.0"/>
<line x1="34.7" y1="74.1" x2="37.5" y2="74.1" stroke="#222" stroke-width="1.0"/>
<line x1="34.7" y1="74.1" x2="31.7" y2="74.1" stroke="#222" stroke-width="1.0"/>
<line x1="31.7" y1="74.1" x2="25.2" y2="74.1" stroke="#222" stroke-width="1.0"/>
<line x1="23.1" y1="56.0" x2="18.5" y2="56.0" stroke="#222" stroke-width="1.0"/>
<line x1="23.1" y1="56.0" x2="40.7" y2="56.0" stroke="#222" stroke-width="1.0"/>
<line x1="40.7" y1="56.0" x2="43.7" y2="56.0" stroke="#222" stroke-width="1.0"/>
<line x1="54.5" y1="53.9" x2="54.4" y2="48.5" stroke="#222" stroke-width="1.0"/>
<line x1="54.4" y1="48.5" x2="54.6" y2="47.0" stroke="#222" stroke-width="1.0"/>
<line x1="55.5" y1="43.5" x2="56.0" y2="42.5" stroke="#222" stroke-width="1.0"/>
<line x1="56.0" y1="42.5" x2="56.4" y2="41.9" stroke="#222" stroke-width="1.0"/>
<line x1="56.4" y1="41.9" x2="57.0" y2="41.0" stroke="#222" stroke-width="1.0"/>
<line x1="57.0" y1="41.0" x2="57.4" y2="40.5" stroke="#222" stroke-width="1.0"/>
<line x1="57.4" y1="40.5" x2="58.2" y2="39.7" stroke="#222" stroke-width="1.0"/>
<line x1="80.8" y1="36.0" x2="67.1" y2="36.0" stroke="#222" stroke-width="1.0"/>
<line x1="66.1" y1="36.1" x2="67.1" y2="36.0" stroke="#222" stroke-width="1.0"/>
<line x1="66.1" y1="36.1" x2="65.2" y2="36.2" stroke="#222" stroke-width="1.0"/>
<line x1="64.0" y1="36.4" x2="65.2" y2="36.2" stroke="#222" stroke-width="1.0"/>
<line x1="80.8" y1="36.0" x2="96.6" y2="36.0" stroke="#222" stroke-width="1.0"/>
<line x1="103.0" y1="36.0" x2="96.6" y2="36.0" stroke="#222" stroke-width="1.0"/>
<line x1="103.0" y1="36.0" x2="107.8" y2="36.0" stroke="#222" stroke-width="1.0"/>
<line x1="107.8" y1="45.0" x2="107.8" y2="36.0" stroke="#222" stroke-width="1.0"/>
<line x1="107.8" y1="45.0" x2="107.8" y2="56.0" stroke="#222" stroke-width="1.0"/>
<line x1="52.4" y1="56.0" x2="54.5" y2="56.0" stroke="#222" stroke-width="1.0"/>
<line x1="47.5" y1="84.1" x2="47.2" y2="81.6" stroke="#222" stroke-width="1.0"/>
<line x1="47.5" y1="84.1" x2="47.5" y2="84.1" stroke="#222" stroke-width="1.0"/>
<line x1="47.5" y1="106.8" x2="47.5" y2="84.1" stroke="#222" stroke-width="1.0"/>
<line x1="47.5" y1="106.8" x2="47.5" y2="122.9" stroke="#222" stroke-width="1.0"/>
<line x1="47.5" y1="122.9" x2="47.4" y2="123.6" stroke="#222" stroke-width="1.0"/>
<line x1="47.3" y1="124.2" x2="47.4" y2="123.6" stroke="#222" stroke-width="1.0"/>
<line x1="34.7" y1="132.9" x2="31.7" y2="132.9" stroke="#222" stroke-width="1.0"/>
<line x1="25.2" y1="132.9" x2="31.7" y2="132.9" stroke="#222" stroke-width="1.0"/>
<line x1="-99.6" y1="128.6" x2="-98.7" y2="129.1" stroke="#222" stroke-width="1.0"/>
<line x1="-98.7" y1="129.1" x2="-95.6" y2="130.7" stroke="#222" stroke-width="1.0"/>
<line x1="-103.2" y1="126.0" x2="-100.6" y2="128.0" stroke="#222" stroke-width="1.0"/>
<line x1="-107.0" y1="122.1" x2="-104.9" y2="124.5" stroke="#222" stroke-width="1.0"/>
<line x1="-104.9" y1="124.5" x2="-104.1" y2="125.3" stroke="#222" stroke-width="1.0"/>
<line x1="-110.0" y1="117.8" x2="-108.4" y2="120.4" stroke="#222" stroke-width="1.0"/>
<line x1="-110.6" y1="116.8" x2="-110.0" y2="117.8" stroke="#222" stroke-width="1.0"/>
<line x1="-112.2" y1="112.9" x2="-111.1" y2="115.7" stroke="#222" stroke-width="1.0"/>
<line x1="-112.6" y1="111.7" x2="-112.2" y2="112.9" stroke="#222" stroke-width="1.0"/>
<line x1="-112.9" y1="110.5" x2="-112.6" y2="111.7" stroke="#222" stroke-width="1.0"/>
<line x1="-113.4" y1="107.6" x2="-112.9" y2="110.5" stroke="#222" stroke-width="1.0"/>
<line x1="-127.2" y1="140.5" x2="-127.5" y2="139.9" stroke="#222" stroke-width="1.0"/>
<line x1="-127.1" y1="140.6" x2="-127.2" y2="140.5" stroke="#222" stroke-width="1.0"/>
<line x1="-125.5" y1="142.7" x2="-127.1" y2="140.6" stroke="#222" stroke-width="1.0"/>
<line x1="-95.6" y1="130.7" x2="-94.5" y2="131.1" stroke="#222" stroke-width="1.0"/>
<line x1="-94.5" y1="131.1" x2="-91.1" y2="132.0" stroke="#222" stroke-width="1.0"/>
<line x1="-91.1" y1="132.0" x2="-90.1" y2="132.3" stroke="#222" stroke-width="1.0"/>
<line x1="-100.6" y1="128.0" x2="-99.6" y2="128.6" stroke="#222" stroke-width="1.0"/>
<line x1="6.3" y1="132.9" x2="10.4" y2="132.9" stroke="#222" stroke-width="1.0"/>
<line x1="18.1" y1="132.9" x2="10.4" y2="132.9" stroke="#222" stroke-width="1.0"/>
<line x1="18.1" y1="132.9" x2="25.2" y2="132.9" stroke="#222" stroke-width="1.0"/>
<line x1="34.7" y1="132.9" x2="37.5" y2="132.9" stroke="#222" stroke-width="1.0"/>
<line x1="37.5" y1="132.9" x2="40.0" y2="132.5" stroke="#222" stroke-width="1.0"/>
<line x1="40.1" y1="132.5" x2="42.5" y2="131.6" stroke="#222" stroke-width="1.0"/>
<line x1="40.1" y1="132.5" x2="40.1" y2="132.5" stroke="#222" stroke-width="1.0"/>
<line x1="42.5" y1="131.5" x2="44.5" y2="130.0" stroke="#222" stroke-width="1.0"/>
<line x1="47.2" y1="125.4" x2="47.3" y2="124.2" stroke="#222" stroke-width="1.0"/>
<line x1="47.5" y1="122.9" x2="47.5" y2="122.9" stroke="#222" stroke-width="1.0"/>
<line x1="54.8" y1="45.7" x2="54.9" y2="45.1" stroke="#222" stroke-width="1.0"/>
<line x1="55.5" y1="43.5" x2="55.3" y2="44.1" stroke="#222" stroke-width="1.0"/>
<line x1="55.3" y1="44.1" x2="54.9" y2="45.1" stroke="#222" stroke-width="1.0"/>
<line x1="54.6" y1="47.0" x2="54.8" y2="45.7" stroke="#222" stroke-width="1.0"/>
<line x1="54.5" y1="53.9" x2="54.5" y2="56.0" stroke="#222" stroke-width="1.0"/>
<line x1="49.0" y1="56.0" x2="52.4" y2="56.0" stroke="#222" stroke-width="1.0"/>
<line x1="46.2" y1="56.0" x2="49.0" y2="56.0" stroke="#222" stroke-width="1.0"/>
<line x1="43.7" y1="56.0" x2="46.2" y2="56.0" stroke="#222" stroke-width="1.0"/>
<line x1="47.1" y1="81.5" x2="46.2" y2="79.1" stroke="#222" stroke-width="1.0"/>
<line x1="47.2" y1="81.5" x2="47.1" y2="81.5" stroke="#222" stroke-width="1.0"/>
<line x1="47.2" y1="81.6" x2="47.2" y2="81.5" stroke="#222" stroke-width="1.0"/>
<line x1="47.2" y1="125.5" x2="47.2" y2="125.4" stroke="#222" stroke-width="1.0"/>
<line x1="44.5" y1="130.0" x2="44.6" y2="130.0" stroke="#222" stroke-width="1.0"/>
<line x1="-94.0" y1="163.6" x2="-94.9" y2="163.5" stroke="#222" stroke-width="1.0"/>
<line x1="-94.0" y1="163.6" x2="-93.3" y2="163.7" stroke="#222" stroke-width="1.0"/>
<line x1="-92.5" y1="163.8" x2="-93.3" y2="163.7" stroke="#222" stroke-width="1.0"/>
<line x1="-92.5" y1="163.8" x2="-91.9" y2="163.8" stroke="#222" stroke-width="1.0"/>
<line x1="-90.8" y1="163.8" x2="-91.9" y2="163.8" stroke="#222" stroke-width="1.0"/>
<line x1="-90.8" y1="163.8" x2="-90.7" y2="163.8" stroke="#222" stroke-width="1.0"/>
<line x1="-90.7" y1="163.8" x2="-88.1" y2="163.8" stroke="#222" stroke-width="1.0"/>
<line x1="-95.8" y1="163.3" x2="-94.9" y2="163.5" stroke="#222" stroke-width="1.0"/>
<line x1="-95.8" y1="163.3" x2="-96.5" y2="163.2" stroke="#222" stroke-width="1.0"/>
<line x1="-99.2" y1="162.5" x2="-99.7" y2="162.3" stroke="#222" stroke-width="1.0"/>
<line x1="42.5" y1="131.6" x2="42.5" y2="131.5" stroke="#222" stroke-width="1.0"/>
<line x1="40.0" y1="132.5" x2="40.1" y2="132.5" stroke="#222" stroke-width="1.0"/>
<line x1="37.5" y1="132.9" x2="37.5" y2="132.9" stroke="#222" stroke-width="1.0"/>
<line x1="2.0" y1="132.9" x2="6.3" y2="132.9" stroke="#222" stroke-width="1.0"/>
<line x1="-90.1" y1="132.3" x2="-89.0" y2="132.5" stroke="#222" stroke-width="1.0"/>
<line x1="-125.3" y1="142.9" x2="-125.5" y2="142.7" stroke="#222" stroke-width="1.0"/>
<line x1="-127.5" y1="139.2" x2="-127.5" y2="139.9" stroke="#222" stroke-width="1.0"/>
<line x1="-125.8" y1="85.2" x2="-127.5" y2="88.3" stroke="#222" stroke-width="1.0"/>
<line x1="-112.1" y1="94.0" x2="-111.1" y2="91.3" stroke="#222" stroke-width="1.0"/>
<line x1="-109.8" y1="65.5" x2="-112.3" y2="68.0" stroke="#222" stroke-width="1.0"/>
<line x1="-112.6" y1="95.2" x2="-112.1" y2="94.0" stroke="#222" stroke-width="1.0"/>
<line x1="-113.7" y1="102.1" x2="-113.7" y2="104.9" stroke="#222" stroke-width="1.0"/>
<line x1="-113.6" y1="106.3" x2="-113.7" y2="104.9" stroke="#222" stroke-width="1.0"/>
<line x1="-113.6" y1="106.3" x2="-113.4" y2="107.6" stroke="#222" stroke-width="1.0"/>
<line x1="-111.1" y1="115.7" x2="-110.6" y2="116.8" stroke="#222" stroke-width="1.0"/>
<line x1="-108.4" y1="120.4" x2="-107.0" y2="122.1" stroke="#222" stroke-width="1.0"/>
<line x1="-104.1" y1="125.3" x2="-103.2" y2="126.0" stroke="#222" stroke-width="1.0"/>
<line x1="-104.6" y1="160.1" x2="-104.8" y2="160.0" stroke="#222" stroke-width="1.0"/>
<line x1="-112.2" y1="154.6" x2="-109.6" y2="156.6" stroke="#222" stroke-width="1.0"/>
<line x1="-113.8" y1="153.3" x2="-115.5" y2="151.9" stroke="#222" stroke-width="1.0"/>
<line x1="-119.8" y1="148.2" x2="-120.4" y2="147.7" stroke="#222" stroke-width="1.0"/>
<line x1="-122.9" y1="145.3" x2="-123.2" y2="145.1" stroke="#222" stroke-width="1.0"/>
<line x1="-121.7" y1="79.2" x2="-123.6" y2="81.9" stroke="#222" stroke-width="1.0"/>
<line x1="-116.6" y1="72.7" x2="-118.9" y2="75.5" stroke="#222" stroke-width="1.0"/>
<line x1="-123.6" y1="81.9" x2="-124.0" y2="82.4" stroke="#222" stroke-width="1.0"/>
<line x1="-104.1" y1="81.8" x2="-103.3" y2="81.1" stroke="#222" stroke-width="1.0"/>
<line x1="-97.5" y1="58.5" x2="-100.4" y2="59.6" stroke="#222" stroke-width="1.0"/>
<line x1="-98.7" y1="77.9" x2="-95.6" y2="76.3" stroke="#222" stroke-width="1.0"/>
<line x1="-90.9" y1="57.2" x2="-92.7" y2="57.5" stroke="#222" stroke-width="1.0"/>
<line x1="-105.3" y1="62.1" x2="-106.2" y2="62.7" stroke="#222" stroke-width="1.0"/>
<line x1="-108.8" y1="64.7" x2="-109.8" y2="65.5" stroke="#222" stroke-width="1.0"/>
<line x1="-112.3" y1="68.0" x2="-113.3" y2="68.9" stroke="#222" stroke-width="1.0"/>
<line x1="-89.0" y1="74.5" x2="-88.1" y2="74.5" stroke="#222" stroke-width="1.0"/>
<line x1="18.1" y1="74.1" x2="25.2" y2="74.1" stroke="#222" stroke-width="1.0"/>
<line x1="-11.1" y1="56.0" x2="-15.4" y2="56.0" stroke="#222" stroke-width="1.0"/>
<line x1="13.1" y1="56.0" x2="8.4" y2="56.0" stroke="#222" stroke-width="1.0"/>
<line x1="18.5" y1="56.0" x2="13.1" y2="56.0" stroke="#222" stroke-width="1.0"/>
<line x1="40.1" y1="74.5" x2="40.0" y2="74.5" stroke="#222" stroke-width="1.0"/>
<line x1="44.6" y1="77.1" x2="44.6" y2="77.0" stroke="#222" stroke-width="1.0"/>
<line x1="54.5" y1="240.6" x2="54.5" y2="163.8" stroke="#222" stroke-width="1.0"/>
<line x1="177.3" y1="56.0" x2="107.8" y2="56.0" stroke="#222" stroke-width="1.0"/>
<line x1="63.2" y1="36.6" x2="64.0" y2="36.4" stroke="#222" stroke-width="1.0"/>
<line x1="58.2" y1="39.7" x2="58.7" y2="39.2" stroke="#222" stroke-width="1.0"/>
<line x1="62.3" y1="246.0" x2="68.2" y2="246.0" stroke="#222" stroke-width="1.0"/>
<line x1="304.6" y1="36.0" x2="305.9" y2="36.1" stroke="#222" stroke-width="1.0"/>
<line x1="268.8" y1="36.0" x2="264.0" y2="36.0" stroke="#222" stroke-width="1.0"/>
<line x1="304.6" y1="36.0" x2="290.9" y2="36.0" stroke="#222" stroke-width="1.0"/>
<line x1="76.3" y1="46.0" x2="68.2" y2="46.0" stroke="#222" stroke-width="1.0"/>
<line x1="326.3" y1="56.0" x2="329.1" y2="56.0" stroke="#222" stroke-width="1.0"/>
<line x1="329.1" y1="56.0" x2="348.6" y2="56.0" stroke="#222" stroke-width="1.0"/>
<line x1="317.3" y1="48.5" x2="317.3" y2="53.5" stroke="#222" stroke-width="1.0"/>
<line x1="317.3" y1="53.5" x2="317.3" y2="56.0" stroke="#222" stroke-width="1.0"/>
<line x1="317.2" y1="47.5" x2="317.3" y2="48.5" stroke="#222" stroke-width="1.0"/>
<line x1="317.2" y1="47.5" x2="317.0" y2="45.7" stroke="#222" stroke-width="1.0"/>
<line x1="348.6" y1="56.0" x2="348.6" y2="56.0" stroke="#222" stroke-width="1.0"/>
<line x1="348.6" y1="56.0" x2="354.3" y2="56.0" stroke="#222" stroke-width="1.0"/>
<line x1="320.0" y1="56.0" x2="326.3" y2="56.0" stroke="#222" stroke-width="1.0"/>
<line x1="348.6" y1="56.0" x2="348.6" y2="56.0" stroke="#222" stroke-width="1.0"/>
<line x1="346.8" y1="74.1" x2="355.2" y2="74.1" stroke="#222" stroke-width="1.0"/>
<line x1="364.2" y1="74.1" x2="355.2" y2="74.1" stroke="#222" stroke-width="1.0"/>
<line x1="372.4" y1="56.0" x2="377.3" y2="56.0" stroke="#222" stroke-width="1.0"/>
<line x1="377.3" y1="56.0" x2="382.0" y2="56.0" stroke="#222" stroke-width="1.0"/>
<line x1="400.8" y1="56.0" x2="396.7" y2="56.0" stroke="#222" stroke-width="1.0"/>
<line x1="404.6" y1="56.0" x2="400.8" y2="56.0" stroke="#222" stroke-width="1.0"/>
<line x1="411.5" y1="56.0" x2="404.6" y2="56.0" stroke="#222" stroke-width="1.0"/>
<line x1="414.9" y1="56.0" x2="411.5" y2="56.0" stroke="#222" stroke-width="1.0"/>
<line x1="373.7" y1="74.1" x2="378.7" y2="74.1" stroke="#222" stroke-width="1.0"/>
<line x1="383.7" y1="74.1" x2="378.7" y2="74.1" stroke="#222" stroke-width="1.0"/>
<line x1="421.1" y1="56.0" x2="418.1" y2="56.0" stroke="#222" stroke-width="1.0"/>
<line x1="424.0" y1="56.0" x2="421.1" y2="56.0" stroke="#222" stroke-width="1.0"/>
<line x1="465.2" y1="75.7" x2="461.6" y2="74.6" stroke="#222" stroke-width="1.0"/>
<line x1="461.6" y1="74.6" x2="459.9" y2="74.5" stroke="#222" stroke-width="1.0"/>
<line x1="453.6" y1="74.1" x2="456.1" y2="74.1" stroke="#222" stroke-width="1.0"/>
<line x1="453.6" y1="74.1" x2="450.9" y2="74.1" stroke="#222" stroke-width="1.0"/>
<line x1="450.9" y1="74.1" x2="447.9" y2="74.1" stroke="#222" stroke-width="1.0"/>
<line x1="444.8" y1="74.1" x2="447.9" y2="74.1" stroke="#222" stroke-width="1.0"/>
<line x1="444.8" y1="74.1" x2="441.4" y2="74.1" stroke="#222" stroke-width="1.0"/>
<line x1="441.4" y1="74.1" x2="437.8" y2="74.1" stroke="#222" stroke-width="1.0"/>
<line x1="431.5" y1="56.1" x2="429.3" y2="56.0" stroke="#222" stroke-width="1.0"/>
<line x1="437.5" y1="56.1" x2="433.8" y2="56.1" stroke="#222" stroke-width="1.0"/>
<line x1="444.4" y1="56.2" x2="441.0" y2="56.1" stroke="#222" stroke-width="1.0"/>
<line x1="450.2" y1="56.3" x2="447.0" y2="56.2" stroke="#222" stroke-width="1.0"/>
<line x1="455.4" y1="56.5" x2="452.4" y2="56.4" stroke="#222" stroke-width="1.0"/>
<line x1="457.3" y1="56.7" x2="455.4" y2="56.5" stroke="#222" stroke-width="1.0"/>
<line x1="460.1" y1="56.9" x2="457.3" y2="56.7" stroke="#222" stroke-width="1.0"/>
<line x1="461.7" y1="57.1" x2="460.1" y2="56.9" stroke="#222" stroke-width="1.0"/>
<line x1="473.4" y1="60.1" x2="472.6" y2="59.7" stroke="#222" stroke-width="1.0"/>
<line x1="472.6" y1="59.7" x2="470.2" y2="58.8" stroke="#222" stroke-width="1.0"/>
<line x1="468.7" y1="77.1" x2="466.9" y2="76.2" stroke="#222" stroke-width="1.0"/>
<line x1="471.8" y1="78.6" x2="468.7" y2="77.1" stroke="#222" stroke-width="1.0"/>
<line x1="476.2" y1="82.0" x2="473.5" y2="80.0" stroke="#222" stroke-width="1.0"/>
<line x1="477.7" y1="83.7" x2="476.2" y2="82.0" stroke="#222" stroke-width="1.0"/>
<line x1="483.4" y1="67.4" x2="480.8" y2="64.9" stroke="#222" stroke-width="1.0"/>
<line x1="485.0" y1="68.9" x2="483.4" y2="67.4" stroke="#222" stroke-width="1.0"/>
<line x1="482.0" y1="89.7" x2="480.4" y2="87.1" stroke="#222" stroke-width="1.0"/>
<line x1="482.6" y1="90.8" x2="482.0" y2="89.7" stroke="#222" stroke-width="1.0"/>
<line x1="483.1" y1="91.9" x2="482.6" y2="90.8" stroke="#222" stroke-width="1.0"/>
<line x1="491.5" y1="76.6" x2="488.8" y2="73.2" stroke="#222" stroke-width="1.0"/>
<line x1="488.8" y1="73.2" x2="487.6" y2="71.9" stroke="#222" stroke-width="1.0"/>
<line x1="491.8" y1="77.1" x2="491.5" y2="76.6" stroke="#222" stroke-width="1.0"/>
<line x1="494.6" y1="80.8" x2="494.4" y2="80.5" stroke="#222" stroke-width="1.0"/>
<line x1="496.8" y1="84.2" x2="494.6" y2="80.8" stroke="#222" stroke-width="1.0"/>
<line x1="498.9" y1="87.6" x2="497.0" y2="84.4" stroke="#222" stroke-width="1.0"/>
<line x1="498.9" y1="87.7" x2="498.9" y2="87.6" stroke="#222" stroke-width="1.0"/>
<line x1="482.5" y1="116.3" x2="483.7" y2="113.5" stroke="#222" stroke-width="1.0"/>
<line x1="483.7" y1="113.5" x2="484.1" y2="112.4" stroke="#222" stroke-width="1.0"/>
<line x1="484.1" y1="112.4" x2="484.5" y2="111.1" stroke="#222" stroke-width="1.0"/>
<line x1="484.5" y1="111.1" x2="485.1" y2="108.3" stroke="#222" stroke-width="1.0"/>
<line x1="485.1" y1="108.3" x2="485.3" y2="107.0" stroke="#222" stroke-width="1.0"/>
<line x1="485.3" y1="107.0" x2="485.4" y2="105.6" stroke="#222" stroke-width="1.0"/>
<line x1="485.4" y1="105.6" x2="485.5" y2="102.7" stroke="#222" stroke-width="1.0"/>
<line x1="481.4" y1="156.6" x2="484.0" y2="154.6" stroke="#222" stroke-width="1.0"/>
<line x1="484.0" y1="154.6" x2="485.5" y2="153.3" stroke="#222" stroke-width="1.0"/>
<line x1="485.5" y1="153.3" x2="487.3" y2="151.9" stroke="#222" stroke-width="1.0"/>
<line x1="487.3" y1="151.9" x2="489.8" y2="149.7" stroke="#222" stroke-width="1.0"/>
<line x1="489.8" y1="149.7" x2="490.4" y2="149.2" stroke="#222" stroke-width="1.0"/>
<line x1="490.4" y1="149.2" x2="492.8" y2="147.1" stroke="#222" stroke-width="1.0"/>
<line x1="493.2" y1="146.7" x2="495.3" y2="144.7" stroke="#222" stroke-width="1.0"/>
<line x1="495.3" y1="144.7" x2="495.5" y2="144.5" stroke="#222" stroke-width="1.0"/>
<line x1="495.5" y1="144.5" x2="496.4" y2="143.6" stroke="#222" stroke-width="1.0"/>
<line x1="496.4" y1="143.6" x2="496.5" y2="143.4" stroke="#222" stroke-width="1.0"/>
<line x1="497.9" y1="141.9" x2="498.0" y2="141.8" stroke="#222" stroke-width="1.0"/>
<line x1="498.0" y1="141.8" x2="498.0" y2="141.7" stroke="#222" stroke-width="1.0"/>
<line x1="498.5" y1="141.1" x2="498.0" y2="141.7" stroke="#222" stroke-width="1.0"/>
<line x1="499.3" y1="139.2" x2="499.3" y2="139.9" stroke="#222" stroke-width="1.0"/>
<line x1="499.3" y1="101.0" x2="499.3" y2="139.2" stroke="#222" stroke-width="1.0"/>
<line x1="499.3" y1="88.3" x2="499.3" y2="101.0" stroke="#222" stroke-width="1.0"/>
<line x1="499.3" y1="139.9" x2="498.5" y2="141.1" stroke="#222" stroke-width="1.0"/>
<line x1="460.7" y1="132.5" x2="464.6" y2="131.6" stroke="#222" stroke-width="1.0"/>
<line x1="464.6" y1="131.6" x2="465.6" y2="131.3" stroke="#222" stroke-width="1.0"/>
<line x1="466.6" y1="130.9" x2="465.6" y2="131.3" stroke="#222" stroke-width="1.0"/>
<line x1="466.6" y1="130.9" x2="469.8" y2="129.5" stroke="#222" stroke-width="1.0"/>
<line x1="470.7" y1="129.0" x2="469.8" y2="129.5" stroke="#222" stroke-width="1.0"/>
<line x1="470.7" y1="129.0" x2="471.7" y2="128.4" stroke="#222" stroke-width="1.0"/>
<line x1="471.7" y1="128.4" x2="474.5" y2="126.4" stroke="#222" stroke-width="1.0"/>
<line x1="479.8" y1="120.9" x2="481.5" y2="118.2" stroke="#222" stroke-width="1.0"/>
<line x1="481.5" y1="118.2" x2="482.1" y2="117.3" stroke="#222" stroke-width="1.0"/>
<line x1="464.0" y1="163.8" x2="465.1" y2="163.7" stroke="#222" stroke-width="1.0"/>
<line x1="465.1" y1="163.7" x2="465.3" y2="163.6" stroke="#222" stroke-width="1.0"/>
<line x1="466.7" y1="163.5" x2="465.3" y2="163.6" stroke="#222" stroke-width="1.0"/>
<line x1="466.9" y1="163.4" x2="466.7" y2="163.5" stroke="#222" stroke-width="1.0"/>
<line x1="468.3" y1="163.1" x2="466.9" y2="163.4" stroke="#222" stroke-width="1.0"/>
<line x1="469.5" y1="162.9" x2="469.9" y2="162.8" stroke="#222" stroke-width="1.0"/>
<line x1="469.9" y1="162.7" x2="469.9" y2="162.8" stroke="#222" stroke-width="1.0"/>
<line x1="471.3" y1="162.3" x2="469.9" y2="162.7" stroke="#222" stroke-width="1.0"/>
<line x1="471.3" y1="162.3" x2="471.5" y2="162.3" stroke="#222" stroke-width="1.0"/>
<line x1="471.5" y1="162.3" x2="472.9" y2="161.7" stroke="#222" stroke-width="1.0"/>
<line x1="473.3" y1="161.6" x2="472.9" y2="161.7" stroke="#222" stroke-width="1.0"/>
<line x1="474.5" y1="161.1" x2="473.3" y2="161.6" stroke="#222" stroke-width="1.0"/>
<line x1="474.9" y1="160.8" x2="474.5" y2="161.1" stroke="#222" stroke-width="1.0"/>
<line x1="475.9" y1="160.3" x2="474.9" y2="160.8" stroke="#222" stroke-width="1.0"/>
<line x1="476.5" y1="160.0" x2="475.9" y2="160.3" stroke="#222" stroke-width="1.0"/>
<line x1="477.4" y1="159.5" x2="476.5" y2="160.0" stroke="#222" stroke-width="1.0"/>
<line x1="477.4" y1="159.5" x2="478.1" y2="159.0" stroke="#222" stroke-width="1.0"/>
<line x1="478.6" y1="158.6" x2="478.1" y2="159.0" stroke="#222" stroke-width="1.0"/>
<line x1="478.6" y1="158.6" x2="479.5" y2="158.0" stroke="#222" stroke-width="1.0"/>
<line x1="480.9" y1="156.9" x2="479.5" y2="158.0" stroke="#222" stroke-width="1.0"/>
<line x1="338.9" y1="132.6" x2="338.9" y2="132.6" stroke="#222" stroke-width="1.0"/>
<line x1="342.2" y1="132.6" x2="338.9" y2="132.6" stroke="#222" stroke-width="1.0"/>
<line x1="342.2" y1="132.6" x2="345.8" y2="132.6" stroke="#222" stroke-width="1.0"/>
<line x1="345.8" y1="132.6" x2="349.8" y2="132.6" stroke="#222" stroke-width="1.0"/>
<line x1="354.0" y1="132.6" x2="349.8" y2="132.6" stroke="#222" stroke-width="1.0"/>
<line x1="354.0" y1="132.6" x2="358.5" y2="132.6" stroke="#222" stroke-width="1.0"/>
<line x1="358.5" y1="132.6" x2="363.3" y2="132.6" stroke="#222" stroke-width="1.0"/>
<line x1="373.6" y1="132.6" x2="363.3" y2="132.6" stroke="#222" stroke-width="1.0"/>
<line x1="373.6" y1="132.6" x2="379.1" y2="132.6" stroke="#222" stroke-width="1.0"/>
<line x1="379.1" y1="132.6" x2="448.3" y2="132.6" stroke="#222" stroke-width="1.0"/>
<line x1="456.2" y1="132.6" x2="456.8" y2="132.6" stroke="#222" stroke-width="1.0"/>
<line x1="456.8" y1="132.6" x2="457.5" y2="132.6" stroke="#222" stroke-width="1.0"/>
<line x1="457.5" y1="132.6" x2="460.3" y2="132.6" stroke="#222" stroke-width="1.0"/>
<line x1="328.9" y1="105.6" x2="328.9" y2="84.1" stroke="#222" stroke-width="1.0"/>
<line x1="328.9" y1="84.1" x2="328.9" y2="84.1" stroke="#222" stroke-width="1.0"/>
<line x1="336.3" y1="132.2" x2="336.7" y2="132.3" stroke="#222" stroke-width="1.0"/>
<line x1="336.7" y1="132.3" x2="337.4" y2="132.4" stroke="#222" stroke-width="1.0"/>
<line x1="334.5" y1="131.5" x2="336.3" y2="132.2" stroke="#222" stroke-width="1.0"/>
<line x1="333.9" y1="131.2" x2="334.5" y2="131.5" stroke="#222" stroke-width="1.0"/>
<line x1="332.4" y1="130.1" x2="333.9" y2="131.2" stroke="#222" stroke-width="1.0"/>
<line x1="330.7" y1="128.1" x2="331.9" y2="129.7" stroke="#222" stroke-width="1.0"/>
<line x1="330.3" y1="127.6" x2="330.7" y2="128.1" stroke="#222" stroke-width="1.0"/>
<line x1="330.3" y1="127.6" x2="329.5" y2="125.8" stroke="#222" stroke-width="1.0"/>
<line x1="329.3" y1="125.2" x2="329.5" y2="125.8" stroke="#222" stroke-width="1.0"/>
<line x1="329.2" y1="124.9" x2="329.3" y2="125.2" stroke="#222" stroke-width="1.0"/>
<line x1="328.9" y1="122.6" x2="329.2" y2="124.9" stroke="#222" stroke-width="1.0"/>
<line x1="331.9" y1="129.7" x2="332.4" y2="130.1" stroke="#222" stroke-width="1.0"/>
<line x1="328.9" y1="122.6" x2="328.9" y2="122.6" stroke="#222" stroke-width="1.0"/>
<line x1="328.9" y1="84.1" x2="329.0" y2="83.2" stroke="#222" stroke-width="1.0"/>
<line x1="329.0" y1="83.2" x2="329.1" y2="82.6" stroke="#222" stroke-width="1.0"/>
<line x1="329.2" y1="81.8" x2="329.1" y2="82.6" stroke="#222" stroke-width="1.0"/>
<line x1="333.4" y1="75.9" x2="331.9" y2="77.0" stroke="#222" stroke-width="1.0"/>
<line x1="331.9" y1="77.0" x2="331.5" y2="77.6" stroke="#222" stroke-width="1.0"/>
<line x1="331.5" y1="77.6" x2="330.3" y2="79.1" stroke="#222" stroke-width="1.0"/>
<line x1="330.3" y1="79.1" x2="330.0" y2="79.7" stroke="#222" stroke-width="1.0"/>
<line x1="330.0" y1="79.7" x2="329.3" y2="81.5" stroke="#222" stroke-width="1.0"/>
<line x1="333.9" y1="75.5" x2="333.4" y2="75.9" stroke="#222" stroke-width="1.0"/>
<line x1="333.9" y1="75.5" x2="335.7" y2="74.7" stroke="#222" stroke-width="1.0"/>
<line x1="329.3" y1="81.5" x2="329.2" y2="81.8" stroke="#222" stroke-width="1.0"/>
<line x1="328.9" y1="105.6" x2="328.9" y2="122.6" stroke="#222" stroke-width="1.0"/>
<line x1="338.1" y1="132.5" x2="337.4" y2="132.4" stroke="#222" stroke-width="1.0"/>
<line x1="338.9" y1="132.6" x2="338.1" y2="132.5" stroke="#222" stroke-width="1.0"/>
<line x1="469.5" y1="162.9" x2="468.4" y2="163.1" stroke="#222" stroke-width="1.0"/>
<line x1="468.4" y1="163.1" x2="468.3" y2="163.1" stroke="#222" stroke-width="1.0"/>
<line x1="463.7" y1="163.8" x2="464.0" y2="163.8" stroke="#222" stroke-width="1.0"/>
<line x1="462.7" y1="163.8" x2="463.7" y2="163.8" stroke="#222" stroke-width="1.0"/>
<line x1="462.4" y1="163.8" x2="462.7" y2="163.8" stroke="#222" stroke-width="1.0"/>
<line x1="425.2" y1="163.8" x2="462.4" y2="163.8" stroke="#222" stroke-width="1.0"/>
<line x1="475.3" y1="125.7" x2="476.1" y2="124.9" stroke="#222" stroke-width="1.0"/>
<line x1="476.1" y1="124.9" x2="478.4" y2="122.6" stroke="#222" stroke-width="1.0"/>
<line x1="478.4" y1="122.6" x2="479.1" y2="121.8" stroke="#222" stroke-width="1.0"/>
<line x1="479.1" y1="121.8" x2="479.8" y2="120.9" stroke="#222" stroke-width="1.0"/>
<line x1="474.5" y1="126.4" x2="475.3" y2="125.7" stroke="#222" stroke-width="1.0"/>
<line x1="460.3" y1="132.6" x2="460.7" y2="132.5" stroke="#222" stroke-width="1.0"/>
<line x1="448.3" y1="132.6" x2="456.2" y2="132.6" stroke="#222" stroke-width="1.0"/>
<line x1="492.8" y1="147.1" x2="493.2" y2="146.7" stroke="#222" stroke-width="1.0"/>
<line x1="480.9" y1="156.9" x2="481.4" y2="156.6" stroke="#222" stroke-width="1.0"/>
<line x1="482.1" y1="117.3" x2="482.5" y2="116.3" stroke="#222" stroke-width="1.0"/>
<line x1="498.9" y1="87.7" x2="499.3" y2="88.3" stroke="#222" stroke-width="1.0"/>
<line x1="497.3" y1="142.6" x2="497.9" y2="141.9" stroke="#222" stroke-width="1.0"/>
<line x1="496.5" y1="143.4" x2="497.3" y2="142.6" stroke="#222" stroke-width="1.0"/>
<line x1="497.0" y1="84.4" x2="496.8" y2="84.2" stroke="#222" stroke-width="1.0"/>
<line x1="494.4" y1="80.5" x2="491.8" y2="77.1" stroke="#222" stroke-width="1.0"/>
<line x1="485.5" y1="102.7" x2="485.4" y2="101.3" stroke="#222" stroke-width="1.0"/>
<line x1="485.4" y1="101.3" x2="485.3" y2="100.0" stroke="#222" stroke-width="1.0"/>
<line x1="485.3" y1="100.0" x2="484.8" y2="97.1" stroke="#222" stroke-width="1.0"/>
<line x1="484.8" y1="97.1" x2="484.5" y2="95.8" stroke="#222" stroke-width="1.0"/>
<line x1="484.5" y1="95.8" x2="484.1" y2="94.7" stroke="#222" stroke-width="1.0"/>
<line x1="484.1" y1="94.7" x2="483.1" y2="91.9" stroke="#222" stroke-width="1.0"/>
<line x1="487.6" y1="71.9" x2="485.0" y2="68.9" stroke="#222" stroke-width="1.0"/>
<line x1="480.4" y1="87.1" x2="479.8" y2="86.1" stroke="#222" stroke-width="1.0"/>
<line x1="479.8" y1="64.1" x2="477.3" y2="62.2" stroke="#222" stroke-width="1.0"/>
<line x1="477.3" y1="62.2" x2="475.9" y2="61.4" stroke="#222" stroke-width="1.0"/>
<line x1="479.8" y1="86.1" x2="477.7" y2="83.7" stroke="#222" stroke-width="1.0"/>
<line x1="473.5" y1="80.0" x2="471.8" y2="78.6" stroke="#222" stroke-width="1.0"/>
<line x1="465.6" y1="57.6" x2="463.1" y2="57.3" stroke="#222" stroke-width="1.0"/>
<line x1="466.8" y1="57.9" x2="465.6" y2="57.6" stroke="#222" stroke-width="1.0"/>
<line x1="469.2" y1="58.5" x2="466.8" y2="57.9" stroke="#222" stroke-width="1.0"/>
<line x1="470.2" y1="58.8" x2="469.2" y2="58.5" stroke="#222" stroke-width="1.0"/>
<line x1="475.9" y1="61.4" x2="473.4" y2="60.1" stroke="#222" stroke-width="1.0"/>
<line x1="463.1" y1="57.3" x2="461.7" y2="57.1" stroke="#222" stroke-width="1.0"/>
<line x1="466.9" y1="76.2" x2="465.2" y2="75.7" stroke="#222" stroke-width="1.0"/>
<line x1="456.1" y1="74.1" x2="459.9" y2="74.5" stroke="#222" stroke-width="1.0"/>
<line x1="480.8" y1="64.9" x2="479.8" y2="64.1" stroke="#222" stroke-width="1.0"/>
<line x1="452.4" y1="56.4" x2="450.2" y2="56.3" stroke="#222" stroke-width="1.0"/>
<line x1="447.0" y1="56.2" x2="444.4" y2="56.2" stroke="#222" stroke-width="1.0"/>
<line x1="441.0" y1="56.1" x2="439.4" y2="56.1" stroke="#222" stroke-width="1.0"/>
<line x1="439.4" y1="56.1" x2="437.5" y2="56.1" stroke="#222" stroke-width="1.0"/>
<line x1="433.8" y1="56.1" x2="431.5" y2="56.1" stroke="#222" stroke-width="1.0"/>
<line x1="429.3" y1="56.0" x2="426.6" y2="56.0" stroke="#222" stroke-width="1.0"/>
<line x1="426.6" y1="56.0" x2="424.0" y2="56.0" stroke="#222" stroke-width="1.0"/>
<line x1="418.1" y1="56.0" x2="414.9" y2="56.0" stroke="#222" stroke-width="1.0"/>
<line x1="373.7" y1="74.1" x2="364.2" y2="74.1" stroke="#222" stroke-width="1.0"/>
<line x1="365.5" y1="56.0" x2="360.2" y2="56.0" stroke="#222" stroke-width="1.0"/>
<line x1="317.3" y1="56.0" x2="320.0" y2="56.0" stroke="#222" stroke-width="1.0"/>
<line x1="316.8" y1="45.1" x2="317.0" y2="45.7" stroke="#222" stroke-width="1.0"/>
<line x1="316.2" y1="43.5" x2="315.7" y2="42.5" stroke="#222" stroke-width="1.0"/>
<line x1="313.6" y1="39.7" x2="314.4" y2="40.5" stroke="#222" stroke-width="1.0"/>
<line x1="310.3" y1="37.3" x2="311.5" y2="38.0" stroke="#222" stroke-width="1.0"/>
<line x1="309.8" y1="37.1" x2="310.3" y2="37.3" stroke="#222" stroke-width="1.0"/>
<line x1="306.6" y1="36.2" x2="305.9" y2="36.1" stroke="#222" stroke-width="1.0"/>
<line x1="93.7" y1="54.6" x2="97.7" y2="58.5" stroke="#222" stroke-width="1.0"/>
<line x1="242.5" y1="61.0" x2="97.7" y2="61.0" stroke="#222" stroke-width="1.0"/>
<line x1="274.0" y1="59.0" x2="274.0" y2="58.5" stroke="#222" stroke-width="1.0"/>
<line x1="425.2" y1="163.8" x2="317.3" y2="163.8" stroke="#222" stroke-width="1.0"/>
<line x1="336.3" y1="74.5" x2="335.7" y2="74.7" stroke="#222" stroke-width="1.0"/>
<line x1="346.8" y1="74.1" x2="338.9" y2="74.1" stroke="#222" stroke-width="1.0"/>
<line x1="437.8" y1="74.1" x2="383.7" y2="74.1" stroke="#222" stroke-width="1.0"/>
<line x1="396.7" y1="56.0" x2="389.2" y2="56.0" stroke="#222" stroke-width="1.0"/>
<line x1="389.2" y1="56.0" x2="382.0" y2="56.0" stroke="#222" stroke-width="1.0"/>
<line x1="368.9" y1="56.0" x2="372.4" y2="56.0" stroke="#222" stroke-width="1.0"/>
<line x1="365.5" y1="56.0" x2="368.9" y2="56.0" stroke="#222" stroke-width="1.0"/>
<line x1="360.2" y1="56.0" x2="357.1" y2="56.0" stroke="#222" stroke-width="1.0"/>
<line x1="357.1" y1="56.0" x2="354.3" y2="56.0" stroke="#222" stroke-width="1.0"/>
<line x1="286.5" y1="46.0" x2="295.4" y2="46.0" stroke="#222" stroke-width="1.0"/>
<line x1="303.6" y1="96.9" x2="303.6" y2="146.0" stroke="#222" stroke-width="1.0"/>
<line x1="303.6" y1="182.9" x2="303.6" y2="146.0" stroke="#222" stroke-width="1.0"/>
<line x1="317.3" y1="229.2" x2="317.3" y2="222.9" stroke="#222" stroke-width="1.0"/>
<line x1="16.0" y1="206.0" x2="366.0" y2="206.0" stroke="#0a0" stroke-width="1.2"/>
<line x1="103.5" y1="246.0" x2="103.5" y2="206.0" stroke="#c60" stroke-width="1.0"/>
<line x1="268.5" y1="246.0" x2="268.5" y2="206.0" stroke="#c60" stroke-width="1.0"/>
<text x="26.0" y="31.0" font-size="9" fill="#000" text-anchor="start" font-family="monospace">x_n=+36; green DAT-F; orange beam</text>
</svg>
